<?xml version="1.0" encoding="utf-8"?>
<!-- Generator: Adobe Illustrator 27.8.1, SVG Export Plug-In . SVG Version: 6.00 Build 0)  -->
<svg version="1.1" id="Layer_1" xmlns="http://www.w3.org/2000/svg" xmlns:xlink="http://www.w3.org/1999/xlink" x="0px" y="0px"
	 viewBox="0 0 1103.4 1041.2" style="enable-background:new 0 0 1103.4 1041.2;" xml:space="preserve">
<style type="text/css">
	.st0{fill:#21ADD8;}
	.st1{fill:#4C6EDB;}
	.st2{fill:#6E40AA;}
	.st3{fill:#BD3DAF;}
	.st4{fill:#D43E6B;}
	.st5{fill:#FF7847;}
	.st6{fill:#E2B72E;}
	.st7{fill:#AFF05B;}
	.st8{fill:#41D850;}
	.st9{fill:#1DDFA3;}
</style>
<rect x="-0.1" width="1102.5" height="1040.8"/>
<g>
	<g>
		<path class="st0" d="M111.1,272.7c0.1-0.8,0.3-1.4,0.5-1.8c1.9-3.9,6.3-4.9,9.9-2.3c4,2.9,5.6,9.2,3.5,13.8
			c-0.7,1.5-1.9,3.3-3.5,4.8c-0.8-0.5-1.7-1-2.5-1.6c-5.1-3.2-10.1-6.6-15-10.3c-1.9-1.4-2.1-1.5-3.4,0.9c-0.3-0.2-0.5-0.4-0.8-0.6
			c0.6-1.9,1.2-4.6,1.5-6.3c1.2,0.9,2.4,1.9,3.6,2.8c2,1.5,3.9,2.9,5.9,4.4C110.9,275.1,111,273.9,111.1,272.7z M119.7,282.5
			c0.5,0.3,0.8,0.5,1.2,0.5c1,0.1,2.5-0.8,3.3-2.4c1.4-3-0.1-6-3.6-8.4c-3.4-2.4-6.7-1.5-8.1,1.5c-0.5,1-0.8,2.5-0.8,3.4
			C114.3,278.9,117,280.8,119.7,282.5z"/>
		<path class="st0" d="M131,269.2c-0.3-0.2-0.6-0.4-0.8-0.6c1-2.3,1-2.6-1-4c-4.7-3.4-9.4-7-14-10.8c-1.8-1.5-2-1.5-3.5,0.6
			c-0.2-0.2-0.5-0.4-0.8-0.6c0.9-2,1.7-4.5,2.1-5.9c1.3,1.2,2.7,2.3,4,3.5c4.5,3.8,9,7.4,13.7,10.7c1.9,1.4,2.2,1.3,3.6-0.7
			c0.3,0.2,0.6,0.4,0.8,0.6C133.7,264.3,132.3,266.7,131,269.2z"/>
		<path class="st0" d="M146.8,242.7c-0.8,1.5-1.6,3.4-2.3,5.3c-0.4-0.4-1.5-1.1-2.2-1.7c0.1,2.6,0.1,4.6-1,6.3c-1.4,2-3.7,3-6.8,0.6
			c-1.9-1.4-3.7-2.9-5.5-4.4c-1.5-1.3-1.9-1.1-2.5-0.5c-0.2,0.3-0.5,0.5-0.7,0.8c-0.2-0.2-0.5-0.4-0.7-0.6c0.8-1.4,1.9-3.8,2.5-5
			c0.8,0.9,2.1,2,4,3.5c1.3,1.1,2.6,2.1,3.8,3.1c2.5,2,4.1,1.1,5.1-0.3c0.8-1.1,1.1-2.6,0.9-4.3c-2.2-1.7-4.3-3.5-6.4-5.4
			c-1.5-1.3-1.9-1.1-2.8-0.2c-0.3,0.3-0.5,0.6-0.8,0.9c-0.2-0.2-0.5-0.4-0.7-0.6c1.3-2.1,2.6-4.4,3-5.2c3,2.7,6,5.4,9.1,7.9
			c1.4,1.1,1.8,1,2.6,0c0.2-0.3,0.4-0.5,0.6-0.8C146.3,242.3,146.5,242.5,146.8,242.7z"/>
		<path class="st0" d="M156.2,227.7c0.6,3.6-0.5,5.8-1.3,6.7c-2.7,3.3-7.1,3.2-10.2,0.5c-1.8-1.6-2.9-3.8-3.1-6.1
			c-0.2-2.4,0.4-4.6,1.6-6c2.1-2.4,5.6-2.2,7.6-0.3c0.5,0.5,0.6,0.8,0.4,1.3c-0.4,0.6-3.2,4.3-5.8,7.7c3.5,3.3,6.8,2.2,8.4,0.3
			c0.9-1.1,1.4-2.5,1.4-4.3C155.6,227.6,155.9,227.7,156.2,227.7z M143.7,224.4c-1.1,1.3-1.1,3.6,0.8,6c1.3-1.6,2.6-3.1,3.9-4.8
			c0.4-0.5,0.4-0.8,0.1-1.1C147.1,223.1,145,222.8,143.7,224.4z"/>
	</g>
</g>
<g>
	<g>
		<path class="st1" d="M289.6,97.4c0.4-0.5,0.9-0.9,1.2-1.1c3.5-1.8,7.9-0.3,9.9,3.7c2.2,4.5,0.4,10.3-3.6,12.6
			c-1.3,0.7-3.2,1.4-5.4,1.5c-0.4-0.9-0.9-1.8-1.4-2.7c-2.8-5.3-5.6-10.7-8.4-16c-1.1-2.1-1.3-2.2-3.5-1.2c-0.1-0.3-0.3-0.6-0.5-0.9
			c1.4-1.1,3.1-2.7,4.1-3.7c0.7,1.3,1.4,2.6,2.1,3.9c1.1,2.2,2.3,4.3,3.4,6.4C288.2,99.2,288.9,98.3,289.6,97.4z M292.5,109.7
			c0.3,0.5,0.5,0.8,0.8,1.1c0.8,0.6,2.5,0.9,4,0.1c2.7-1.5,2.8-4.7,1-8.4c-1.9-3.8-5.2-4.9-7.9-3.4c-0.9,0.5-1.8,1.4-2.2,2
			C289.6,103.9,291.1,106.8,292.5,109.7z"/>
		<path class="st1" d="M308.7,105.9c-0.1-0.3-0.3-0.6-0.5-0.9c1.9-1.2,2.1-1.5,1.1-3.8c-2.5-5.4-5.1-10.7-7.8-16.1
			c-1-2-1.3-2.2-3.5-1.4c-0.1-0.3-0.3-0.6-0.4-0.9c1.7-1.1,3.5-2.7,4.4-3.6c0.8,1.6,1.5,3.2,2.3,4.8c2.6,5.3,5.1,10.6,7.6,15.8
			c1,2.2,1.3,2.3,3.5,1.5c0.1,0.3,0.3,0.6,0.4,0.9C313.5,103.5,311.1,104.7,308.7,105.9z"/>
		<path class="st1" d="M335.6,92.3c-1.5,0.9-3.1,2.2-4.6,3.4c-0.2-0.5-0.8-1.8-1.1-2.6c-1.1,2.3-2.1,4.1-3.9,4.9
			c-2.2,1-4.7,0.5-6.4-3.2c-1-2.2-2-4.4-3-6.5c-0.8-1.8-1.2-1.9-2.1-1.7c-0.3,0.1-0.7,0.2-1,0.3c-0.1-0.3-0.3-0.6-0.4-0.9
			c1.4-0.8,3.5-2.1,4.5-2.8c0.4,1.1,1.1,2.8,2.1,5c0.7,1.5,1.4,3.1,2.1,4.6c1.3,3,3.2,3.1,4.7,2.4c1.2-0.6,2.2-1.7,2.9-3.2
			c-1.1-2.6-2.3-5.3-3.5-7.9c-0.8-1.8-1.3-1.9-2.5-1.5c-0.4,0.1-0.8,0.2-1.1,0.3c-0.1-0.3-0.3-0.6-0.4-0.9c2.1-1.1,4.3-2.5,5-3
			c1.7,3.8,3.3,7.6,4.9,11.4c0.7,1.7,1.1,1.8,2.4,1.3c0.3-0.1,0.6-0.2,1-0.4C335.3,91.7,335.4,92,335.6,92.3z"/>
		<path class="st1" d="M351.3,83.4c-1.1,3.6-3.2,5.1-4.3,5.6c-4.1,1.7-8-0.7-9.6-4.6c-1-2.3-1.1-4.8-0.3-6.9
			c0.8-2.2,2.3-3.8,4.1-4.6c3-1.2,6.4,0.5,7.5,3.2c0.2,0.7,0.2,1-0.2,1.4c-0.6,0.4-4.9,2.4-8.9,4.2c1.8,4.6,5.3,5.3,7.7,4.4
			c1.4-0.6,2.5-1.7,3.3-3.3C350.7,83,351,83.2,351.3,83.4z M340.9,74.5c-1.6,0.6-2.5,2.7-1.9,5.7c1.9-0.8,3.8-1.6,5.8-2.5
			c0.6-0.2,0.8-0.5,0.5-1C344.7,74.9,342.8,73.7,340.9,74.5z"/>
		<path class="st1" d="M363.2,74.6c-2.7,1-5.4,1.9-8,2.9c-0.2-0.7-0.4-1.4-0.6-2.2c2.7-1,5.4-2,8-2.9
			C362.9,73.1,363,73.8,363.2,74.6z"/>
		<path class="st1" d="M365.9,65c1.6-0.8,3.2-2,4.7-3.2c0.3,0.8,0.7,1.9,1,2.8c0.1-0.1,2.4-2.6,2.5-2.7c0.7-0.7,1.4-1.2,1.9-1.4
			c4-1.3,7.5,1.2,8.6,4.6c1.7,5.2-1.5,9.9-5.8,12.2c-1.1,0.3-2.1,0.3-2.7,0.2c0.5,1.6,1.1,3.1,1.6,4.7c0.9,2.6,1.2,2.7,4,2
			c0.1,0.3,0.2,0.6,0.3,1c-2.7,0.9-5.5,1.8-8.2,2.8c-0.1-0.3-0.2-0.6-0.3-1c2.2-1,2.4-1.3,1.6-3.6c-1.8-5.2-3.7-10.4-5.5-15.7
			c-0.7-2.1-0.9-2.2-3.3-1.7C366.1,65.7,366,65.3,365.9,65z M375.2,75.1c1.1,0.5,2.6,0.6,3.8,0.2c3.1-1,4.2-4.1,2.9-8
			c-1.2-3.7-4.3-5.1-6.8-4.3c-1.3,0.4-2.5,1.7-3.2,2.7C373.1,68.8,374.2,72,375.2,75.1z"/>
		<path class="st1" d="M410.1,66.9c-1.7,0.7-3.5,1.6-5.2,2.7c-0.2-0.6-0.5-1.8-0.8-2.7c-1.5,2.1-2.8,3.6-4.7,4.2
			c-2.4,0.7-4.9-0.1-6.1-3.9c-0.7-2.2-1.4-4.5-2.1-6.7c-0.6-1.9-1-2-1.9-1.9c-0.4,0-0.7,0.1-1.1,0.1c-0.1-0.3-0.2-0.6-0.3-0.9
			c1.5-0.5,3.9-1.6,5.1-2.1c0.2,1.1,0.8,2.8,1.5,5.1c0.5,1.6,1,3.1,1.5,4.7c1,3.1,2.9,3.4,4.5,3c1.3-0.4,2.5-1.3,3.4-2.7
			c-0.8-2.7-1.6-5.4-2.4-8.1c-0.6-1.9-1.1-2-2.4-1.8c-0.4,0.1-0.8,0.1-1.2,0.2c-0.1-0.3-0.2-0.6-0.3-0.9c2.3-0.7,4.8-1.8,5.6-2.2
			c1.2,3.9,2.3,7.8,3.5,11.6c0.5,1.7,0.9,1.9,2.3,1.6c0.3-0.1,0.7-0.2,1-0.2C409.9,66.2,410,66.6,410.1,66.9z"/>
		<path class="st1" d="M423.3,64.6c-2.8,0.6-5.6,1.3-8.5,2c-0.1-0.3-0.2-0.7-0.3-1c2.2-0.8,2.4-1,1.8-3.2c-0.7-2.4-1.4-4.8-2-7.2
			c-0.6-2.3-0.8-2.4-3.1-2.1c-0.1-0.3-0.2-0.6-0.2-0.9c1.8-0.7,3.3-1.5,4.9-2.7c0.3,1.2,0.8,2.7,1.1,3.8c0.8-2.1,1.9-4.4,3.8-4.8
			c1.4-0.3,2.4,0.3,2.6,1.2c0.2,0.8-0.2,1.7-0.8,2.2c-0.3,0.3-0.6,0.3-1,0.1c-0.7-0.4-1.3-0.7-1.9-0.5c-0.8,0.2-1.9,1.6-2.2,3.5
			c0.6,2.2,1.2,4.4,1.8,6.5c0.6,2.3,0.9,2.4,3.8,2C423.2,63.9,423.3,64.2,423.3,64.6z"/>
		<path class="st1" d="M427.3,48.3c1.7-0.6,3.5-1.6,5.1-2.6c0.2,0.8,0.5,2,0.7,2.8c0.1-0.1,2.8-2.3,2.9-2.4c0.8-0.6,1.5-1,2-1.1
			c4.2-0.8,7.6,2,8.4,5.5c1.2,5.3-2.6,9.4-7.2,11.2c-1.1,0.2-2.2,0.1-2.8-0.1c0.4,1.6,0.8,3.1,1.2,4.7c0.6,2.6,1,2.7,3.9,2.4
			c0.1,0.3,0.2,0.7,0.2,1c-2.9,0.6-5.8,1.2-8.7,1.8c-0.1-0.3-0.2-0.7-0.2-1c2.3-0.8,2.6-1,2-3.3c-1.3-5.3-2.6-10.6-4-15.8
			c-0.5-2.1-0.7-2.2-3.2-2C427.4,49,427.4,48.6,427.3,48.3z M435.8,59.1c1.1,0.6,2.7,0.9,3.9,0.7c3.3-0.6,4.8-3.5,3.9-7.4
			c-0.9-3.8-3.8-5.5-6.5-5c-1.3,0.2-2.7,1.4-3.6,2.3C434.2,52.8,435,56,435.8,59.1z"/>
		<path class="st1" d="M453.6,58.7c-0.1-0.3-0.1-0.7-0.2-1c2.4-0.6,2.7-0.8,2.2-3.1c-1.2-5.6-2.5-11.1-3.7-16.7
			c-0.5-2.1-0.7-2.3-3.3-2.2c-0.1-0.3-0.1-0.6-0.2-0.9c2.1-0.5,4.4-1.5,5.6-2.1c0.4,1.6,0.8,3.3,1.1,5c1.2,5.5,2.4,11,3.6,16.5
			c0.5,2.3,0.8,2.4,3.3,2.3c0.1,0.3,0.1,0.7,0.2,1C459.2,57.8,456.4,58.2,453.6,58.7z"/>
		<path class="st1" d="M480.5,52c-2,3.1-4.6,4-5.8,4.1c-4.7,0.6-8.2-2.5-9-6.5c-0.5-2.4,0-4.7,1.3-6.4c1.3-1.8,3.3-3,5.3-3.3
			c3.4-0.4,6.5,2,7,4.7c0.1,0.7,0,1-0.6,1.2c-0.8,0.2-5.7,1.1-10.3,1.8c0.8,4.7,4.3,6.2,7.1,5.9c1.6-0.2,2.9-1,4.2-2.3
			C480,51.5,480.3,51.7,480.5,52z M471.6,41.3c-1.8,0.2-3.3,1.9-3.2,4.8c2.2-0.3,4.4-0.5,6.7-0.9c0.7-0.1,0.9-0.3,0.8-0.8
			C475.5,42.6,473.8,41,471.6,41.3z"/>
	</g>
</g>
<g>
	<g>
		<path class="st2" d="M662.8,44.3c1.8,0.2,3.9,0.1,5.9-0.2c-0.4,0.9-0.8,2-1.2,2.9c0.1-0.1,3.7-0.9,3.9-0.9
			c1.1-0.2,1.9-0.2,2.4-0.1c3.9,1.2,4.8,5.2,3.3,8.7c-2.3,5.4-7.7,7.6-12.6,7.2c-1-0.3-1.8-0.9-2.2-1.3c-0.6,1.6-1.2,3.3-1.8,4.9
			c-0.9,2.7-0.7,3,1.8,3.9c-0.1,0.3-0.2,0.7-0.3,1c-2.7-0.7-5.4-1.4-8.1-2.1c0.1-0.3,0.2-0.7,0.3-1c2.3,0.3,2.7,0.2,3.5-2.3
			c1.9-5.5,3.9-11,6.1-16.5c0.9-2.2,0.9-2.3-1.3-3.3C662.5,45,662.7,44.6,662.8,44.3z M663.2,58c0.5,1,1.6,2,2.8,2.3
			c3,0.8,5.9-1.2,7.6-5.2c1.6-3.9,0.3-6.7-2.2-7.4c-1.3-0.4-3.1,0-4.4,0.5C665.7,51.5,664.4,54.8,663.2,58z"/>
		<path class="st2" d="M694.6,70.5c-1.7-0.4-3.6-0.6-5.5-0.7c0.2-0.6,0.8-1.8,1.2-2.7c-2.5,0.9-4.4,1.5-6.2,0.9
			c-2.2-0.8-3.6-2.9-1.9-6.7c1-2.3,2-4.6,3-6.8c0.9-1.9,0.7-2.2-0.1-2.7c-0.3-0.2-0.6-0.3-0.9-0.5c0.1-0.3,0.3-0.6,0.4-0.9
			c1.5,0.4,4,0.9,5.2,1.1c-0.6,1.1-1.4,2.8-2.5,5.1c-0.7,1.6-1.4,3.2-2.1,4.8c-1.4,3.1-0.2,4.5,1.3,5.1c1.2,0.4,2.7,0.3,4.3-0.4
			c1.2-2.7,2.5-5.4,3.8-8.1c0.9-1.9,0.6-2.3-0.4-2.9c-0.3-0.2-0.7-0.4-1-0.5c0.1-0.3,0.3-0.6,0.4-0.9c2.2,0.7,4.8,1.2,5.6,1.4
			c-1.9,3.8-3.8,7.7-5.6,11.6c-0.8,1.7-0.7,2.1,0.6,2.6c0.3,0.1,0.6,0.3,0.9,0.4C694.9,69.9,694.7,70.2,694.6,70.5z"/>
		<path class="st2" d="M705.5,76.1c-2.4-1.1-4.8-2.1-7.3-3.1c0.1-0.3,0.3-0.6,0.5-1c2.1,0.6,2.4,0.5,3.5-1.7
			c1.2-2.4,2.4-4.7,3.6-7.1c1.2-2.2,1.1-2.4-0.7-3.5c0.1-0.3,0.3-0.6,0.4-0.8c1.8,0.4,3.4,0.6,5.4,0.6c-0.6,1.1-1.4,2.6-2,3.7
			c2.1-1.3,4.4-2.5,6.1-1.7c1.2,0.6,1.4,1.6,1,2.5c-0.4,0.8-1.3,1.3-2.1,1.3c-0.4,0.1-0.7-0.1-0.8-0.5c-0.2-0.7-0.4-1.2-1-1.5
			c-0.7-0.3-2.4,0.2-4.1,1.6c-1.1,2.1-2.2,4.3-3.3,6.4c-1.1,2.3-1,2.5,1.3,3.8C705.8,75.4,705.6,75.7,705.5,76.1z"/>
		<path class="st2" d="M719.5,65c1.6,0.5,3.6,0.8,5.4,0.9c-0.5,0.8-1.1,1.8-1.5,2.6c0.1,0,3.5-0.2,3.7-0.2c1,0,1.8,0.1,2.2,0.3
			c3.4,1.8,3.6,5.9,1.6,9.1c-3,4.9-8.3,6.1-12.6,4.9c-0.9-0.5-1.5-1.2-1.8-1.7c-0.8,1.5-1.6,3-2.4,4.5c-1.3,2.5-1.1,2.8,1,4.2
			c-0.2,0.3-0.3,0.6-0.5,0.9c-2.3-1.2-4.7-2.3-7-3.5c0.2-0.3,0.3-0.6,0.5-0.9c2.1,0.7,2.4,0.6,3.5-1.6c2.6-5.1,5.3-10.2,8.1-15.2
			c1.1-2,1.1-2.2-0.7-3.5C719.2,65.6,719.3,65.3,719.5,65z M717.7,78.7c0.3,1.1,1.2,2.2,2.2,2.8c2.6,1.3,5.6-0.2,7.8-3.8
			c2.1-3.5,1.4-6.6-0.8-7.7c-1.1-0.6-2.8-0.5-4.1-0.2C721,72.6,719.3,75.6,717.7,78.7z"/>
		<path class="st2" d="M729.8,88.4c0.2-0.3,0.4-0.6,0.5-0.9c2,0.9,2.3,0.8,3.6-1.3c3.1-5.1,6.4-10.3,9.8-15.3
			c1.3-1.9,1.3-2.2-0.5-3.6c0.2-0.3,0.4-0.5,0.6-0.8c1.8,0.8,4,1.4,5.2,1.6c-1,1.5-2.1,3-3.1,4.4c-3.4,4.9-6.6,9.9-9.7,15
			c-1.3,2.1-1.2,2.4,0.5,3.7c-0.2,0.3-0.4,0.6-0.5,0.9C734.1,90.9,731.9,89.6,729.8,88.4z"/>
		<path class="st2" d="M751.5,98.4c-3.4,1.3-5.6,0.5-6.5,0c-3.3-2.2-3.4-6.7-1-10.3c1.4-2.1,3.4-3.7,5.5-4.3
			c2.2-0.7,4.3-0.5,5.8,0.5c2.5,1.7,2.6,5.2,0.8,7.7c-0.5,0.6-0.7,0.8-1.3,0.6c-0.6-0.3-4.3-2.4-7.8-4.5c-2.9,4.1-1.7,7.4,0.2,8.7
			c1.1,0.8,2.5,0.9,4.2,0.6C751.5,97.7,751.5,98,751.5,98.4z M753.8,85c-1.3-0.9-3.5-0.4-5.6,1.9c1.6,1,3.1,2.1,4.8,3.1
			c0.5,0.3,0.8,0.3,1.1-0.2C755.3,88.2,755.4,86,753.8,85z"/>
	</g>
</g>
<g>
	<g>
		<path class="st3" d="M888.7,184.1c1.4,1,3.4,1.9,5.3,2.7c-1.1,0.5-2.5,1.2-3.5,1.7c0.2,0,4.1,1.1,4.2,1.1c1.1,0.3,1.9,0.7,2.2,1.1
			c2.5,2.8,0.1,6.3-4.1,8.3c-6.5,3.1-13.2,2.3-17.5-0.2c-0.7-0.7-1-1.6-1-2.1c-1.9,1-3.8,2-5.7,3.1c-3.1,1.7-3.1,2.1-1.5,4
			c-0.4,0.2-0.8,0.4-1.2,0.6c-2-1.8-3.9-3.7-5.9-5.5c0.4-0.2,0.8-0.4,1.2-0.7c1.9,1.3,2.3,1.4,5.1-0.2c6.3-3.5,12.8-6.9,19.4-10.2
			c2.6-1.3,2.8-1.4,1.6-3.2C887.9,184.4,888.3,184.2,888.7,184.1z M877.4,195c-0.4,1.1-0.1,2.4,0.7,3.1c2.1,2.1,6.5,1.8,11.2-0.5
			c4.6-2.3,5.8-5.1,4.1-6.8c-0.8-0.9-2.8-1.4-4.3-1.7C885.2,191,881.3,193,877.4,195z"/>
		<path class="st3" d="M897.4,219.6c-1.3-1.1-3.1-2.1-4.8-3.1c0.7-0.3,2.1-1.1,3.1-1.6c-3-0.4-5.3-0.9-6.6-2.2
			c-1.5-1.6-1.2-4,3.3-6.2c2.7-1.3,5.4-2.6,8.2-3.9c2.3-1.1,2.4-1.4,2-2.1c-0.1-0.3-0.3-0.5-0.4-0.8c0.4-0.2,0.7-0.3,1.1-0.5
			c1.1,1.1,3,2.6,4,3.3c-1.4,0.5-3.5,1.5-6.3,2.8c-1.9,0.9-3.8,1.8-5.7,2.7c-3.7,1.8-3.6,3.5-2.6,4.6c0.8,0.9,2.3,1.5,4.4,1.7
			c3.2-1.6,6.4-3.1,9.7-4.6c2.3-1,2.3-1.5,1.8-2.4c-0.2-0.3-0.3-0.6-0.5-0.9c0.4-0.2,0.7-0.3,1.1-0.5c1.5,1.6,3.5,3.2,4.2,3.7
			c-4.7,2.1-9.3,4.2-13.9,6.5c-2,1-2.2,1.4-1.4,2.3c0.2,0.2,0.4,0.5,0.6,0.7C898.1,219.2,897.7,219.4,897.4,219.6z"/>
		<path class="st3" d="M904.1,229c-1.6-1.9-3.3-3.9-4.9-5.8c0.4-0.2,0.8-0.4,1.1-0.6c1.6,1.5,1.9,1.5,4.5,0.3
			c2.8-1.4,5.6-2.7,8.5-3.9c2.7-1.2,2.8-1.4,1.8-3c0.3-0.1,0.7-0.3,1-0.5c1.4,1.1,2.8,2.1,4.6,3c-1.4,0.6-3.2,1.4-4.5,2
			c2.9,0,6,0.1,7,1.4c0.7,1,0.2,1.9-0.8,2.4c-0.9,0.4-2.2,0.4-2.9,0.1c-0.5-0.1-0.6-0.4-0.4-0.7c0.3-0.7,0.5-1.2,0.1-1.6
			c-0.4-0.6-2.5-1-5-0.6c-2.6,1.2-5.1,2.3-7.6,3.6c-2.7,1.3-2.7,1.5-1.3,3.6C904.8,228.6,904.5,228.8,904.1,229z"/>
		<path class="st3" d="M925.2,226.7c1.2,1.1,2.9,2.2,4.6,3.1c-1,0.4-2.3,0.9-3.2,1.4c0.1,0,3.5,1.4,3.7,1.5c1,0.4,1.7,0.9,1.9,1.2
			c2.1,3-0.4,6.3-4.3,8c-6,2.6-11.9,1.2-15.5-1.8c-0.6-0.8-0.8-1.7-0.7-2.2c-1.8,0.8-3.5,1.7-5.2,2.6c-2.8,1.4-2.9,1.8-1.6,3.9
			c-0.3,0.2-0.7,0.4-1.1,0.6c-1.6-2-3.3-4-4.9-6c0.4-0.2,0.7-0.4,1.1-0.6c1.6,1.5,2,1.6,4.6,0.3c5.9-2.9,11.8-5.8,18-8.4
			c2.4-1.1,2.5-1.2,1.7-3C924.4,227.1,924.8,226.9,925.2,226.7z M914.4,236.7c-0.4,1-0.3,2.3,0.4,3.2c1.7,2.3,5.6,2.4,10,0.4
			c4.2-1.9,5.5-4.6,4.2-6.5c-0.7-0.9-2.4-1.7-3.7-2C921.5,233.4,917.9,235,914.4,236.7z"/>
		<path class="st3" d="M920.3,250c0.4-0.2,0.7-0.3,1.1-0.5c1.4,1.6,1.8,1.7,4.3,0.6c6.1-2.8,12.4-5.4,18.8-7.8
			c2.4-0.9,2.6-1.1,1.8-3c0.3-0.1,0.7-0.3,1.1-0.4c1.2,1.4,2.9,2.9,3.9,3.6c-1.9,0.7-3.8,1.4-5.7,2.1c-6.3,2.4-12.4,4.9-18.4,7.6
			c-2.5,1.1-2.6,1.4-1.6,3.2c-0.3,0.2-0.7,0.3-1.1,0.5C923.1,253.9,921.7,251.9,920.3,250z"/>
		<path class="st3" d="M936.4,267.7c-4-0.4-5.9-2-6.4-2.9c-2.2-3.3,0.2-7,4.6-8.9c2.6-1.1,5.4-1.4,7.8-1c2.5,0.4,4.5,1.6,5.3,3
			c1.4,2.4-0.4,5.3-3.4,6.6c-0.8,0.3-1.2,0.3-1.6,0c-0.5-0.5-3-3.9-5.2-7c-5.2,2.1-5.7,5.2-4.5,7.1c0.7,1.1,2,1.9,3.9,2.3
			C936.8,267.2,936.6,267.5,936.4,267.7z M945.9,257.9c-0.8-1.3-3.2-1.9-6.5-1c1,1.5,1.9,3.1,3,4.6c0.3,0.5,0.6,0.6,1.2,0.4
			C945.5,261.1,946.8,259.4,945.9,257.9z"/>
		<path class="st3" d="M946.7,276.6c-1.2-2.1-2.4-4.2-3.7-6.3c0.8-0.2,1.6-0.5,2.4-0.7c1.2,2.1,2.4,4.2,3.6,6.4
			C948.3,276.1,947.5,276.3,946.7,276.6z"/>
		<path class="st3" d="M945.8,290.4c-1.2-2.1-2.3-4.2-3.5-6.3c0.3-0.1,0.7-0.3,1-0.4c1.2,1.6,1.4,1.7,3.8,0.8c2.5-1,5-2,7.5-3
			c2.4-0.9,2.5-1.1,1.9-2.8c0.3-0.1,0.6-0.2,0.9-0.4c1,1.3,2.1,2.4,3.6,3.4c-1.2,0.4-2.8,1-4,1.5c2.4,0.3,5,0.7,5.7,2.1
			c0.5,1,0,2-0.9,2.3c-0.8,0.3-1.8,0.1-2.5-0.2c-0.4-0.2-0.4-0.4-0.3-0.8c0.3-0.6,0.5-1.1,0.3-1.6c-0.3-0.6-1.9-1.2-4.1-1.1
			c-2.3,0.9-4.5,1.8-6.8,2.7c-2.3,1-2.4,1.2-1.5,3.4C946.4,290.1,946.1,290.3,945.8,290.4z"/>
		<path class="st3" d="M956.9,305.4c-3.6-0.7-5.1-2.4-5.6-3.3c-1.7-3.4,0.7-6.9,4.7-8.5c2.4-1,5-1.1,7.1-0.5
			c2.2,0.6,3.9,1.8,4.6,3.3c1.1,2.5-0.7,5.3-3.5,6.4c-0.7,0.2-1.1,0.3-1.4-0.1c-0.4-0.5-2.4-4-4.1-7.3c-4.8,1.8-5.5,4.9-4.5,6.9
			c0.6,1.1,1.7,2,3.3,2.5C957.3,304.9,957.1,305.2,956.9,305.4z M966.1,296.2c-0.6-1.3-2.7-2-5.8-1.3c0.8,1.6,1.5,3.2,2.4,4.8
			c0.2,0.5,0.5,0.6,1,0.4C965.6,299.4,966.8,297.8,966.1,296.2z"/>
		<path class="st3" d="M962.7,323.9c-0.4-0.5-1.7-2.5-3.1-3.9c0.7-0.3,1.4-0.6,2.1-0.9c-0.6-0.4-1.4-0.9-1.9-1.3
			c-1.2-0.8-1.8-1.5-1.9-1.8c-1-2.2,0.3-6.4,5.1-8.2c4.8-1.9,9.9,0.4,11.4,4.4c0.2,0.4,0.5,1.4,0.4,2.1c1.7-0.6,3.4-1.1,5.1-1.7
			c2.2-0.7,2.2-0.9,1.7-3.1c0.3-0.1,0.6-0.2,0.9-0.3c0.8,1.4,2,3.3,2.8,4.2c-1.3,0.4-2.8,0.9-4.2,1.3c-5.5,1.8-10.9,3.7-16.2,5.8
			c-1.7,0.7-1.9,1-1.5,2c0.1,0.3,0.2,0.6,0.3,0.9C963.4,323.7,963.1,323.8,962.7,323.9z M972.1,315.2c0.9-1.1,1-2.5,0.5-3.6
			c-0.5-1.4-2.7-3.5-7.6-1.6c-4.1,1.6-5.3,4.6-4.6,6.4c0.4,1,1.5,1.9,2.4,2.3C966,317.5,969,316.4,972.1,315.2z"/>
	</g>
</g>
<g>
	<g>
		<path class="st4" d="M1002.8,539.6l0.5-7l1,0.1c0.1,1.9,0.2,2.1,2.5,2.3l7.3,0.5c2.3,0.2,2.4,0,2.8-1.7l0.9,0.1
			c0.2,1.5,0.5,2.9,1.1,4.4c-1.2-0.1-2.7-0.2-3.8-0.3c1.7,1.2,3.6,2.6,3.5,4.1c-0.1,1.1-0.9,1.7-1.8,1.7c-0.8,0-1.5-0.6-1.8-1.2
			c-0.2-0.3-0.1-0.6,0.1-0.8c0.6-0.4,0.9-0.8,1-1.3c0-0.6-1-1.8-2.7-2.6l-6.6-0.4c-2.3-0.2-2.5,0-2.9,2.3L1002.8,539.6z"/>
		<path class="st4" d="M1004.6,557.6c-2.7-2.1-3.1-4.3-3.1-5.3c0.2-3.7,3.9-5.8,7.9-5.5c2.4,0.2,4.5,1,6,2.4
			c1.6,1.4,2.3,3.1,2.2,4.7c-0.2,2.7-2.9,4.5-5.7,4.3c-0.7-0.1-1-0.2-1.1-0.7c-0.1-0.6-0.2-4.5-0.1-8.2c-4.7-0.4-6.8,2-6.9,4.1
			c-0.1,1.2,0.4,2.5,1.5,3.7L1004.6,557.6z M1016.4,553.2c0.1-1.4-1.3-2.9-4.1-3.5c-0.1,1.7-0.2,3.4-0.2,5.2c0,0.5,0.1,0.7,0.7,0.8
			C1014.5,555.8,1016.3,554.9,1016.4,553.2z"/>
		<path class="st4" d="M1001.2,576.6c-0.1-0.7-0.4-3-1-4.8c0.7,0,1.5,0.1,2.3,0.2c-0.3-0.6-0.8-1.4-1.1-2c-0.7-1.3-0.9-2.1-0.8-2.5
			c0.2-2.4,3.2-5.5,8.1-5.2c4.8,0.3,8.2,4.3,8,8.5c0,0.4-0.2,1.4-0.5,2l5.1,0.3c2.2,0.2,2.3-0.1,2.7-2.2l0.9,0.1
			c0.1,1.5,0.5,3.7,0.9,4.9c-1.3-0.1-2.8-0.2-4.3-0.3l-16.8-1.1c-1.8-0.1-2.1,0.1-2.2,1.2l-0.1,1L1001.2,576.6z M1013.3,572.7
			c1.3-0.6,1.9-1.9,2-3.1c0.1-1.5-0.8-4.1-5.9-4.5c-4.2-0.3-6.6,1.8-6.8,3.8c-0.1,1.1,0.5,2.3,1.1,3.1L1013.3,572.7z"/>
	</g>
</g>
<g>
	<g>
		<path class="st5" d="M945.5,736.4c1.1-2.1,2.1-4.2,3.2-6.3c0.3,0.1,0.6,0.3,0.9,0.4c-0.7,1.8-0.6,2.1,1.5,3.1
			c2.2,1,4.4,2.1,6.7,3.1c2.1,1,2.3,0.9,3.3-0.6c0.3,0.1,0.5,0.2,0.8,0.4c-0.4,1.5-0.6,2.9-0.5,4.5c-1.1-0.5-2.5-1.1-3.6-1.6
			c1.2,1.7,2.5,3.7,1.8,5.1c-0.5,1-1.6,1.3-2.4,0.9c-0.8-0.3-1.3-1.1-1.3-1.8c-0.1-0.4,0.1-0.6,0.4-0.7c0.7-0.2,1.2-0.4,1.4-0.9
			c0.3-0.6-0.2-2.1-1.6-3.4c-2-0.9-4.1-1.9-6.1-2.8c-2.1-1-2.3-1-3.6,1.1C946.1,736.7,945.8,736.5,945.5,736.4z"/>
		<path class="st5" d="M939.8,753.7c-1.7-3-1.2-5.2-0.7-6.1c1.8-3.3,6.1-3.7,9.8-2c2.2,1,4,2.7,4.8,4.5c1,1.9,1.1,3.8,0.3,5.2
			c-1.2,2.4-4.7,3.1-7.4,1.8c-0.7-0.3-0.9-0.6-0.8-1.1c0.2-0.6,1.8-4.3,3.3-7.6c-4.3-2.1-7.3-0.8-8.4,1.1c-0.6,1.1-0.6,2.4-0.1,4
			C940.5,753.6,940.1,753.7,939.8,753.7z M953.2,754.1c0.7-1.3-0.2-3.2-2.6-4.8c-0.8,1.5-1.6,3.1-2.4,4.8c-0.3,0.5-0.2,0.7,0.3,1
			C950.3,755.8,952.4,755.6,953.2,754.1z"/>
		<path class="st5" d="M927.9,769.6c0.2-0.6,1-2.8,1.3-4.8c0.7,0.4,1.5,0.7,2.2,1.1c-0.1-0.7-0.1-1.6-0.2-2.3
			c-0.1-1.5,0.1-2.3,0.3-2.6c1.3-2.2,5.5-3.7,10.2-1.4c4.6,2.2,6.4,7.2,4.3,10.9c-0.2,0.4-0.8,1.3-1.4,1.7c1.7,0.8,3.4,1.5,5.1,2.3
			c2.2,1,2.4,0.8,3.7-1.1c0.3,0.1,0.6,0.3,0.9,0.4c-0.5,1.5-1.1,3.6-1.2,4.8c-1.3-0.6-2.8-1.2-4.3-1.9c-5.6-2.5-11.1-5-16.5-7.7
			c-1.8-0.9-2.1-0.8-2.8,0.2c-0.2,0.3-0.4,0.5-0.6,0.8C928.5,769.9,928.2,769.7,927.9,769.6z M941.8,770.9c1.6-0.1,2.8-1,3.4-2.1
			c0.8-1.3,0.9-4.1-3.9-6.4c-4-1.9-7.3-1-8.4,0.7c-0.6,1-0.6,2.3-0.4,3.3C935.6,768,938.7,769.5,941.8,770.9z"/>
		<path class="st5" d="M927.6,782.4c1.3-2,2.6-4.1,3.9-6.2c0.7,0.4,1.3,0.8,2,1.2c-1.3,2.1-2.5,4.1-3.8,6.2
			C928.9,783.2,928.2,782.8,927.6,782.4z"/>
		<path class="st5" d="M924.6,802.1c0.7-1.5,0.5-2-1-3.6c-1.5-1.6-3.5-3.5-8.3-8.5c-4.3-4.6-6.1-6.2-7.6-7.6
			c-0.6-0.5-0.6-0.9-0.3-1.3c0.6-0.8,1.9-1.2,2.7-0.7c0.4,0.2,0.6,0.6,0.8,1.2c0.3,1.3,0.7,2.3,1.3,3.1c1,1.3,2,2.3,2.3,2.7
			c0.4,0.4,0.8,0.5,1.5,0.7c4.6,1,9.9,1.7,12.9,2.1c2.3,0.3,2.9,0.3,4.1-1.1c0.3,0.2,0.6,0.3,1,0.5c-1.1,1.8-2.3,3.6-3.5,5.4
			c-0.3-0.2-0.6-0.3-1-0.5c0.5-1.3,0.3-1.7-1.2-1.9c-3.5-0.5-6.9-1.1-10.3-1.7c1.9,2,5.1,5,7,6.6c1.1,1,1.7,1,3-0.4
			c0.3,0.2,0.6,0.3,1,0.5c-1.1,1.6-2.2,3.3-3.2,4.9C925.3,802.4,924.9,802.3,924.6,802.1z"/>
		<path class="st5" d="M904.5,808.1c-1.6-3.2-0.8-5.3-0.2-6.1c2.3-3.1,7.2-3.2,11.3-1.1c2.4,1.2,4.2,3,5,4.8
			c0.9,1.9,0.9,3.8-0.1,5.2c-1.6,2.3-5.6,2.7-8.5,1.2c-0.7-0.4-1-0.6-0.8-1.1c0.2-0.6,2.4-4.1,4.4-7.3c-4.7-2.5-8.2-1.4-9.5,0.4
			c-0.8,1.1-0.9,2.4-0.4,4C905.2,808.1,904.8,808.1,904.5,808.1z M919.5,809.6c0.8-1.2,0.1-3.2-2.5-5c-1,1.5-2.1,2.9-3.1,4.5
			c-0.3,0.5-0.3,0.7,0.3,1C916.1,811.1,918.5,811.1,919.5,809.6z"/>
		<path class="st5" d="M899,809.7c0.3,0.2,0.7,0.4,1,0.5c-1,1.8-1,2.1,1.3,3.3c5.7,3,11.6,6,17.5,8.8c2.3,1.1,2.6,1,4.1-0.5
			c0.3,0.2,0.7,0.3,1,0.5c-0.8,1.5-1.4,3.5-1.5,4.5c-1.8-0.8-3.6-1.7-5.3-2.5c-5.9-2.8-11.6-5.7-17.3-8.7c-2.4-1.3-2.7-1.2-4.2,0.3
			c-0.3-0.2-0.7-0.4-1-0.5C896.1,813.5,897.5,811.6,899,809.7z"/>
		<path class="st5" d="M892.3,818.2c0.3,0.2,0.7,0.4,1,0.5c-1.1,1.7-1.1,2,1.3,3.3c5.8,3.1,11.7,6.1,17.7,9c2.3,1.1,2.6,1.1,4.2-0.5
			c0.3,0.2,0.7,0.3,1,0.5c-0.8,1.5-1.5,3.4-1.6,4.5c-1.8-0.8-3.6-1.7-5.4-2.6c-5.9-2.9-11.8-5.9-17.5-9c-2.4-1.3-2.7-1.2-4.3,0.3
			c-0.3-0.2-0.7-0.4-1-0.6C889.2,821.9,890.8,820.1,892.3,818.2z"/>
		<path class="st5" d="M897,841.7c-2.6,3.2-8.3,3.7-13.1,1c-6.1-3.3-6.2-7.9-4.1-10.3c3-3.4,8.8-3.2,12.9-1
			C898.7,834.5,899,839.2,897,841.7z M895.9,840.7c1.3-1.6,0.2-4.1-4.1-6.4c-4.7-2.5-9.3-3-11-1c-1.3,1.5-0.8,3.8,4.3,6.6
			C889.4,842.3,894.1,842.9,895.9,840.7z"/>
		<path class="st5" d="M872.7,866.6c0.9-1.4,0.6-1.9-1-3.6c-2.3-2.3-6.5-6.5-10.5-10.4c0.2-0.2,0.5-0.5,0.7-0.7
			c5,1.4,9.8,2.6,14.7,3.8c-2.7-2.8-5.9-6.3-9.1-9.7c0.2-0.2,0.5-0.5,0.7-0.7c5.2,1.7,10.5,3.2,16,4.7c2.5,0.7,2.9,0.5,4.2-0.6
			c0.3,0.2,0.7,0.4,1,0.5c-1.5,1.8-3,3.5-4.6,5.2c-0.3-0.2-0.7-0.4-1-0.5c1-1.7,0.8-1.9-1.2-2.5c-3.5-1-7.2-2-10.5-3.1
			c2.9,3.1,6,6.3,9.4,9.6c-0.2,0.2-0.4,0.5-0.6,0.7c-4.9-1.2-10-2.5-15-3.8c1.8,1.9,4.8,4.7,7.2,6.8c1.7,1.4,2.1,1.3,4-0.2
			c0.3,0.2,0.7,0.4,1,0.6c-1.4,1.5-2.8,3.1-4.3,4.6C873.4,867,873,866.8,872.7,866.6z"/>
	</g>
</g>
<g>
	<g>
		<path class="st6" d="M732.2,959.1c1.5-0.9,1.7-1.3,1.5-3.5c-0.1-2.1-0.4-4.6-1-11c-0.6-5.9-1-8.1-1.3-10c-0.2-0.7,0.1-1,0.5-1.2
			c0.9-0.4,2-0.1,2.4,0.7c0.2,0.4,0.1,0.8-0.1,1.4c-0.5,1.2-0.8,2.3-0.8,3.2c0,1.6,0.2,2.9,0.2,3.4c0.1,0.5,0.2,0.8,0.7,1.3
			c2.9,3.1,6.4,6.2,8.5,8c1.5,1.4,2,1.7,3.8,1.1c0.2,0.3,0.3,0.6,0.5,0.8c-2,1-4,1.9-6,2.8c-0.2-0.3-0.3-0.6-0.4-0.8
			c1.2-0.8,1.2-1.2,0.2-2.2c-2.3-2.1-4.5-4.3-6.7-6.4c0.2,2.5,0.8,6.6,1.2,8.8c0.2,1.4,0.6,1.6,2.5,1.1c0.1,0.3,0.3,0.6,0.4,0.8
			c-1.8,0.8-3.7,1.6-5.5,2.4C732.4,959.7,732.3,959.4,732.2,959.1z"/>
		<path class="st6" d="M713.7,954.1c0.9-3.3,2.7-4.7,3.7-5c3.6-1.4,7.2,0.9,8.9,4.6c1,2.2,1.2,4.5,0.7,6.4c-0.6,2-1.9,3.5-3.5,4.2
			c-2.7,1.1-5.9-0.6-7-3.2c-0.2-0.7-0.3-1,0.2-1.3c0.6-0.4,4.4-2.1,7.9-3.7c-1.9-4.3-5.1-5.1-7.2-4.3c-1.2,0.5-2.1,1.5-2.8,3
			C714.2,954.4,713.9,954.3,713.7,954.1z M723.6,962.7c1.4-0.6,2.2-2.5,1.4-5.3c-1.7,0.7-3.4,1.4-5.2,2.2c-0.5,0.2-0.7,0.5-0.5,0.9
			C720.1,962.2,721.9,963.3,723.6,962.7z"/>
		<path class="st6" d="M708.7,952.7c0.1,0.3,0.2,0.6,0.4,0.9c-1.9,0.9-2.1,1.1-1.2,3.3c2.1,5.2,4.3,10.4,6.6,15.6
			c0.9,2,1.1,2.1,3.3,1.6c0.1,0.3,0.2,0.6,0.4,0.8c-1.7,0.8-3.4,2.1-4.3,2.8c-0.7-1.5-1.4-3.1-2-4.6c-2.2-5.1-4.3-10.3-6.4-15.5
			c-0.8-2.2-1.1-2.3-3.2-1.8c-0.1-0.3-0.2-0.6-0.3-0.9C704.2,954.2,706.5,953.5,708.7,952.7z"/>
		<path class="st6" d="M698.4,956.1c0.1,0.3,0.2,0.6,0.3,0.9c-1.9,0.8-2.1,1.1-1.3,3.3c2,5.3,4,10.6,6.1,15.8c0.8,2,1.1,2.2,3.3,1.7
			c0.1,0.3,0.2,0.6,0.4,0.8c-1.7,0.8-3.5,2-4.4,2.7c-0.6-1.5-1.3-3.1-1.9-4.7c-2.1-5.2-4-10.4-5.9-15.7c-0.8-2.2-1-2.3-3.2-1.9
			c-0.1-0.3-0.2-0.6-0.3-0.9C693.8,957.6,696.1,956.9,698.4,956.1z"/>
		<path class="st6" d="M685.3,976.5c-4.2,1.1-8.4-1.4-9.7-5.8c-1.7-5.5,1.5-9,4.6-9.8c4.4-1.1,8.3,1.8,9.6,5.6
			C691.7,972,688.4,975.7,685.3,976.5z M685.3,975.3c2-0.5,3.1-3,1.8-6.9c-1.5-4.3-4.2-6.9-6.9-6.2c-2,0.5-3.2,2.4-1.8,7.1
			C679.6,973.2,682.3,976,685.3,975.3z"/>
		<path class="st6" d="M649.7,982.3c1.7-0.5,1.9-1,2.2-3c0.3-2.8,0.8-7.9,1.1-12.7c0.3-0.1,0.7-0.1,1-0.2c2.2,3.5,4.5,6.8,6.8,10.1
			c0.4-3.4,0.9-7.5,1.2-11.5c0.3-0.1,0.7-0.1,1-0.2c2.3,3.8,4.7,7.6,7.3,11.4c1.2,1.7,1.5,1.8,3.3,1.7c0.1,0.3,0.2,0.6,0.3,0.9
			c-2.3,0.5-4.7,1-7.1,1.5c-0.1-0.3-0.2-0.6-0.3-0.9c2-0.8,2-1,1.1-2.4c-1.5-2.5-3.2-5.1-4.8-7.5c-0.4,3.8-0.8,7.6-1,11.6
			c-0.3,0.1-0.6,0.1-0.9,0.2c-2.3-3.3-4.7-6.8-7-10.3c-0.2,2.2-0.5,5.8-0.5,8.4c0,1.9,0.3,2,2.8,1.9c0.1,0.3,0.2,0.6,0.2,0.9
			c-2.2,0.4-4.3,0.7-6.5,1C649.9,983,649.8,982.6,649.7,982.3z"/>
	</g>
</g>
<g>
	<g>
		<path class="st7" d="M448.8,992.4c1.8,0.1,2.2-0.1,3.6-1.9c1.3-1.8,2.8-3.9,6.6-9.5c3.5-5.1,4.5-7.2,5.5-8.8
			c0.4-0.7,0.8-0.8,1.2-0.7c1,0.2,1.8,1.1,1.6,2c-0.1,0.5-0.4,0.7-1,1.1c-1.2,0.7-2.2,1.4-2.8,2.2c-1,1.3-1.8,2.4-2.1,2.9
			c-0.3,0.5-0.3,0.8-0.3,1.4c0.3,4.2,1.1,8.7,1.5,11.4c0.3,2,0.5,2.5,2.2,3c-0.1,0.3-0.2,0.6-0.2,0.9c-2.3-0.4-4.5-0.8-6.8-1.2
			c0.1-0.3,0.2-0.6,0.2-0.9c1.6,0,1.8-0.3,1.7-1.6c-0.4-3-0.7-6-1.1-9c-1.5,2.2-3.8,5.8-5.1,7.8c-0.7,1.2-0.6,1.7,1.2,2.3
			c-0.1,0.3-0.2,0.6-0.2,0.9c-2-0.4-4.1-0.8-6.1-1.2C448.7,993,448.7,992.7,448.8,992.4z"/>
		<path class="st7" d="M437,978.2c2.8-2.3,5.2-2.4,6.3-2.2c3.9,0.8,5.5,4.7,4.4,8.7c-0.6,2.3-2,4.3-3.8,5.5
			c-1.8,1.3-3.9,1.8-5.6,1.5c-2.9-0.6-4.3-3.7-3.5-6.4c0.2-0.7,0.4-1,1-1c0.7,0,5,0.6,8.9,1.3c1.3-4.6-0.8-7-3.1-7.5
			c-1.3-0.3-2.7,0-4.2,0.9C437.2,978.8,437.1,978.5,437,978.2z M439.5,990.6c1.5,0.3,3.4-0.8,4.6-3.5c-1.8-0.4-3.7-0.8-5.6-1.1
			c-0.6-0.1-0.8,0-1,0.5C437,988.3,437.7,990.2,439.5,990.6z"/>
		<path class="st7" d="M433.8,974.4c-0.1,0.3-0.2,0.6-0.3,1c-2.1-0.3-2.4-0.2-3.1,2.1c-1.5,5.4-3.2,10.8-4.8,16.3
			c-0.6,2.1-0.5,2.3,1.5,3.1c-0.1,0.3-0.2,0.6-0.3,0.9c-1.9-0.2-4.1-0.1-5.2,0c0.5-1.6,1-3.2,1.5-4.8c1.6-5.3,3.2-10.7,4.8-16
			c0.6-2.2,0.5-2.5-1.5-3.2c0.1-0.3,0.2-0.6,0.3-1C429.1,973.3,431.5,973.8,433.8,974.4z"/>
		<path class="st7" d="M423.1,971.9c-0.1,0.3-0.2,0.6-0.3,1c-2.1-0.3-2.4-0.2-3.1,2c-1.6,5.4-3.3,10.8-5,16.2
			c-0.7,2.1-0.6,2.3,1.4,3.1c-0.1,0.3-0.2,0.6-0.3,0.9c-1.8-0.2-4-0.2-5.2-0.1c0.5-1.6,1-3.2,1.6-4.8c1.7-5.3,3.4-10.6,5-15.9
			c0.7-2.2,0.5-2.5-1.5-3.2c0.1-0.3,0.2-0.6,0.3-1C418.4,970.7,420.8,971.3,423.1,971.9z"/>
		<path class="st7" d="M399.9,982.3c-4-1.1-5.8-5.1-4.4-9.5c1.8-5.4,6.4-6.9,9.5-6.1c4.3,1.2,5.8,5.6,4.6,9.4
			C407.9,981.6,403,983.1,399.9,982.3z M400.7,981.3c2,0.5,4.4-1,5.6-4.9c1.4-4.3,0.6-7.8-2-8.5c-1.9-0.5-4,0.5-5.6,5.1
			C397.5,976.9,397.9,980.5,400.7,981.3z"/>
		<path class="st7" d="M368.1,971.1c1.7,0.3,2.1,0,3.5-1.6c1.9-2.2,5-6.4,7.9-10.3c0.3,0.1,0.6,0.2,1,0.3c0,3.9,0,7.8,0,11.6
			c2.3-2.7,5-6,7.5-9.3c0.3,0.1,0.6,0.2,0.9,0.3c-0.2,4.3-0.4,8.6-0.6,13c-0.1,2,0.1,2.2,1.6,2.9c-0.1,0.3-0.2,0.6-0.3,0.9
			c-2.2-0.7-4.4-1.3-6.5-2c0.1-0.3,0.2-0.6,0.3-0.9c2,0.2,2.2,0.1,2.3-1.5c0.2-2.8,0.3-5.8,0.5-8.5c-2.4,3-4.9,6.1-7.5,9.4
			c-0.3-0.1-0.6-0.2-0.8-0.3c0.1-3.8,0.2-7.8,0.2-11.8c-1.4,1.8-3.6,4.7-5.1,6.9c-1,1.6-0.9,1.8,1.1,2.8c-0.1,0.3-0.2,0.6-0.3,0.9
			c-1.9-0.6-3.9-1.3-5.8-1.9C367.9,971.7,368,971.4,368.1,971.1z"/>
		<path class="st7" d="M360.5,960.5c2.3,0.8,4.7,1.6,7,2.4c-0.3,0.7-0.6,1.3-1,1.9c-2.4-0.8-4.7-1.6-7-2.4
			C359.9,961.8,360.2,961.1,360.5,960.5z"/>
		<path class="st7" d="M350.7,954.7c2.8,1,4.4,3.7,3.1,6.8c-1.5,3.7-5.3,4.3-7.7,3.4c-1-0.4-1.9-1-2.6-1.9c-1.4-0.5-3.3-1-4.2-1.1
			c0-0.1,0-0.2,0-0.4c0.4-0.5,1.3-1.2,1.9-1.3c0.5,0.2,1.4,0.7,1.8,0.9c-0.2-0.9-0.1-2.1,0.4-3.3
			C344.8,954.3,348.1,953.7,350.7,954.7z M352,955.5c1-0.3,1.5-0.9,1.6-1.3c0.2-0.6,0-1.4-1.4-1.9c-1.1-0.4-2.4-0.8-3.3-1.2
			c-1.9-0.7-4-2.3-2.7-5.5c1.4-3.4,6.2-5.2,10.1-3.7c3.3,1.2,4.3,4,3.6,6c-0.3,0.7-0.8,1.2-1.5,1.6c-0.9,0.5-2.5,1.1-3.4,1.5
			c0.9,0.7,1.4,1.8,1.5,2.6c0.1,0.6-0.1,1.2-0.2,1.5c-1.3,0-2.7,0.6-3.7,1.2C352.6,956,352.3,955.8,352,955.5z M346.8,964
			c1.4,0.5,3.1-0.4,4.2-3c1-2.6,0.6-4.8-1.1-5.4c-1.3-0.4-3,0.3-4.1,3C344.8,961.1,345.2,963.3,346.8,964z M352,949.6
			c1.5,0.5,2.2,0.6,2.9,0.3c1.1-0.5,2.1-1.2,2.5-2.2c0.7-1.8-0.5-3.8-2.7-4.6c-2.8-1-5,0-5.9,2c-0.5,1.1-0.3,2.2,0.3,2.9
			C349.7,948.7,350.7,949.1,352,949.6z"/>
		<path class="st7" d="M335.3,943.5c2.2,0.9,4.5,1.8,6.7,2.7c-0.1,0.3-0.2,0.6-0.4,0.9c-1.9-0.5-2.2-0.4-3.1,1.7
			c-1,2.2-1.9,4.5-2.9,6.7c-0.9,2.1-0.9,2.3,0.8,3.2c-0.1,0.3-0.2,0.5-0.4,0.8c-1.6-0.3-3.1-0.5-4.8-0.4c0.5-1.1,1.1-2.5,1.6-3.5
			c-1.8,1.3-3.8,2.5-5.3,1.9c-1.1-0.5-1.4-1.5-1-2.2c0.3-0.7,1.1-1.2,1.8-1.3c0.4-0.1,0.6,0.1,0.7,0.4c0.2,0.7,0.4,1.1,1,1.3
			c0.6,0.2,2.2-0.3,3.5-1.7c0.9-2,1.8-4,2.6-6.1c0.9-2.1,0.8-2.3-1.3-3.5C335,944.1,335.1,943.8,335.3,943.5z"/>
		<path class="st7" d="M317.2,939.1c3-1.7,5.2-1.4,6.2-1c3.5,1.5,4.2,5.6,2.6,9.3c-1,2.2-2.6,3.9-4.5,4.8c-1.9,1-3.9,1.1-5.5,0.5
			c-2.5-1.1-3.3-4.3-2.1-6.9c0.3-0.6,0.5-0.9,1.1-0.8c0.6,0.1,4.5,1.5,8,2.8c2-4.2,0.4-7-1.6-7.9c-1.2-0.5-2.5-0.5-4.1,0.2
			C317.3,939.7,317.2,939.4,317.2,939.1z M317.3,951.7c1.4,0.6,3.3-0.2,4.9-2.6c-1.6-0.7-3.3-1.4-5-2c-0.5-0.2-0.8-0.2-1,0.3
			C315.4,949,315.7,951,317.3,951.7z"/>
		<path class="st7" d="M302.8,932.5c3-1.7,5.2-1.3,6.1-0.9c3.4,1.6,4.1,5.7,2.3,9.4c-1,2.2-2.7,3.8-4.5,4.7c-1.9,0.9-3.9,1-5.4,0.3
			c-2.5-1.2-3.2-4.4-2-6.9c0.3-0.6,0.6-0.9,1.1-0.8c0.6,0.2,4.4,1.6,7.9,3c2.1-4.2,0.6-7-1.4-8c-1.2-0.5-2.5-0.5-4,0.1
			C302.9,933.1,302.8,932.8,302.8,932.5z M302.6,945.1c1.3,0.6,3.3-0.2,4.9-2.5c-1.6-0.7-3.2-1.5-4.9-2.2c-0.5-0.2-0.8-0.2-1,0.3
			C300.8,942.4,301,944.4,302.6,945.1z"/>
		<path class="st7" d="M292.2,924.1c-0.1,0.3-0.3,0.6-0.4,0.9c-1.7-0.6-2-0.5-3.1,1.6c-0.9,1.7-1.8,3.4-2.7,5.1
			c-1.1,2.2-1.2,4,0.6,4.9c1.1,0.6,2.6,0.4,4-0.1c1.2-2.4,2.5-4.9,3.7-7.3c1.1-2.2,1-2.3-0.6-3.3c0.1-0.3,0.3-0.6,0.4-0.9
			c2,1,4,2,6,2.9c-0.1,0.3-0.3,0.6-0.4,0.9c-2-0.7-2.2-0.6-3.2,1.5c-1.1,2.2-2.2,4.3-3.2,6.5c-1,2-0.9,2.2,0.5,3.2
			c-0.1,0.3-0.3,0.5-0.4,0.8c-1.5-0.4-3.1-0.7-4.6-0.7c0.4-0.7,0.9-1.7,1.3-2.5c-0.8,0.2-1.6,0.3-2.7,0.5c-1.1,0.2-2,0.2-2.8-0.2
			c-2.2-1.1-2.7-3.7-1.1-6.7c1-2,2.1-3.9,3.1-5.9c1.1-2.1,1-2.3-0.5-3.3c0.1-0.3,0.3-0.6,0.5-0.9
			C288.5,922.2,290.3,923.1,292.2,924.1z"/>
	</g>
</g>
<g>
	<g>
		<path class="st8" d="M163,823.8c1.9,2.3,2,5.5-0.4,7.8c-2.9,2.8-6.4,1.7-8-0.2c-0.7-0.8-1.1-1.9-1.3-3c-0.9-1.2-2.4-2.5-3.1-3
			c0-0.1,0.1-0.2,0.1-0.4c0.5-0.2,1.6-0.5,2.1-0.4c0.3,0.4,0.9,1.3,1.1,1.7c0.3-1,0.9-2.1,1.8-3C158.1,820.7,161.3,821.8,163,823.8z
			 M155.5,830.9c0.9,1.1,2.8,1,4.9-0.9c2-2,2.7-4.2,1.6-5.6c-0.9-1-2.7-1.1-4.8,0.9C155.1,827.1,154.4,829.5,155.5,830.9z
			 M163.7,825.3c1,0.1,1.7-0.1,2-0.4c0.5-0.4,0.7-1.3-0.2-2.4c-0.7-0.9-1.6-1.9-2.3-2.7c-1.3-1.6-2.3-4.1,0.4-6.4
			c2.8-2.4,7.9-1.5,10.4,1.7c2.2,2.7,1.6,5.6,0.1,7c-0.6,0.5-1.3,0.7-2,0.7c-1,0-2.6-0.1-3.6-0.3c0.5,1.1,0.4,2.2,0.1,3.1
			c-0.2,0.6-0.6,1.1-0.9,1.3c-1.1-0.6-2.6-0.7-3.7-0.5C163.9,826,163.8,825.6,163.7,825.3z M166.4,819.8c1,1.2,1.6,1.6,2.3,1.7
			c1.2,0.1,2.4-0.1,3.1-0.8c1.5-1.3,1.4-3.5-0.1-5.4c-1.8-2.3-4.2-2.5-5.9-1.1c-0.9,0.8-1.3,1.8-1.1,2.8
			C165,817.9,165.6,818.8,166.4,819.8z"/>
		<path class="st8" d="M155.3,805.9c1.4,2,2.9,4,4.3,5.9c-0.3,0.2-0.5,0.4-0.8,0.6c-1.4-1.5-1.6-1.5-3.4,0c-1.9,1.6-3.8,3.3-5.6,4.9
			c-1.8,1.6-1.8,1.8-0.8,3.5c-0.2,0.2-0.4,0.4-0.7,0.6c-1.2-1.1-2.4-2-3.9-2.7c0.9-0.8,2.1-1.9,3-2.7c-2.1,0.3-4.4,0.6-5.4-0.8
			c-0.7-1-0.5-2.1,0.2-2.7c0.6-0.6,1.5-0.7,2.1-0.4c0.4,0.1,0.5,0.4,0.4,0.7c-0.1,0.8-0.2,1.3,0.2,1.8c0.4,0.6,2,0.8,3.8,0.1
			c1.7-1.5,3.4-3,5.1-4.4c1.8-1.5,1.9-1.8,0.6-3.9C154.8,806.3,155.1,806.1,155.3,805.9z"/>
		<path class="st8" d="M142.4,791.9c3.4,0,5.1,1.6,5.7,2.5c2.1,3.3,0.6,7.5-2.6,10.2c-1.9,1.6-4.1,2.4-6.1,2.3
			c-2.1,0-3.8-0.9-4.8-2.4c-1.6-2.5-0.7-6.1,1.6-8c0.6-0.4,0.9-0.6,1.3-0.2c0.5,0.5,3,3.9,5.3,7c3.8-3,3.9-6.5,2.6-8.5
			c-0.7-1.1-1.9-1.8-3.5-2.1C142.2,792.6,142.3,792.3,142.4,791.9z M136.2,804.4c0.9,1.3,2.9,1.5,5.4,0c-1-1.5-2.1-3.1-3.2-4.7
			c-0.3-0.5-0.6-0.6-1-0.2C135.9,800.6,135.2,802.8,136.2,804.4z"/>
		<path class="st8" d="M134,777.3c3.4,0.2,5,1.9,5.6,2.8c2,3.5,0.3,7.8-3,10.4c-2,1.5-4.2,2.3-6.2,2.1c-2.1-0.1-3.8-1.1-4.7-2.7
			c-1.5-2.6-0.4-6.3,2-8.1c0.6-0.4,0.9-0.5,1.3-0.1c0.4,0.5,2.8,4.1,5,7.5c3.9-3,4.2-6.5,3.1-8.6c-0.7-1.2-1.8-2-3.4-2.3
			C133.7,777.9,133.9,777.6,134,777.3z M127.2,789.7c0.8,1.4,2.8,1.7,5.4,0.2c-1-1.6-1.9-3.3-3-5c-0.3-0.5-0.6-0.6-1-0.3
			C127,785.9,126.2,788.1,127.2,789.7z"/>
		<path class="st8" d="M130.1,762.5c-0.3,0.2-0.6,0.4-0.9,0.6c-1-1.7-1.3-1.7-3.4-0.3c-1.7,1.2-3.4,2.3-5.1,3.5
			c-2.1,1.5-3.2,3.4-2.2,5.5c0.6,1.3,2,2,3.3,2.3c2.4-1.7,4.7-3.4,7.1-5.1c2.1-1.5,2.1-1.7,1.4-3.6c0.3-0.2,0.6-0.4,0.9-0.6
			c1.1,2.2,2.1,4.4,3.3,6.6c-0.3,0.2-0.6,0.4-0.9,0.6c-1.2-1.8-1.4-2-3.4-0.5c-2.1,1.5-4.1,3-6.2,4.5c-1.9,1.5-1.9,1.8-1.3,3.6
			c-0.3,0.2-0.5,0.4-0.8,0.6c-1-1.3-2.2-2.5-3.4-3.4c0.7-0.5,1.6-1.2,2.4-1.8c-0.7-0.3-1.5-0.7-2.4-1.1c-1-0.5-1.8-1-2.2-1.9
			c-1.2-2.5-0.2-5.5,2.8-7.6c1.9-1.4,3.9-2.7,5.9-4c2.1-1.4,2.1-1.7,1.5-3.6c0.3-0.2,0.6-0.4,0.9-0.6
			C128.1,758.2,129.1,760.4,130.1,762.5z"/>
	</g>
</g>
<g>
	<g>
		<path class="st9" d="M62.6,603.2c0.4,3-1.2,5.7-4.5,6.2c-3.9,0.6-6.3-2.5-6.6-5c-0.2-1.1,0-2.2,0.5-3.2c-0.2-1.5-0.7-3.4-1.1-4.3
			c0.1-0.1,0.2-0.2,0.3-0.2c0.6,0.1,1.6,0.5,2,1c0.1,0.5,0.1,1.6,0.1,2c0.7-0.6,1.8-1.2,3-1.3C60.1,597.8,62.2,600.4,62.6,603.2z
			 M52.6,604.4c0.2,1.5,1.8,2.6,4.6,2.2s4.5-1.9,4.2-3.7c-0.3-1.4-1.7-2.5-4.5-2.1C54.2,601.2,52.4,602.6,52.6,604.4z M62.4,604.7
			c0.8,0.7,1.5,0.9,1.9,0.8c0.6-0.1,1.2-0.7,1-2.1c-0.2-1.2-0.4-2.5-0.5-3.5c-0.3-2,0.2-4.7,3.6-5.1c3.6-0.4,7.5,3,8,7
			c0.5,3.5-1.5,5.7-3.5,6c-0.8,0.1-1.5-0.1-2.1-0.5c-0.8-0.5-2.1-1.6-2.9-2.2c-0.2,1.2-0.9,2.1-1.5,2.6c-0.5,0.4-1.1,0.5-1.4,0.6
			c-0.7-1.1-1.8-2.1-2.8-2.6C62.3,605.5,62.3,605.1,62.4,604.7z M67.6,601.8c0.2,1.5,0.5,2.2,1.1,2.7c0.9,0.8,2.1,1.2,3.1,1.1
			c1.9-0.3,3.1-2.2,2.8-4.6c-0.4-2.9-2.3-4.4-4.5-4.1c-1.2,0.1-2.1,0.8-2.4,1.7C67.4,599.3,67.4,600.4,67.6,601.8z"/>
		<path class="st9" d="M65.2,584.2c0.2,2.4,0.4,4.8,0.7,7.2c-0.3,0-0.6,0.1-1,0.1c-0.4-2-0.6-2.1-2.9-1.9c-2.4,0.2-4.8,0.5-7.2,0.7
			c-2.3,0.2-2.4,0.3-2.4,2.3c-0.3,0-0.6,0.1-0.9,0.1c-0.4-1.6-1-3-1.9-4.5c1.2-0.1,2.7-0.2,3.8-0.3c-1.9-1-4-2.2-4.1-3.8
			c-0.1-1.2,0.7-2,1.5-2c0.8-0.1,1.6,0.4,2,1c0.2,0.3,0.2,0.6,0,0.8c-0.5,0.5-0.8,0.9-0.8,1.5c0.1,0.7,1.2,1.8,3.1,2.3
			c2.2-0.2,4.4-0.4,6.6-0.6c2.3-0.2,2.5-0.4,2.5-2.8C64.6,584.2,64.9,584.2,65.2,584.2z"/>
		<path class="st9" d="M61.1,566c2.9,1.9,3.6,4.1,3.6,5.1c0.2,3.8-3.1,6.4-7.1,6.6c-2.4,0.2-4.6-0.5-6.2-1.7c-1.7-1.3-2.8-3-2.8-4.7
			c-0.2-2.8,2.4-5.1,5.2-5.2c0.7,0,1,0.1,1.2,0.6c0.2,0.6,0.7,4.7,1,8.5c4.7-0.2,6.4-2.9,6.3-5.1c-0.1-1.3-0.7-2.5-1.9-3.6
			C60.6,566.3,60.8,566.2,61.1,566z M49.9,572c0.1,1.5,1.7,2.9,4.5,3.2c-0.1-1.8-0.2-3.6-0.4-5.5c0-0.6-0.2-0.8-0.7-0.7
			C51.4,568.9,49.8,570.1,49.9,572z"/>
		<path class="st9" d="M60.8,550c2.8,2,3.4,4.2,3.4,5.2c0.1,3.8-3.4,6.2-7.4,6.3c-2.4,0.1-4.6-0.7-6.2-2c-1.7-1.3-2.6-3.1-2.6-4.8
			c0-2.8,2.6-5,5.4-4.9c0.7,0,1,0.1,1.2,0.7c0.1,0.6,0.4,4.7,0.7,8.5c4.7,0,6.6-2.6,6.6-4.8c0-1.3-0.6-2.5-1.8-3.7
			C60.3,550.3,60.5,550.1,60.8,550z M49.3,555.5c0,1.5,1.6,3,4.4,3.3c0-1.8-0.1-3.6-0.2-5.5c0-0.6-0.2-0.8-0.7-0.8
			C51,552.5,49.3,553.7,49.3,555.5z"/>
		<path class="st9" d="M64,536.7c-0.3,0-0.6,0-1,0c-0.1-1.8-0.4-2-2.8-2.1c-1.9-0.1-3.9-0.2-5.8-0.3c-2.4-0.1-4.1,0.6-4.2,2.7
			c-0.1,1.3,0.8,2.6,1.7,3.7c2.7,0.1,5.5,0.2,8.2,0.2c2.4,0.1,2.5-0.1,2.8-2c0.3,0,0.6,0,1,0c-0.1,2.2-0.1,4.5-0.1,6.8
			c-0.3,0-0.6,0-1,0c-0.2-2.1-0.4-2.3-2.7-2.3c-2.4,0-4.8-0.1-7.2-0.2c-2.3-0.1-2.4,0.2-2.7,1.9c-0.3,0-0.6,0-0.9,0
			c-0.3-1.6-0.7-3.2-1.3-4.6c0.8,0,1.9,0.1,2.8,0.1c-0.5-0.7-1-1.4-1.6-2.3c-0.6-0.9-1-1.8-0.9-2.7c0.1-2.6,2.2-4.1,5.6-3.9
			c2.2,0.1,4.4,0.2,6.6,0.3c2.4,0.1,2.5-0.1,2.8-1.9c0.3,0,0.6,0,1,0.1C64.2,532.4,64.1,534.5,64,536.7z"/>
		<path class="st9" d="M58.3,517.8c-0.2,2.4-0.4,4.8-0.6,7.3c-0.7-0.1-1.4-0.2-2.1-0.4c0.2-2.4,0.4-4.9,0.6-7.3
			C56.9,517.5,57.6,517.6,58.3,517.8z"/>
		<path class="st9" d="M51,505c-0.2-0.6-0.2-1.1-0.2-1.5c0.4-3.5,4-5.9,8.2-5.3c4.7,0.7,8.2,4.8,7.7,8.8c-0.1,1.3-0.7,3-1.8,4.6
			c-0.9-0.1-1.9-0.2-2.8-0.3c-5.6-0.6-11.2-1.2-16.8-1.8c-2.2-0.2-2.4-0.2-2.8,1.9c-0.3,0-0.6-0.1-0.9-0.1c-0.1-1.6-0.4-3.7-0.7-4.9
			c1.4,0.2,2.8,0.3,4.1,0.5c2.2,0.3,4.5,0.5,6.8,0.8C51.6,506.9,51.3,505.9,51,505z M62,508.9c0.6,0.1,0.9,0.1,1.2,0
			c0.9-0.3,2.1-1.4,2.2-2.9c0.3-2.7-2.1-4.3-6-4.9c-3.9-0.5-6.6,1.4-6.9,4c-0.1,0.9,0.1,2,0.4,2.7C56,508.2,59,508.6,62,508.9z"/>
		<path class="st9" d="M67.8,495.4c-0.3,0-0.6-0.1-1-0.1c0.1-2-0.1-2.3-2.3-2.6c-5.5-0.9-11-1.7-16.6-2.6c-2.1-0.3-2.3-0.2-2.9,1.8
			c-0.3,0-0.6-0.1-0.9-0.1c0.1-1.8-0.2-3.9-0.4-5c1.6,0.3,3.3,0.5,4.9,0.8c5.4,0.9,10.9,1.8,16.3,2.7c2.3,0.4,2.5,0.2,3-1.8
			c0.3,0,0.6,0.1,1,0.2C68.5,490.9,68.2,493.1,67.8,495.4z"/>
		<path class="st9" d="M71.7,469.8c-0.1,1.5,0,3.2,0.2,4.9c-0.6-0.1-1.8-0.4-2.6-0.5c1.2,2,2,3.5,1.7,5.2c-0.4,2-2.1,3.5-5.9,2.9
			c-2.2-0.4-4.5-0.8-6.7-1.2c-1.9-0.4-2.1-0.1-2.4,0.6c-0.1,0.3-0.2,0.6-0.3,0.9c-0.3,0-0.6-0.1-0.9-0.2c0.2-1.4,0.2-3.5,0.2-4.7
			c1.1,0.3,2.7,0.6,5,1.1c1.6,0.3,3.1,0.6,4.7,0.9c3,0.6,4.1-0.7,4.4-2c0.2-1.1-0.1-2.4-1-3.6c-2.7-0.5-5.3-1.1-8-1.7
			c-1.9-0.4-2.2-0.1-2.6,1c-0.1,0.3-0.2,0.6-0.3,1c-0.3-0.1-0.6-0.1-0.9-0.2c0.3-2,0.4-4.3,0.4-5.1c3.8,0.8,7.6,1.7,11.5,2.5
			c1.7,0.4,2,0.2,2.3-1c0.1-0.3,0.1-0.6,0.2-0.9C71,469.6,71.4,469.7,71.7,469.8z"/>
		<path class="st9" d="M73.1,454.3c2.2,2.6,2.3,4.9,2,5.9c-0.9,3.7-4.8,5.1-8.7,4.2c-2.3-0.5-4.3-1.8-5.5-3.4
			c-1.3-1.7-1.8-3.6-1.4-5.3c0.7-2.7,3.8-4.1,6.5-3.4c0.7,0.2,0.9,0.4,1,0.9c0,0.6-0.7,4.7-1.5,8.4c4.5,1.2,7-0.9,7.5-3
			c0.3-1.2,0-2.5-0.8-4C72.5,454.5,72.8,454.4,73.1,454.3z M60.7,456.8c-0.4,1.4,0.8,3.2,3.4,4.3c0.4-1.7,0.8-3.5,1.2-5.3
			c0.1-0.6,0-0.8-0.5-0.9C63,454.4,61.1,455,60.7,456.8z"/>
	</g>
</g>
</svg>
