<?xml version="1.0" encoding="utf-8"?>
<!-- Generator: Adobe Illustrator 27.8.1, SVG Export Plug-In . SVG Version: 6.00 Build 0)  -->
<svg version="1.1" id="Layer_1" xmlns="http://www.w3.org/2000/svg" xmlns:xlink="http://www.w3.org/1999/xlink" x="0px" y="0px"
	 viewBox="0 0 1920 1080" style="enable-background:new 0 0 1920 1080;" xml:space="preserve">
<style type="text/css">
	.st0{fill:#21ADD8;}
	.st1{fill:#4C6EDB;}
	.st2{fill:#6E40AA;}
	.st3{fill:#BD3DAF;}
	.st4{fill:#D43E6B;}
	.st5{fill:#FF7847;}
	.st6{fill:#E2B72E;}
	.st7{fill:#AFF05B;}
	.st8{fill:#53F667;}
	.st9{fill:#1DDFA3;}
</style>
<rect x="1" y="0" width="1921" height="1080"/>
<g>
	<g>
		<path class="st0" d="M193.22,272.67c0.08-0.77,0.26-1.38,0.47-1.81c1.9-3.87,6.34-4.87,9.91-2.28c4.04,2.94,5.6,9.22,3.5,13.82
			c-0.69,1.52-1.88,3.31-3.54,4.79c-0.82-0.51-1.67-1.04-2.52-1.58c-5.06-3.22-10.06-6.65-14.99-10.3c-1.9-1.41-2.14-1.46-3.38,0.85
			c-0.27-0.2-0.53-0.4-0.8-0.6c0.61-1.92,1.24-4.6,1.51-6.28c1.17,0.92,2.39,1.86,3.6,2.77c1.96,1.49,3.94,2.94,5.93,4.35
			C193,275.15,193.1,273.91,193.22,272.67z M201.89,282.5c0.5,0.32,0.8,0.47,1.17,0.53c0.97,0.07,2.5-0.75,3.28-2.44
			c1.4-3.03-0.14-5.98-3.57-8.39c-3.45-2.44-6.71-1.53-8.15,1.48c-0.5,1.05-0.79,2.45-0.8,3.36
			C196.49,278.93,199.18,280.75,201.89,282.5z"/>
		<path class="st0" d="M213.13,269.17c-0.28-0.19-0.56-0.38-0.84-0.58c0.97-2.26,0.98-2.61-0.99-4.02c-4.74-3.4-9.41-7.02-14-10.84
			c-1.75-1.46-2.02-1.46-3.53,0.57c-0.25-0.21-0.5-0.42-0.75-0.63c0.91-2.02,1.73-4.54,2.06-5.92c1.32,1.17,2.68,2.34,4.02,3.47
			c4.48,3.79,9.04,7.37,13.68,10.75c1.95,1.42,2.2,1.3,3.61-0.67c0.27,0.2,0.55,0.39,0.82,0.59
			C215.82,264.27,214.45,266.7,213.13,269.17z"/>
		<path class="st0" d="M228.95,242.69c-0.84,1.54-1.62,3.41-2.26,5.26c-0.45-0.35-1.46-1.14-2.16-1.7c0.12,2.61,0.14,4.63-0.98,6.31
			c-1.35,2.03-3.68,3-6.81,0.6c-1.85-1.43-3.69-2.9-5.52-4.4c-1.52-1.26-1.86-1.15-2.52-0.46c-0.24,0.26-0.48,0.52-0.72,0.79
			c-0.24-0.2-0.49-0.41-0.73-0.61c0.83-1.44,1.95-3.79,2.51-5.01c0.82,0.86,2.15,2.01,4.01,3.54c1.27,1.05,2.55,2.09,3.84,3.1
			c2.5,1.97,4.15,1.07,5.07-0.29c0.76-1.13,1.08-2.59,0.9-4.32c-2.17-1.74-4.31-3.54-6.44-5.38c-1.47-1.28-1.93-1.1-2.81-0.17
			c-0.27,0.3-0.54,0.59-0.81,0.89c-0.24-0.21-0.48-0.42-0.71-0.62c1.31-2.05,2.58-4.44,3-5.23c3,2.73,6.04,5.37,9.13,7.9
			c1.38,1.13,1.75,1.04,2.62-0.02c0.21-0.26,0.42-0.53,0.63-0.79C228.44,242.27,228.69,242.48,228.95,242.69z"/>
		<path class="st0" d="M238.35,227.7c0.59,3.55-0.53,5.79-1.26,6.66c-2.74,3.29-7.08,3.17-10.18,0.46c-1.82-1.6-2.95-3.81-3.15-6.06
			c-0.25-2.35,0.39-4.56,1.64-6c2.1-2.41,5.6-2.25,7.63-0.28c0.48,0.52,0.64,0.82,0.36,1.34c-0.38,0.62-3.2,4.26-5.82,7.71
			c3.49,3.27,6.82,2.21,8.44,0.32c0.94-1.1,1.37-2.5,1.35-4.28C237.7,227.62,238.03,227.66,238.35,227.7z M225.81,224.39
			c-1.1,1.27-1.05,3.63,0.76,5.98c1.29-1.58,2.6-3.13,3.92-4.8c0.43-0.49,0.44-0.77,0.06-1.14
			C229.21,223.1,227.15,222.84,225.81,224.39z"/>
	</g>
</g>
<g>
	<g>
		<path class="st1" d="M372.84,93.54c0.43-0.53,0.86-0.89,1.24-1.09c3.45-1.85,7.93-0.26,9.89,3.72c2.21,4.52,0.44,10.34-3.63,12.55
			c-1.34,0.73-3.24,1.36-5.39,1.46c-0.44-0.86-0.91-1.76-1.37-2.65c-2.76-5.33-5.56-10.66-8.39-15.98c-1.09-2.05-1.3-2.2-3.45-1.22
			c-0.15-0.29-0.31-0.57-0.46-0.86c1.4-1.05,3.14-2.65,4.11-3.73c0.69,1.29,1.39,2.62,2.09,3.95c1.13,2.15,2.26,4.29,3.38,6.44
			C371.51,95.26,372.17,94.4,372.84,93.54z M375.83,105.75c0.27,0.53,0.46,0.81,0.75,1.08c0.8,0.62,2.5,0.92,4,0.1
			c2.68-1.46,2.83-4.65,0.95-8.42c-1.89-3.81-5.25-4.87-7.91-3.43c-0.93,0.5-1.82,1.38-2.25,2.04
			C372.87,99.99,374.36,102.87,375.83,105.75z"/>
		<path class="st1" d="M392.03,102.01c-0.15-0.31-0.3-0.63-0.45-0.94c1.94-1.24,2.13-1.54,1.08-3.75
			c-2.55-5.36-5.13-10.71-7.75-16.06c-1-2.04-1.27-2.17-3.53-1.37c-0.14-0.29-0.29-0.58-0.43-0.87c1.69-1.1,3.5-2.66,4.38-3.59
			c0.77,1.58,1.55,3.19,2.32,4.76c2.56,5.28,5.08,10.56,7.56,15.85c1.04,2.22,1.31,2.29,3.5,1.46c0.14,0.31,0.29,0.63,0.44,0.94
			C396.75,99.62,394.38,100.8,392.03,102.01z"/>
		<path class="st1" d="M418.84,88.4c-1.5,0.93-3.1,2.16-4.56,3.42c-0.23-0.54-0.76-1.76-1.13-2.61c-1.13,2.32-2.1,4.06-3.9,4.9
			c-2.19,1.01-4.69,0.52-6.36-3.15c-0.99-2.18-1.99-4.36-2.99-6.54c-0.84-1.82-1.2-1.9-2.11-1.67c-0.34,0.09-0.67,0.18-1.01,0.27
			c-0.14-0.29-0.27-0.58-0.41-0.88c1.4-0.75,3.45-2.11,4.5-2.84c0.39,1.13,1.13,2.75,2.14,4.98c0.69,1.53,1.39,3.06,2.07,4.59
			c1.34,2.97,3.22,3.11,4.7,2.44c1.22-0.56,2.2-1.65,2.86-3.24c-1.14-2.63-2.29-5.26-3.45-7.89c-0.81-1.83-1.32-1.89-2.54-1.54
			c-0.38,0.12-0.76,0.23-1.14,0.35c-0.13-0.29-0.26-0.59-0.39-0.88c2.11-1.07,4.32-2.49,5.05-2.97c1.66,3.79,3.31,7.57,4.93,11.36
			c0.73,1.7,1.09,1.81,2.39,1.33c0.32-0.12,0.63-0.25,0.95-0.37C418.57,87.77,418.71,88.09,418.84,88.4z"/>
		<path class="st1" d="M434.59,79.45c-1.12,3.59-3.25,5.12-4.33,5.55c-4.11,1.67-7.98-0.67-9.62-4.58c-0.97-2.31-1.06-4.8-0.28-6.88
			c0.77-2.19,2.31-3.85,4.11-4.57c3.03-1.21,6.37,0.47,7.45,3.2c0.24,0.7,0.25,1.04-0.24,1.4c-0.64,0.4-4.93,2.44-8.93,4.25
			c1.79,4.6,5.32,5.33,7.72,4.36c1.39-0.56,2.45-1.65,3.27-3.31C434.02,79.07,434.3,79.26,434.59,79.45z M424.17,70.6
			c-1.59,0.64-2.53,2.74-1.86,5.69c1.91-0.79,3.84-1.57,5.83-2.48c0.62-0.25,0.76-0.5,0.55-1.01C428,70.98,426.11,69.82,424.17,70.6
			z"/>
		<path class="st1" d="M446.51,70.67c-2.69,0.96-5.36,1.93-8.02,2.93c-0.19-0.73-0.37-1.45-0.56-2.18c2.67-1,5.35-1.98,8.05-2.93
			C446.15,69.22,446.33,69.94,446.51,70.67z"/>
		<path class="st1" d="M449.18,61.14c1.59-0.81,3.24-2.02,4.67-3.22c0.3,0.83,0.69,1.93,0.98,2.76c0.08-0.11,2.4-2.63,2.52-2.74
			c0.71-0.73,1.39-1.21,1.86-1.36c3.99-1.26,7.52,1.19,8.65,4.61c1.74,5.25-1.47,9.86-5.78,12.2c-1.07,0.31-2.12,0.31-2.71,0.2
			c0.54,1.55,1.07,3.1,1.6,4.65c0.87,2.55,1.21,2.66,3.97,2.02c0.11,0.32,0.22,0.64,0.32,0.96c-2.74,0.9-5.47,1.82-8.19,2.77
			c-0.11-0.32-0.22-0.64-0.34-0.96c2.16-1.02,2.38-1.28,1.58-3.58c-1.81-5.21-3.66-10.43-5.53-15.65c-0.74-2.06-0.87-2.18-3.26-1.71
			C449.41,61.75,449.3,61.44,449.18,61.14z M458.53,71.17c1.09,0.52,2.65,0.62,3.81,0.24c3.07-0.99,4.23-4.13,2.93-7.99
			c-1.25-3.73-4.26-5.13-6.82-4.31c-1.26,0.4-2.49,1.69-3.21,2.69C456.35,64.93,457.45,68.05,458.53,71.17z"/>
		<path class="st1" d="M493.38,62.98c-1.68,0.69-3.52,1.65-5.21,2.66c-0.16-0.55-0.54-1.8-0.79-2.67c-1.5,2.08-2.75,3.62-4.73,4.18
			c-2.41,0.67-4.93-0.14-6.13-3.91c-0.71-2.24-1.43-4.47-2.15-6.71c-0.6-1.87-0.96-1.99-1.94-1.9c-0.36,0.04-0.72,0.08-1.08,0.12
			c-0.1-0.3-0.2-0.6-0.3-0.9c1.55-0.53,3.87-1.56,5.06-2.12c0.24,1.14,0.77,2.8,1.5,5.09c0.5,1.57,0.99,3.14,1.48,4.71
			c0.96,3.05,2.88,3.44,4.51,2.99c1.34-0.37,2.51-1.28,3.42-2.72c-0.81-2.69-1.62-5.38-2.44-8.08c-0.57-1.87-1.09-2-2.4-1.84
			c-0.41,0.06-0.82,0.12-1.23,0.18c-0.09-0.3-0.19-0.6-0.28-0.9c2.34-0.74,4.82-1.8,5.64-2.16c1.17,3.88,2.33,7.75,3.47,11.62
			c0.51,1.73,0.87,1.9,2.28,1.61c0.34-0.08,0.69-0.15,1.03-0.23C493.19,62.34,493.29,62.66,493.38,62.98z"/>
		<path class="st1" d="M506.63,60.66c-2.83,0.64-5.65,1.3-8.46,1.99c-0.09-0.32-0.18-0.65-0.27-0.97c2.25-0.77,2.43-0.99,1.8-3.25
			c-0.67-2.41-1.35-4.82-2.03-7.23c-0.65-2.29-0.83-2.37-3.07-2.09c-0.08-0.29-0.17-0.58-0.25-0.87c1.75-0.72,3.32-1.53,4.89-2.67
			c0.32,1.15,0.76,2.68,1.08,3.83c0.8-2.11,1.86-4.38,3.75-4.8c1.4-0.31,2.42,0.32,2.65,1.19c0.22,0.8-0.18,1.7-0.77,2.19
			c-0.32,0.29-0.63,0.32-1,0.14c-0.71-0.4-1.26-0.65-1.93-0.49c-0.79,0.18-1.88,1.57-2.21,3.53c0.61,2.18,1.21,4.36,1.81,6.53
			c0.63,2.29,0.86,2.42,3.76,1.98C506.46,60.01,506.54,60.33,506.63,60.66z"/>
		<path class="st1" d="M510.56,44.43c1.72-0.61,3.55-1.61,5.14-2.61c0.21,0.84,0.5,1.95,0.71,2.79c0.09-0.09,2.75-2.29,2.88-2.38
			c0.8-0.63,1.55-1.02,2.05-1.11c4.23-0.78,7.59,2,8.39,5.45c1.22,5.3-2.56,9.42-7.25,11.21c-1.13,0.18-2.21,0.07-2.81-0.11
			c0.39,1.57,0.77,3.13,1.15,4.7c0.62,2.58,0.97,2.72,3.87,2.41c0.08,0.32,0.15,0.65,0.23,0.97c-2.92,0.57-5.83,1.16-8.73,1.77
			c-0.08-0.32-0.16-0.65-0.24-0.97c2.33-0.75,2.58-0.98,2.01-3.31c-1.3-5.27-2.64-10.55-4-15.83c-0.54-2.09-0.65-2.22-3.17-2.03
			C510.72,45.05,510.64,44.74,510.56,44.43z M519.08,55.23c1.06,0.63,2.66,0.9,3.9,0.66c3.26-0.62,4.79-3.54,3.86-7.44
			c-0.89-3.77-3.83-5.47-6.55-4.95c-1.34,0.25-2.74,1.36-3.59,2.26C517.51,48.91,518.3,52.07,519.08,55.23z"/>
		<path class="st1" d="M536.88,54.77c-0.07-0.33-0.14-0.65-0.21-0.98c2.38-0.6,2.65-0.82,2.15-3.12
			c-1.21-5.57-2.45-11.14-3.72-16.72c-0.49-2.13-0.73-2.32-3.31-2.2c-0.07-0.3-0.14-0.61-0.21-0.91c2.07-0.55,4.39-1.48,5.56-2.08
			c0.37,1.64,0.75,3.32,1.12,4.97c1.23,5.5,2.43,10.99,3.59,16.48c0.49,2.3,0.75,2.44,3.28,2.28c0.07,0.33,0.13,0.65,0.2,0.98
			C542.5,53.88,539.69,54.32,536.88,54.77z"/>
		<path class="st1" d="M563.8,48.08c-1.98,3.06-4.56,3.97-5.79,4.12c-4.68,0.57-8.2-2.52-9.02-6.53c-0.48-2.37,0-4.7,1.29-6.44
			c1.31-1.85,3.29-3.03,5.34-3.27c3.43-0.4,6.54,1.95,7.05,4.74c0.09,0.7,0.03,1.03-0.57,1.24c-0.76,0.22-5.71,1.09-10.3,1.83
			c0.82,4.69,4.34,6.2,7.09,5.88c1.59-0.19,2.94-0.95,4.17-2.29C563.29,47.59,563.54,47.84,563.8,48.08z M554.92,37.39
			c-1.81,0.21-3.27,1.94-3.25,4.84c2.18-0.28,4.37-0.54,6.66-0.91c0.7-0.08,0.91-0.28,0.81-0.81
			C558.83,38.66,557.13,37.13,554.92,37.39z"/>
	</g>
</g>
<g>
	<g>
		<path class="st2" d="M750.09,58.11c1.72,0.17,3.75,0.06,5.6-0.15c-0.34,0.8-0.79,1.87-1.13,2.68c0.13-0.05,3.51-0.84,3.68-0.86
			c1-0.2,1.82-0.23,2.26-0.11c3.74,1.08,4.59,4.83,3.16,8.1c-2.2,5.02-7.35,7.04-11.95,6.7c-0.98-0.3-1.75-0.83-2.12-1.22
			c-0.57,1.52-1.12,3.04-1.67,4.56c-0.89,2.5-0.69,2.76,1.72,3.65c-0.11,0.31-0.22,0.63-0.33,0.94c-2.55-0.67-5.11-1.31-7.7-1.92
			c0.1-0.32,0.21-0.63,0.32-0.95c2.21,0.27,2.53,0.17,3.32-2.11c1.8-5.14,3.72-10.27,5.77-15.37c0.81-2.02,0.81-2.18-1.28-3.03
			C749.84,58.72,749.97,58.42,750.09,58.11z M750.47,70.89c0.47,0.97,1.56,1.85,2.64,2.15c2.86,0.78,5.64-1.12,7.22-4.84
			c1.52-3.59,0.32-6.24-2.1-6.92c-1.19-0.33-2.94,0.04-4.14,0.47C752.85,64.79,751.64,67.84,750.47,70.89z"/>
		<path class="st2" d="M780.33,82.5c-1.58-0.35-3.45-0.56-5.25-0.65c0.23-0.52,0.76-1.69,1.14-2.5c-2.36,0.84-4.19,1.4-5.92,0.81
			c-2.1-0.72-3.39-2.68-1.82-6.26c0.94-2.12,1.89-4.24,2.88-6.36c0.82-1.77,0.66-2.05-0.09-2.49c-0.28-0.16-0.56-0.31-0.85-0.47
			c0.13-0.28,0.27-0.57,0.4-0.85c1.45,0.4,3.78,0.81,4.99,1.01c-0.6,1.01-1.36,2.57-2.37,4.72c-0.69,1.48-1.37,2.96-2.04,4.44
			c-1.29,2.88-0.18,4.2,1.23,4.7c1.17,0.41,2.56,0.3,4.1-0.34c1.17-2.52,2.37-5.03,3.61-7.54c0.86-1.74,0.6-2.11-0.42-2.68
			c-0.32-0.17-0.65-0.34-0.97-0.51c0.14-0.28,0.28-0.56,0.42-0.84c2.12,0.66,4.55,1.16,5.35,1.32c-1.84,3.58-3.62,7.17-5.33,10.77
			c-0.76,1.62-0.62,1.94,0.53,2.45c0.28,0.12,0.57,0.24,0.85,0.37C780.61,81.89,780.47,82.19,780.33,82.5z"/>
		<path class="st2" d="M790.71,87.65c-2.28-1-4.58-1.97-6.91-2.91c0.14-0.3,0.29-0.6,0.43-0.9c2.01,0.59,2.26,0.51,3.3-1.57
			c1.11-2.21,2.24-4.41,3.4-6.61c1.11-2.09,1.04-2.24-0.66-3.21c0.14-0.26,0.28-0.53,0.42-0.79c1.67,0.38,3.28,0.6,5.11,0.58
			c-0.58,1.04-1.33,2.42-1.9,3.46c1.96-1.17,4.23-2.32,5.77-1.62c1.14,0.52,1.37,1.53,0.92,2.31c-0.41,0.72-1.28,1.18-2,1.24
			c-0.41,0.05-0.64-0.09-0.76-0.42c-0.2-0.68-0.39-1.15-0.94-1.4c-0.64-0.29-2.32,0.18-3.86,1.5c-1.06,1.98-2.09,3.96-3.11,5.95
			c-1.07,2.1-0.98,2.32,1.22,3.51C791,87.06,790.85,87.36,790.71,87.65z"/>
		<path class="st2" d="M804.05,77.41c1.55,0.46,3.42,0.7,5.14,0.8c-0.44,0.73-1.03,1.71-1.47,2.45c0.12-0.02,3.35-0.23,3.5-0.23
			c0.95-0.03,1.7,0.08,2.09,0.28c3.25,1.69,3.39,5.52,1.55,8.51c-2.84,4.58-7.86,5.7-12,4.59c-0.84-0.46-1.46-1.12-1.73-1.56
			c-0.76,1.4-1.51,2.8-2.25,4.2c-1.21,2.31-1.07,2.61,0.97,3.89c-0.15,0.29-0.3,0.58-0.46,0.87c-2.2-1.1-4.44-2.17-6.69-3.21
			c0.15-0.29,0.29-0.59,0.44-0.88c1.97,0.64,2.27,0.6,3.35-1.5c2.46-4.76,5.04-9.48,7.75-14.16c1.07-1.85,1.09-2.01-0.67-3.21
			C803.73,77.97,803.89,77.69,804.05,77.41z M802.32,90.07c0.27,1.04,1.12,2.09,2.06,2.57c2.48,1.25,5.33-0.15,7.38-3.55
			c1.98-3.28,1.32-6.1-0.78-7.17c-1.03-0.53-2.7-0.45-3.86-0.23C805.48,84.46,803.88,87.26,802.32,90.07z"/>
		<path class="st2" d="M813.84,99.15c0.17-0.28,0.34-0.56,0.51-0.85c1.87,0.81,2.17,0.79,3.39-1.2c2.97-4.79,6.07-9.54,9.3-14.23
			c1.24-1.79,1.23-2.05-0.47-3.36c0.18-0.26,0.35-0.51,0.53-0.76c1.69,0.72,3.81,1.31,4.98,1.52c-0.98,1.36-1.98,2.76-2.94,4.14
			c-3.21,4.6-6.3,9.25-9.25,13.95c-1.24,1.97-1.15,2.22,0.48,3.43c-0.17,0.28-0.35,0.56-0.52,0.84
			C817.88,101.45,815.87,100.28,813.84,99.15z"/>
		<path class="st2" d="M834.45,108.4c-3.23,1.19-5.33,0.51-6.16-0.03c-3.14-2.04-3.23-6.2-0.98-9.59c1.33-2,3.24-3.43,5.25-4
			c2.1-0.64,4.13-0.42,5.52,0.51c2.34,1.55,2.47,4.87,0.8,7.15c-0.44,0.55-0.7,0.76-1.2,0.59c-0.6-0.24-4.11-2.25-7.38-4.15
			c-2.74,3.86-1.62,6.85,0.2,8.05c1.06,0.7,2.37,0.86,4,0.52C834.48,107.77,834.47,108.09,834.45,108.4z M836.65,95.96
			c-1.23-0.81-3.35-0.36-5.35,1.75c1.5,0.96,2.99,1.93,4.61,2.88c0.47,0.32,0.73,0.28,1.04-0.15
			C838.06,98.95,838.15,96.95,836.65,95.96z"/>
	</g>
</g>
<g>
	<g>
		<path class="st3" d="M970.83,184.06c1.44,1.01,3.43,1.94,5.35,2.7c-1.06,0.49-2.46,1.16-3.5,1.66c0.16,0.03,4.06,1.06,4.24,1.13
			c1.13,0.33,1.93,0.72,2.23,1.05c2.55,2.77,0.09,6.29-4.11,8.33c-6.45,3.13-13.25,2.33-17.46-0.25c-0.69-0.74-0.97-1.58-0.98-2.1
			c-1.9,1.01-3.78,2.04-5.65,3.08c-3.08,1.72-3.11,2.05-1.5,4.01c-0.38,0.22-0.77,0.43-1.15,0.65c-1.95-1.84-3.93-3.67-5.93-5.48
			c0.39-0.22,0.77-0.45,1.16-0.67c1.93,1.33,2.33,1.4,5.12-0.17c6.33-3.54,12.79-6.94,19.39-10.18c2.61-1.28,2.75-1.41,1.6-3.17
			C970.04,184.44,970.43,184.25,970.83,184.06z M959.56,195c-0.41,1.06-0.14,2.36,0.66,3.15c2.11,2.09,6.48,1.84,11.24-0.52
			c4.6-2.26,5.79-5.06,4.12-6.84c-0.82-0.87-2.82-1.44-4.33-1.68C967.3,191.02,963.4,192.98,959.56,195z"/>
		<path class="st3" d="M979.51,219.58c-1.34-1.06-3.07-2.15-4.82-3.11c0.65-0.33,2.12-1.07,3.14-1.58c-3.05-0.43-5.35-0.85-6.61-2.2
			c-1.53-1.64-1.21-3.96,3.33-6.23c2.7-1.34,5.42-2.65,8.16-3.94c2.29-1.07,2.37-1.39,2.02-2.12c-0.14-0.27-0.28-0.54-0.42-0.81
			c0.37-0.17,0.74-0.34,1.11-0.51c1.06,1.05,2.96,2.55,3.96,3.3c-1.43,0.54-3.48,1.46-6.26,2.77c-1.91,0.9-3.81,1.81-5.7,2.74
			c-3.66,1.8-3.63,3.48-2.61,4.59c0.84,0.92,2.33,1.51,4.39,1.72c3.19-1.57,6.41-3.1,9.66-4.6c2.26-1.04,2.3-1.47,1.77-2.44
			c-0.18-0.3-0.35-0.6-0.53-0.9c0.37-0.17,0.73-0.33,1.1-0.49c1.53,1.59,3.5,3.2,4.15,3.72c-4.71,2.07-9.35,4.23-13.92,6.46
			c-2.05,1-2.15,1.35-1.39,2.34c0.19,0.24,0.38,0.48,0.58,0.73C980.26,219.21,979.89,219.4,979.51,219.58z"/>
		<path class="st3" d="M986.24,229.02c-1.62-1.95-3.26-3.9-4.93-5.83c0.37-0.19,0.75-0.37,1.12-0.56c1.61,1.48,1.92,1.52,4.55,0.26
			c2.8-1.35,5.63-2.66,8.48-3.95c2.72-1.22,2.77-1.37,1.84-3.02c0.35-0.15,0.69-0.31,1.04-0.46c1.36,1.13,2.79,2.1,4.62,2.96
			c-1.37,0.59-3.19,1.38-4.55,1.98c2.86-0.04,5.99,0.1,7,1.43c0.74,0.98,0.22,1.94-0.81,2.38c-0.94,0.4-2.16,0.37-2.94,0.08
			c-0.45-0.15-0.57-0.38-0.44-0.72c0.31-0.66,0.47-1.16,0.11-1.63c-0.43-0.55-2.46-0.97-5.01-0.6c-2.56,1.16-5.11,2.34-7.63,3.55
			c-2.65,1.28-2.74,1.51-1.35,3.59C986.98,228.65,986.61,228.84,986.24,229.02z"/>
		<path class="st3" d="M1007.32,226.73c1.21,1.13,2.92,2.22,4.58,3.14c-0.98,0.4-2.27,0.95-3.24,1.36c0.14,0.04,3.54,1.4,3.7,1.48
			c0.98,0.43,1.66,0.88,1.91,1.23c2.07,2.97-0.39,6.28-4.27,7.96c-5.96,2.58-11.93,1.19-15.5-1.76c-0.56-0.8-0.76-1.66-0.73-2.18
			c-1.76,0.84-3.5,1.7-5.23,2.56c-2.85,1.43-2.9,1.76-1.59,3.86c-0.35,0.18-0.71,0.36-1.06,0.55c-1.62-2.01-3.26-4.01-4.92-6
			c0.36-0.19,0.72-0.37,1.08-0.56c1.63,1.5,1.98,1.6,4.57,0.29c5.86-2.95,11.85-5.77,17.97-8.44c2.42-1.05,2.55-1.17,1.65-3.03
			C1006.58,227.05,1006.95,226.89,1007.32,226.73z M996.51,236.66c-0.44,1.02-0.28,2.33,0.37,3.19c1.73,2.26,5.63,2.4,10.03,0.45
			c4.25-1.87,5.52-4.56,4.16-6.47c-0.67-0.94-2.41-1.67-3.74-2.04C1003.67,233.37,1000.07,234.99,996.51,236.66z"/>
		<path class="st3" d="M1002.47,249.98c0.36-0.17,0.71-0.33,1.07-0.5c1.44,1.59,1.77,1.71,4.3,0.56c6.12-2.76,12.38-5.36,18.77-7.79
			c2.44-0.93,2.6-1.15,1.8-3.04c0.35-0.13,0.7-0.26,1.05-0.39c1.19,1.4,2.91,2.89,3.94,3.61c-1.89,0.68-3.82,1.4-5.69,2.11
			c-6.26,2.38-12.4,4.92-18.41,7.61c-2.52,1.13-2.59,1.38-1.62,3.22c-0.35,0.16-0.7,0.32-1.06,0.48
			C1005.26,253.89,1003.87,251.93,1002.47,249.98z"/>
		<path class="st3" d="M1018.53,267.73c-4.03-0.44-5.88-2.02-6.44-2.88c-2.15-3.26,0.23-6.96,4.62-8.85
			c2.59-1.11,5.44-1.45,7.84-1.01c2.53,0.42,4.46,1.56,5.32,3c1.43,2.41-0.37,5.34-3.38,6.56c-0.77,0.28-1.16,0.33-1.57-0.04
			c-0.48-0.49-2.95-3.86-5.17-7.03c-5.15,2.08-5.73,5.23-4.51,7.14c0.71,1.11,1.99,1.85,3.88,2.31
			C1018.92,267.19,1018.72,267.46,1018.53,267.73z M1028,257.89c-0.76-1.27-3.19-1.86-6.53-0.97c0.97,1.53,1.92,3.06,3.02,4.63
			c0.3,0.49,0.59,0.58,1.16,0.35C1027.67,261.13,1028.94,259.44,1028,257.89z"/>
		<path class="st3" d="M1028.89,276.57c-1.2-2.12-2.42-4.23-3.67-6.34c0.79-0.25,1.58-0.5,2.38-0.74c1.24,2.12,2.45,4.24,3.64,6.36
			C1030.45,276.1,1029.67,276.33,1028.89,276.57z"/>
		<path class="st3" d="M1027.91,290.41c-1.15-2.12-2.32-4.23-3.52-6.33c0.33-0.14,0.66-0.29,0.99-0.43
			c1.19,1.64,1.45,1.72,3.77,0.75c2.48-1.04,4.98-2.05,7.5-3.03c2.41-0.93,2.47-1.08,1.87-2.81c0.31-0.12,0.61-0.23,0.92-0.35
			c1.02,1.27,2.11,2.37,3.55,3.42c-1.21,0.44-2.82,1.05-4.02,1.51c2.4,0.26,5.01,0.71,5.7,2.13c0.51,1.05-0.04,1.95-0.94,2.28
			c-0.83,0.31-1.85,0.15-2.46-0.22c-0.36-0.2-0.43-0.44-0.29-0.76c0.33-0.63,0.52-1.1,0.27-1.61c-0.3-0.59-1.95-1.21-4.12-1.11
			c-2.27,0.88-4.52,1.79-6.75,2.72c-2.35,0.98-2.44,1.2-1.49,3.42C1028.57,290.12,1028.24,290.26,1027.91,290.41z"/>
		<path class="st3" d="M1039.09,305.44c-3.57-0.68-5.11-2.37-5.56-3.27c-1.7-3.39,0.66-6.93,4.73-8.54c2.4-0.95,4.98-1.13,7.1-0.54
			c2.24,0.57,3.89,1.81,4.56,3.3c1.11,2.49-0.72,5.31-3.49,6.35c-0.71,0.23-1.06,0.27-1.4-0.13c-0.39-0.51-2.37-4.02-4.14-7.32
			c-4.76,1.76-5.49,4.87-4.52,6.85c0.56,1.15,1.65,1.97,3.31,2.54C1039.47,304.93,1039.28,305.18,1039.09,305.44z M1048.25,296.18
			c-0.59-1.31-2.73-2.04-5.79-1.34c0.76,1.58,1.51,3.17,2.38,4.8c0.23,0.51,0.49,0.61,1.01,0.42
			C1047.72,299.39,1048.98,297.78,1048.25,296.18z"/>
		<path class="st3" d="M1044.89,323.94c-0.37-0.54-1.65-2.51-3.05-3.89c0.69-0.29,1.44-0.6,2.14-0.88
			c-0.58-0.36-1.36-0.91-1.94-1.27c-1.25-0.82-1.79-1.49-1.94-1.83c-1-2.24,0.27-6.36,5.06-8.22c4.77-1.85,9.9,0.4,11.43,4.35
			c0.16,0.4,0.46,1.38,0.39,2.09c1.68-0.58,3.36-1.15,5.06-1.7c2.22-0.72,2.22-0.94,1.66-3.07c0.3-0.1,0.61-0.19,0.91-0.29
			c0.79,1.38,2.02,3.27,2.85,4.21c-1.29,0.39-2.82,0.87-4.23,1.33c-5.53,1.79-10.95,3.73-16.24,5.82c-1.71,0.68-1.86,0.97-1.49,2.05
			c0.1,0.31,0.21,0.62,0.31,0.93C1045.5,323.69,1045.2,323.81,1044.89,323.94z M1054.28,315.24c0.93-1.08,0.99-2.51,0.54-3.64
			c-0.54-1.37-2.68-3.45-7.61-1.59c-4.13,1.58-5.3,4.59-4.55,6.4c0.44,1.02,1.51,1.88,2.39,2.32
			C1048.1,317.53,1051.17,316.36,1054.28,315.24z"/>
	</g>
</g>
<g>
	<g>
		<path class="st4" d="M1084.96,539.61l0.47-7.02l0.98,0.07c0.08,1.94,0.24,2.13,2.51,2.28l7.26,0.49c2.31,0.16,2.42,0.04,2.78-1.71
			l0.87,0.06c0.18,1.51,0.5,2.92,1.14,4.4c-1.15-0.08-2.69-0.18-3.84-0.26c1.74,1.19,3.58,2.6,3.48,4.13
			c-0.08,1.13-0.92,1.72-1.8,1.66c-0.8-0.05-1.54-0.59-1.85-1.17c-0.19-0.32-0.14-0.56,0.12-0.79c0.55-0.42,0.93-0.76,0.96-1.31
			c0.04-0.64-0.96-1.84-2.7-2.64l-6.57-0.44c-2.3-0.16-2.49-0.01-2.86,2.32L1084.96,539.61z"/>
		<path class="st4" d="M1086.73,557.63c-2.66-2.14-3.11-4.32-3.05-5.29c0.25-3.72,3.89-5.75,7.91-5.48c2.38,0.16,4.53,1.04,5.98,2.4
			c1.56,1.39,2.35,3.13,2.24,4.72c-0.18,2.66-2.93,4.49-5.73,4.31c-0.7-0.08-1-0.19-1.11-0.69c-0.1-0.62-0.15-4.55-0.05-8.19
			c-4.67-0.41-6.76,1.97-6.91,4.13c-0.08,1.25,0.43,2.45,1.54,3.66L1086.73,557.63z M1098.54,553.15c0.09-1.4-1.32-2.88-4.12-3.5
			c-0.12,1.71-0.23,3.42-0.25,5.23c-0.04,0.55,0.13,0.74,0.65,0.78C1096.68,555.81,1098.43,554.86,1098.54,553.15z"/>
		<path class="st4" d="M1083.35,576.62c-0.1-0.65-0.36-2.97-0.97-4.82c0.73,0.05,1.54,0.1,2.27,0.15c-0.35-0.58-0.78-1.4-1.13-1.98
			c-0.72-1.27-0.88-2.11-0.85-2.48c0.16-2.44,3.17-5.49,8.06-5.16c4.85,0.33,8.24,4.29,7.96,8.48c-0.03,0.43-0.17,1.43-0.52,2.05
			l5.13,0.34c2.23,0.15,2.32-0.06,2.67-2.21l0.91,0.06c0.14,1.54,0.49,3.71,0.87,4.87c-1.29-0.09-2.83-0.19-4.26-0.29l-16.8-1.13
			c-1.82-0.12-2.07,0.07-2.22,1.2l-0.13,0.97L1083.35,576.62z M1095.4,572.68c1.27-0.62,1.92-1.9,2-3.09
			c0.1-1.46-0.84-4.13-5.87-4.47c-4.23-0.28-6.62,1.85-6.78,3.81c-0.07,1.1,0.47,2.33,1.05,3.11L1095.4,572.68z"/>
	</g>
</g>
<g>
	<g>
		<path class="st5" d="M1027.68,736.4c1.07-2.1,2.12-4.2,3.15-6.31c0.29,0.14,0.59,0.29,0.88,0.43c-0.66,1.82-0.59,2.07,1.48,3.06
			c2.21,1.05,4.44,2.09,6.69,3.1c2.14,0.96,2.3,0.89,3.28-0.62c0.27,0.12,0.54,0.24,0.81,0.36c-0.37,1.48-0.57,2.91-0.5,4.52
			c-1.09-0.47-2.53-1.11-3.6-1.59c1.23,1.74,2.48,3.7,1.81,5.09c-0.5,1.03-1.55,1.28-2.37,0.91c-0.76-0.34-1.26-1.11-1.35-1.76
			c-0.06-0.37,0.08-0.57,0.42-0.69c0.7-0.2,1.19-0.38,1.43-0.88c0.28-0.58-0.24-2.06-1.6-3.43c-2.04-0.93-4.06-1.87-6.06-2.82
			c-2.11-1.01-2.33-0.95-3.59,1.07C1028.27,736.69,1027.97,736.55,1027.68,736.4z"/>
		<path class="st5" d="M1021.95,753.68c-1.66-3.03-1.15-5.2-0.68-6.07c1.82-3.31,6.08-3.73,9.84-1.97c2.22,1.04,3.96,2.65,4.85,4.45
			c0.97,1.86,1.07,3.78,0.33,5.22c-1.23,2.41-4.74,3.1-7.42,1.85c-0.65-0.34-0.91-0.56-0.8-1.06c0.16-0.61,1.75-4.26,3.32-7.59
			c-4.35-2.14-7.31-0.79-8.37,1.14c-0.61,1.12-0.62,2.42-0.06,3.97C1022.61,753.63,1022.28,753.65,1021.95,753.68z M1035.35,754.06
			c0.66-1.27-0.15-3.16-2.63-4.77c-0.8,1.54-1.6,3.08-2.36,4.75c-0.26,0.49-0.18,0.74,0.32,0.97
			C1032.43,755.85,1034.55,755.61,1035.35,754.06z"/>
		<path class="st5" d="M1010.06,769.59c0.21-0.63,1.04-2.84,1.3-4.78c0.7,0.36,1.46,0.74,2.17,1.09c-0.08-0.67-0.12-1.6-0.2-2.27
			c-0.12-1.46,0.11-2.29,0.3-2.61c1.29-2.15,5.54-3.67,10.2-1.44c4.63,2.21,6.37,7.15,4.26,10.91c-0.21,0.38-0.79,1.26-1.43,1.69
			c1.69,0.77,3.38,1.53,5.09,2.28c2.23,0.98,2.42,0.81,3.7-1.06c0.3,0.13,0.6,0.26,0.91,0.39c-0.51,1.49-1.09,3.64-1.2,4.85
			c-1.3-0.56-2.85-1.22-4.28-1.86c-5.6-2.47-11.11-5.04-16.51-7.71c-1.75-0.87-2.09-0.8-2.77,0.16c-0.2,0.27-0.39,0.55-0.59,0.82
			C1010.69,769.9,1010.37,769.74,1010.06,769.59z M1023.94,770.94c1.56-0.07,2.78-0.99,3.38-2.06c0.75-1.32,0.92-4.13-3.92-6.41
			c-4.05-1.93-7.33-0.98-8.39,0.73c-0.57,0.97-0.6,2.32-0.38,3.26C1017.7,767.98,1020.8,769.48,1023.94,770.94z"/>
		<path class="st5" d="M1009.7,782.36c1.31-2.05,2.59-4.1,3.86-6.16c0.66,0.4,1.31,0.8,1.97,1.2c-1.26,2.07-2.54,4.13-3.84,6.18
			C1011.03,783.17,1010.36,782.77,1009.7,782.36z"/>
		<path class="st5" d="M1006.76,802.11c0.65-1.52,0.55-1.95-1.03-3.6c-1.53-1.64-3.49-3.53-8.28-8.46
			c-4.35-4.59-6.09-6.22-7.56-7.59c-0.6-0.54-0.57-0.92-0.33-1.26c0.58-0.83,1.88-1.16,2.72-0.7c0.44,0.24,0.62,0.59,0.78,1.22
			c0.27,1.29,0.67,2.33,1.3,3.1c1.05,1.31,1.98,2.34,2.34,2.71c0.44,0.38,0.75,0.54,1.45,0.69c4.63,1.03,9.88,1.71,12.93,2.13
			c2.31,0.34,2.9,0.3,4.08-1.07c0.32,0.15,0.64,0.3,0.95,0.45c-1.14,1.82-2.3,3.63-3.47,5.43c-0.32-0.15-0.64-0.3-0.96-0.46
			c0.55-1.35,0.28-1.65-1.25-1.93c-3.46-0.53-6.91-1.1-10.34-1.7c1.89,1.97,5.08,4.97,6.96,6.62c1.14,0.97,1.66,0.98,2.97-0.44
			c0.32,0.15,0.64,0.31,0.96,0.46c-1.07,1.63-2.16,3.26-3.25,4.89C1007.41,802.43,1007.08,802.27,1006.76,802.11z"/>
		<path class="st5" d="M986.61,808.08c-1.6-3.16-0.84-5.28-0.23-6.11c2.34-3.14,7.2-3.2,11.27-1.14c2.41,1.22,4.22,2.97,5.05,4.83
			c0.92,1.94,0.86,3.85-0.11,5.23c-1.61,2.3-5.61,2.71-8.51,1.24c-0.71-0.39-0.97-0.63-0.81-1.13c0.24-0.59,2.36-4.1,4.42-7.29
			c-4.71-2.49-8.17-1.4-9.54,0.44c-0.78,1.06-0.92,2.36-0.42,3.95C987.36,808.1,986.98,808.09,986.61,808.08z M1001.66,809.58
			c0.85-1.22,0.12-3.16-2.52-4.97c-1.04,1.47-2.09,2.94-3.09,4.54c-0.34,0.47-0.27,0.72,0.27,0.99
			C998.21,811.13,1000.62,811.06,1001.66,809.58z"/>
		<path class="st5" d="M981.14,809.67c0.33,0.18,0.66,0.36,0.99,0.54c-1.05,1.75-1.04,2.06,1.33,3.32
			c5.73,3.04,11.57,5.98,17.51,8.81c2.27,1.08,2.6,1.05,4.11-0.51c0.32,0.15,0.65,0.3,0.97,0.45c-0.79,1.54-1.37,3.46-1.53,4.52
			c-1.77-0.82-3.57-1.67-5.32-2.51c-5.87-2.81-11.64-5.73-17.3-8.74c-2.37-1.27-2.66-1.21-4.19,0.32c-0.33-0.18-0.67-0.36-1-0.55
			C978.2,813.45,979.68,811.57,981.14,809.67z"/>
		<path class="st5" d="M974.42,818.19c0.34,0.18,0.67,0.37,1.01,0.55c-1.09,1.74-1.08,2.04,1.32,3.34
			c5.8,3.12,11.71,6.14,17.72,9.05c2.3,1.11,2.63,1.08,4.19-0.45c0.33,0.16,0.66,0.31,0.98,0.46c-0.83,1.53-1.45,3.44-1.62,4.5
			c-1.79-0.84-3.61-1.72-5.39-2.58c-5.94-2.89-11.77-5.88-17.5-8.98c-2.4-1.3-2.7-1.25-4.27,0.26c-0.34-0.19-0.68-0.37-1.01-0.56
			C971.37,821.93,972.9,820.06,974.42,818.19z"/>
		<path class="st5" d="M979.11,841.66c-2.62,3.19-8.28,3.68-13.13,1.04c-6.09-3.32-6.25-7.91-4.13-10.32
			c2.99-3.41,8.78-3.25,12.93-1.05C980.8,834.53,981.11,839.23,979.11,841.66z M978.07,840.7c1.29-1.56,0.19-4.09-4.12-6.38
			c-4.72-2.51-9.26-3-11.04-0.97c-1.34,1.53-0.84,3.77,4.28,6.56C971.57,842.29,976.22,842.94,978.07,840.7z"/>
		<path class="st5" d="M954.84,866.58c0.87-1.42,0.64-1.87-1.05-3.57c-2.32-2.34-6.55-6.5-10.51-10.44
			c0.24-0.25,0.48-0.49,0.72-0.74c4.95,1.4,9.84,2.63,14.67,3.82c-2.69-2.84-5.88-6.29-9.11-9.66c0.23-0.24,0.45-0.48,0.68-0.73
			c5.25,1.69,10.55,3.23,16.03,4.65c2.46,0.65,2.89,0.54,4.19-0.57c0.34,0.18,0.69,0.36,1.03,0.54c-1.51,1.75-3.03,3.48-4.57,5.22
			c-0.35-0.18-0.69-0.37-1.04-0.55c0.95-1.7,0.84-1.9-1.23-2.49c-3.46-1-7.18-2.05-10.54-3.06c2.94,3.14,6.01,6.31,9.43,9.56
			c-0.2,0.22-0.4,0.45-0.61,0.67c-4.87-1.22-9.95-2.5-15.03-3.83c1.8,1.86,4.82,4.74,7.22,6.75c1.72,1.42,2.1,1.33,4.01-0.16
			c0.35,0.19,0.7,0.38,1.05,0.56c-1.42,1.54-2.85,3.07-4.3,4.6C955.54,866.96,955.19,866.77,954.84,866.58z"/>
	</g>
</g>
<g>
	<g>
		<path class="st6" d="M814.31,959.08c1.45-0.93,1.65-1.33,1.51-3.46c-0.13-2.1-0.38-4.61-1.04-11.02
			c-0.56-5.92-0.98-8.12-1.31-9.97c-0.15-0.74,0.09-1.04,0.45-1.21c0.89-0.41,2.04-0.07,2.42,0.72c0.2,0.41,0.14,0.79-0.08,1.4
			c-0.51,1.21-0.8,2.27-0.76,3.22c0.04,1.6,0.15,2.91,0.2,3.39c0.11,0.53,0.25,0.81,0.68,1.27c2.87,3.09,6.42,6.21,8.49,8.03
			c1.55,1.41,2.02,1.65,3.75,1.09c0.15,0.28,0.3,0.56,0.46,0.84c-1.98,0.97-3.97,1.91-5.98,2.84c-0.15-0.28-0.29-0.56-0.44-0.85
			c1.25-0.85,1.23-1.24,0.24-2.21c-2.29-2.12-4.54-4.27-6.74-6.43c0.25,2.55,0.8,6.59,1.17,8.85c0.24,1.36,0.63,1.62,2.49,1.09
			c0.14,0.28,0.29,0.57,0.43,0.85c-1.83,0.83-3.67,1.64-5.53,2.43C814.59,959.65,814.45,959.36,814.31,959.08z"/>
		<path class="st6" d="M795.8,954.07c0.86-3.32,2.71-4.68,3.66-5.05c3.62-1.41,7.21,0.88,8.93,4.56c1.01,2.17,1.24,4.49,0.65,6.41
			c-0.57,2.03-1.88,3.55-3.49,4.18c-2.71,1.06-5.87-0.59-6.99-3.19c-0.25-0.66-0.29-0.99,0.15-1.3c0.56-0.36,4.37-2.14,7.9-3.73
			c-1.89-4.33-5.09-5.12-7.22-4.3c-1.23,0.48-2.14,1.46-2.8,2.99C796.33,954.44,796.06,954.26,795.8,954.07z M805.73,962.65
			c1.42-0.56,2.16-2.5,1.38-5.27c-1.7,0.69-3.41,1.37-5.18,2.16c-0.55,0.21-0.67,0.45-0.45,0.93
			C802.2,962.2,804,963.33,805.73,962.65z"/>
		<path class="st6" d="M790.87,952.67c0.12,0.31,0.24,0.61,0.37,0.92c-1.87,0.89-2.06,1.14-1.2,3.3c2.09,5.23,4.28,10.44,6.56,15.63
			c0.87,1.98,1.13,2.12,3.3,1.64c0.13,0.28,0.25,0.56,0.38,0.84c-1.65,0.83-3.43,2.06-4.3,2.81c-0.68-1.53-1.36-3.09-2.02-4.63
			c-2.21-5.13-4.33-10.28-6.36-15.45c-0.85-2.17-1.09-2.27-3.17-1.8c-0.12-0.31-0.23-0.62-0.35-0.92
			C786.36,954.25,788.62,953.48,790.87,952.67z"/>
		<path class="st6" d="M780.59,956.14c0.11,0.31,0.23,0.62,0.34,0.93c-1.92,0.83-2.12,1.07-1.31,3.26
			c1.95,5.3,3.99,10.57,6.13,15.83c0.82,2.01,1.07,2.16,3.28,1.74c0.12,0.28,0.24,0.57,0.36,0.85c-1.69,0.78-3.53,1.95-4.43,2.67
			c-0.64-1.55-1.27-3.13-1.89-4.69c-2.07-5.2-4.04-10.41-5.93-15.65c-0.79-2.2-1.03-2.3-3.15-1.9c-0.11-0.31-0.22-0.62-0.32-0.93
			C775.98,957.58,778.29,956.87,780.59,956.14z"/>
		<path class="st6" d="M767.4,976.53c-4.18,1.08-8.38-1.41-9.72-5.78c-1.68-5.5,1.47-9.01,4.59-9.81c4.4-1.12,8.28,1.84,9.61,5.59
			C773.8,971.97,770.58,975.71,767.4,976.53z M767.4,975.29c2.03-0.53,3.13-3,1.79-6.88c-1.47-4.26-4.25-6.87-6.88-6.2
			c-1.98,0.5-3.22,2.43-1.77,7.07C761.79,973.22,764.47,976.05,767.4,975.29z"/>
		<path class="st6" d="M731.87,982.33c1.71-0.54,1.93-0.98,2.16-3.02c0.33-2.82,0.78-7.88,1.14-12.67c0.35-0.06,0.69-0.11,1.03-0.17
			c2.22,3.47,4.52,6.8,6.82,10.09c0.4-3.39,0.88-7.48,1.2-11.55c0.33-0.06,0.66-0.13,0.99-0.19c2.26,3.84,4.67,7.62,7.28,11.41
			c1.16,1.71,1.54,1.85,3.26,1.69c0.1,0.31,0.19,0.61,0.29,0.92c-2.35,0.52-4.71,1.02-7.08,1.5c-0.09-0.31-0.18-0.61-0.27-0.92
			c1.95-0.75,2.02-0.96,1.09-2.43c-1.55-2.47-3.25-5.09-4.75-7.51c-0.39,3.75-0.76,7.58-1.03,11.63c-0.31,0.06-0.62,0.11-0.93,0.17
			c-2.28-3.34-4.66-6.81-7-10.3c-0.23,2.23-0.47,5.79-0.48,8.41c0.01,1.87,0.34,2,2.77,1.92c0.08,0.31,0.17,0.62,0.25,0.93
			c-2.16,0.36-4.34,0.71-6.52,1.03C732.03,982.95,731.95,982.64,731.87,982.33z"/>
	</g>
</g>
<g>
	<g>
		<path class="st7" d="M525.57,1000.36c1.8,0.06,2.24-0.14,3.58-1.94c1.33-1.76,2.85-3.92,6.59-9.49c3.48-5.11,4.54-7.15,5.49-8.85
			c0.36-0.69,0.76-0.8,1.18-0.72c1.04,0.18,1.8,1.14,1.6,2c-0.1,0.45-0.4,0.72-0.99,1.08c-1.24,0.68-2.19,1.37-2.78,2.16
			c-1.03,1.32-1.81,2.44-2.08,2.86c-0.26,0.49-0.33,0.8-0.28,1.42c0.33,4.15,1.07,8.71,1.45,11.36c0.26,2.02,0.46,2.49,2.24,3.05
			c-0.08,0.31-0.15,0.62-0.23,0.93c-2.26-0.39-4.51-0.79-6.76-1.19c0.08-0.31,0.16-0.62,0.24-0.93c1.6,0.04,1.85-0.28,1.74-1.63
			c-0.36-3.01-0.73-6.03-1.09-9.04c-1.51,2.2-3.8,5.77-5.07,7.8c-0.74,1.23-0.61,1.65,1.25,2.29c-0.08,0.31-0.16,0.62-0.24,0.93
			c-2.03-0.38-4.06-0.77-6.09-1.17C525.4,1000.98,525.48,1000.67,525.57,1000.36z"/>
		<path class="st7" d="M513.79,986.11c2.82-2.27,5.23-2.38,6.26-2.16c3.94,0.82,5.47,4.72,4.43,8.66c-0.62,2.33-1.99,4.33-3.75,5.55
			c-1.83,1.32-3.89,1.83-5.61,1.47c-2.87-0.61-4.29-3.65-3.51-6.37c0.23-0.67,0.41-0.96,0.97-0.98c0.69,0.01,4.95,0.61,8.88,1.27
			c1.33-4.56-0.85-6.99-3.14-7.48c-1.33-0.28-2.71,0.03-4.23,0.93C513.99,986.71,513.89,986.41,513.79,986.11z M516.28,998.5
			c1.51,0.32,3.41-0.84,4.62-3.52c-1.84-0.38-3.67-0.76-5.63-1.07c-0.59-0.13-0.83,0-0.98,0.51
			C513.75,996.22,514.44,998.11,516.28,998.5z"/>
		<path class="st7" d="M510.58,982.32c-0.09,0.32-0.18,0.64-0.27,0.95c-2.11-0.26-2.42-0.15-3.06,2.09
			c-1.55,5.43-3.16,10.85-4.81,16.27c-0.63,2.07-0.53,2.31,1.5,3.07c-0.09,0.29-0.18,0.59-0.27,0.88c-1.85-0.2-4.06-0.14-5.24,0.01
			c0.5-1.59,1-3.22,1.49-4.81c1.64-5.33,3.24-10.67,4.79-16.01c0.65-2.24,0.5-2.45-1.52-3.15c0.09-0.32,0.18-0.63,0.28-0.95
			C505.83,981.24,508.2,981.78,510.58,982.32z"/>
		<path class="st7" d="M499.88,979.81c-0.09,0.32-0.19,0.63-0.28,0.95c-2.1-0.3-2.4-0.19-3.07,2.04c-1.63,5.4-3.3,10.8-5.03,16.19
			c-0.66,2.06-0.57,2.3,1.44,3.09c-0.09,0.29-0.19,0.59-0.28,0.88c-1.83-0.23-4.04-0.21-5.21-0.07c0.52-1.58,1.05-3.2,1.56-4.79
			c1.71-5.3,3.38-10.62,5-15.93c0.68-2.23,0.54-2.45-1.46-3.17c0.1-0.32,0.19-0.63,0.29-0.95
			C495.17,978.65,497.52,979.24,499.88,979.81z"/>
		<path class="st7" d="M476.69,990.23c-4-1.11-5.84-5.14-4.37-9.45c1.84-5.41,6.41-6.92,9.47-6.09c4.31,1.18,5.81,5.61,4.61,9.39
			C484.67,989.57,479.72,991.07,476.69,990.23z M477.46,989.19c1.95,0.54,4.37-0.97,5.63-4.87c1.38-4.27,0.59-7.84-1.98-8.55
			c-1.94-0.53-4.05,0.52-5.58,5.1C474.22,984.8,474.65,988.41,477.46,989.19z"/>
		<path class="st7" d="M444.83,979.06c1.68,0.26,2.1-0.01,3.45-1.64c1.86-2.25,5.04-6.36,7.92-10.32c0.32,0.1,0.63,0.2,0.95,0.3
			c-0.04,3.94-0.02,7.79-0.05,11.59c2.26-2.69,4.97-5.95,7.47-9.27c0.31,0.09,0.62,0.19,0.92,0.28c-0.25,4.3-0.44,8.59-0.56,12.97
			c-0.07,1.97,0.14,2.25,1.62,2.91c-0.11,0.3-0.21,0.6-0.32,0.9c-2.19-0.65-4.38-1.31-6.55-1.98c0.11-0.3,0.22-0.6,0.32-0.9
			c2,0.24,2.19,0.11,2.3-1.55c0.19-2.78,0.32-5.76,0.45-8.49c-2.43,3.01-4.91,6.08-7.49,9.38c-0.28-0.09-0.56-0.18-0.84-0.27
			c0.12-3.81,0.16-7.79,0.17-11.79c-1.41,1.8-3.59,4.73-5.09,6.94c-1.05,1.58-0.87,1.83,1.13,2.82c-0.11,0.3-0.22,0.59-0.34,0.89
			c-1.94-0.63-3.88-1.27-5.8-1.91C444.6,979.65,444.71,979.35,444.83,979.06z"/>
		<path class="st7" d="M437.27,968.41c2.32,0.82,4.66,1.63,7,2.42c-0.33,0.65-0.65,1.29-0.98,1.94c-2.35-0.8-4.68-1.61-7.01-2.43
			C436.6,969.7,436.94,969.06,437.27,968.41z"/>
		<path class="st7" d="M427.43,962.6c2.78,1.03,4.35,3.74,3.12,6.81c-1.5,3.73-5.33,4.32-7.69,3.43c-1-0.38-1.88-1.04-2.56-1.91
			c-1.39-0.53-3.3-0.96-4.24-1.06c-0.02-0.12-0.04-0.24-0.05-0.36c0.4-0.45,1.27-1.17,1.85-1.29c0.45,0.17,1.38,0.68,1.79,0.88
			c-0.2-0.94-0.12-2.12,0.38-3.29C421.51,962.28,424.86,961.65,427.43,962.6z M428.73,963.46c0.97-0.35,1.49-0.88,1.65-1.27
			c0.24-0.59-0.01-1.43-1.35-1.92c-1.1-0.41-2.37-0.85-3.34-1.22c-1.9-0.72-4.04-2.33-2.72-5.55c1.39-3.38,6.25-5.19,10.15-3.74
			c3.32,1.23,4.3,4.04,3.61,5.99c-0.28,0.72-0.79,1.25-1.47,1.6c-0.86,0.47-2.45,1.13-3.37,1.47c0.94,0.72,1.42,1.75,1.54,2.58
			c0.08,0.59-0.07,1.21-0.2,1.54c-1.32,0.05-2.71,0.59-3.66,1.25C429.3,963.94,429.02,963.7,428.73,963.46z M423.59,971.91
			c1.36,0.51,3.13-0.38,4.19-2.95c1.05-2.58,0.57-4.81-1.07-5.43c-1.34-0.43-3,0.34-4.1,2.97
			C421.55,969.04,421.9,971.28,423.59,971.91z M428.7,957.52c1.45,0.54,2.19,0.59,2.92,0.29c1.13-0.45,2.11-1.21,2.48-2.16
			c0.7-1.8-0.47-3.76-2.73-4.6c-2.79-1.04-5.01-0.05-5.85,2.03c-0.45,1.11-0.34,2.17,0.33,2.87
			C426.44,956.6,427.45,957.05,428.7,957.52z"/>
		<path class="st7" d="M412.02,951.47c2.23,0.91,4.47,1.8,6.72,2.69c-0.13,0.3-0.25,0.61-0.38,0.91c-1.93-0.53-2.17-0.44-3.07,1.66
			c-0.95,2.24-1.92,4.48-2.89,6.72c-0.93,2.13-0.85,2.28,0.78,3.19c-0.12,0.27-0.23,0.54-0.35,0.81c-1.58-0.32-3.09-0.47-4.79-0.36
			c0.47-1.06,1.1-2.48,1.57-3.54c-1.77,1.26-3.82,2.52-5.3,1.91c-1.1-0.45-1.39-1.45-1.02-2.25c0.33-0.74,1.12-1.25,1.8-1.35
			c0.38-0.07,0.6,0.06,0.74,0.38c0.23,0.66,0.44,1.13,0.97,1.35c0.62,0.25,2.16-0.3,3.53-1.68c0.88-2.02,1.76-4.04,2.63-6.07
			c0.92-2.13,0.83-2.35-1.33-3.46C411.76,952.07,411.89,951.77,412.02,951.47z"/>
		<path class="st7" d="M393.94,947.04c3.01-1.74,5.25-1.42,6.17-1.02c3.49,1.51,4.23,5.61,2.58,9.31c-0.98,2.18-2.6,3.9-4.45,4.8
			c-1.92,0.98-3.93,1.11-5.45,0.45c-2.55-1.11-3.33-4.34-2.13-6.89c0.33-0.62,0.55-0.87,1.07-0.79c0.64,0.13,4.47,1.47,8,2.82
			c2.03-4.25,0.44-7.03-1.59-7.91c-1.18-0.51-2.51-0.45-4.08,0.17C394.02,947.66,393.98,947.35,393.94,947.04z M394.06,959.67
			c1.35,0.58,3.31-0.22,4.9-2.64c-1.64-0.7-3.26-1.4-5.02-2.05c-0.52-0.23-0.77-0.15-0.99,0.33
			C392.12,956.98,392.42,958.96,394.06,959.67z"/>
		<path class="st7" d="M379.55,940.45c3.03-1.67,5.24-1.3,6.15-0.88c3.43,1.59,4.06,5.71,2.33,9.36c-1.02,2.16-2.67,3.84-4.53,4.7
			c-1.93,0.93-3.92,1.02-5.42,0.33c-2.5-1.17-3.2-4.42-1.95-6.93c0.34-0.62,0.57-0.86,1.08-0.77c0.63,0.15,4.4,1.57,7.87,3
			c2.12-4.21,0.61-7.01-1.39-7.95c-1.16-0.54-2.48-0.5-4.05,0.08C379.61,941.08,379.58,940.76,379.55,940.45z M379.36,953.08
			c1.32,0.61,3.29-0.15,4.93-2.53c-1.61-0.73-3.21-1.47-4.93-2.16c-0.51-0.24-0.76-0.16-0.99,0.31
			C377.51,950.36,377.75,952.34,379.36,953.08z"/>
		<path class="st7" d="M368.99,932c-0.15,0.29-0.3,0.58-0.44,0.88c-1.69-0.61-1.97-0.48-3.06,1.64c-0.88,1.71-1.77,3.43-2.66,5.14
			c-1.14,2.17-1.21,3.99,0.64,4.92c1.15,0.57,2.64,0.37,3.96-0.07c1.25-2.44,2.49-4.87,3.73-7.32c1.09-2.16,0.95-2.3-0.59-3.3
			c0.15-0.29,0.29-0.58,0.44-0.88c1.99,0.99,3.99,1.96,5.99,2.93c-0.14,0.29-0.29,0.59-0.43,0.88c-1.95-0.67-2.17-0.63-3.21,1.45
			c-1.08,2.15-2.16,4.31-3.25,6.45c-1.04,2.03-0.89,2.22,0.5,3.25c-0.14,0.27-0.28,0.54-0.41,0.81c-1.52-0.42-3.11-0.69-4.61-0.69
			c0.37-0.72,0.89-1.72,1.28-2.46c-0.79,0.16-1.65,0.32-2.66,0.48c-1.08,0.17-2.01,0.18-2.83-0.23c-2.25-1.13-2.67-3.68-1.08-6.68
			c1.04-1.97,2.07-3.93,3.09-5.9c1.1-2.12,0.98-2.29-0.52-3.29c0.15-0.29,0.3-0.58,0.45-0.87C365.2,930.09,367.09,931.05,368.99,932
			z"/>
	</g>
</g>
<g>
	<g>
		<path class="st8" d="M244.35,836.4c1.87,2.27,1.96,5.46-0.45,7.78c-2.92,2.83-6.41,1.73-8.04-0.21c-0.69-0.82-1.14-1.87-1.34-3.02
			c-0.95-1.15-2.38-2.47-3.13-3.02c0.04-0.13,0.08-0.25,0.11-0.38c0.54-0.24,1.6-0.53,2.14-0.37c0.3,0.38,0.87,1.31,1.13,1.69
			c0.26-1,0.85-2.09,1.81-2.97C239.47,833.26,242.62,834.31,244.35,836.4z M236.89,843.41c0.94,1.11,2.82,1.05,4.86-0.91
			c2.04-1.95,2.66-4.24,1.55-5.58c-0.94-1.02-2.7-1.11-4.83,0.86C236.42,839.69,235.73,842.03,236.89,843.41z M245.05,837.81
			c0.99,0.13,1.67-0.11,1.98-0.4c0.47-0.43,0.66-1.31-0.25-2.4c-0.74-0.9-1.6-1.9-2.26-2.71c-1.27-1.57-2.31-4.13,0.39-6.4
			c2.84-2.37,7.86-1.47,10.43,1.69c2.19,2.69,1.64,5.58,0.11,6.99c-0.58,0.51-1.26,0.74-2.01,0.73c-0.96,0.02-2.61-0.14-3.55-0.27
			c0.46,1.09,0.38,2.25,0.09,3.06c-0.21,0.57-0.62,1.07-0.88,1.31c-1.14-0.57-2.56-0.71-3.68-0.54
			C245.31,838.51,245.18,838.16,245.05,837.81z M247.81,832.35c0.97,1.19,1.57,1.57,2.33,1.66c1.17,0.13,2.36-0.09,3.14-0.76
			c1.46-1.27,1.44-3.53-0.06-5.38c-1.84-2.28-4.21-2.53-5.95-1.07c-0.92,0.77-1.34,1.79-1.12,2.76
			C246.35,830.42,246.98,831.33,247.81,832.35z"/>
		<path class="st8" d="M236.7,818.45c1.42,2.01,2.87,3.98,4.33,5.93c-0.26,0.21-0.51,0.43-0.77,0.64c-1.37-1.46-1.62-1.52-3.4,0
			c-1.89,1.62-3.77,3.26-5.64,4.94c-1.77,1.6-1.78,1.79-0.81,3.46c-0.22,0.2-0.44,0.41-0.67,0.62c-1.19-1.07-2.4-1.96-3.89-2.68
			c0.88-0.81,2.07-1.89,2.96-2.69c-2.09,0.34-4.39,0.57-5.36-0.77c-0.72-0.99-0.5-2.13,0.19-2.73c0.63-0.56,1.54-0.66,2.15-0.41
			c0.35,0.12,0.48,0.36,0.44,0.74c-0.12,0.76-0.16,1.33,0.19,1.8c0.41,0.56,1.96,0.78,3.77,0.14c1.7-1.5,3.41-2.98,5.13-4.44
			c1.82-1.53,1.86-1.76,0.58-3.91C236.18,818.87,236.44,818.66,236.7,818.45z"/>
		<path class="st8" d="M223.8,804.5c3.42,0.02,5.12,1.59,5.68,2.47c2.13,3.35,0.65,7.55-2.55,10.23c-1.9,1.58-4.09,2.43-6.08,2.35
			c-2.09-0.03-3.84-0.94-4.8-2.4c-1.61-2.45-0.68-6.14,1.6-7.99c0.59-0.44,0.9-0.56,1.3-0.2c0.47,0.48,3,3.89,5.3,7.05
			c3.8-3.04,3.9-6.48,2.65-8.45c-0.72-1.14-1.87-1.82-3.49-2.1C223.54,805.14,223.67,804.82,223.8,804.5z M217.56,816.91
			c0.85,1.29,2.88,1.5,5.4-0.02c-1.03-1.54-2.05-3.1-3.2-4.69c-0.32-0.51-0.57-0.56-1-0.21
			C217.24,813.2,216.53,815.34,217.56,816.91z"/>
		<path class="st8" d="M215.37,789.82c3.41,0.18,5.04,1.87,5.56,2.8c1.97,3.54,0.29,7.8-3.03,10.41c-1.97,1.54-4.2,2.3-6.18,2.13
			c-2.08-0.13-3.79-1.14-4.68-2.69c-1.5-2.59-0.39-6.34,1.98-8.14c0.61-0.42,0.92-0.53,1.3-0.14c0.44,0.51,2.81,4.14,4.96,7.5
			c3.94-2.95,4.2-6.48,3.05-8.57c-0.67-1.2-1.78-1.96-3.39-2.32C215.08,790.47,215.22,790.14,215.37,789.82z M208.54,802.29
			c0.79,1.37,2.81,1.68,5.4,0.23c-0.96-1.63-1.91-3.28-2.98-4.97c-0.3-0.54-0.55-0.6-0.99-0.26
			C208.4,798.46,207.59,800.62,208.54,802.29z"/>
		<path class="st8" d="M211.44,775.06c-0.29,0.19-0.58,0.39-0.86,0.58c-1.03-1.67-1.33-1.73-3.43-0.3c-1.7,1.16-3.39,2.33-5.07,3.53
			c-2.14,1.52-3.2,3.37-2.18,5.45c0.63,1.29,1.97,1.97,3.3,2.3c2.35-1.74,4.71-3.44,7.09-5.1c2.1-1.47,2.07-1.68,1.38-3.62
			c0.29-0.2,0.57-0.39,0.86-0.58c1.06,2.21,2.15,4.4,3.26,6.57c-0.28,0.2-0.57,0.39-0.85,0.59c-1.23-1.84-1.44-1.95-3.44-0.54
			c-2.08,1.47-4.15,2.97-6.21,4.5c-1.95,1.45-1.93,1.75-1.32,3.61c-0.26,0.2-0.52,0.39-0.77,0.59c-1.03-1.32-2.2-2.54-3.44-3.42
			c0.69-0.52,1.65-1.25,2.37-1.79c-0.74-0.31-1.53-0.65-2.45-1.09c-0.98-0.47-1.75-1.02-2.2-1.93c-1.24-2.53-0.19-5.48,2.8-7.58
			c1.95-1.38,3.91-2.73,5.87-4.05c2.11-1.42,2.12-1.66,1.49-3.61c0.29-0.19,0.58-0.38,0.88-0.57
			C209.45,770.77,210.44,772.93,211.44,775.06z"/>
	</g>
</g>
<g>
	<g>
		<path class="st9" d="M135.32,603.32c0.4,2.95-1.2,5.68-4.46,6.15c-3.95,0.58-6.29-2.49-6.63-5.04c-0.15-1.08,0.03-2.19,0.46-3.24
			c-0.19-1.5-0.71-3.42-1.05-4.31c0.1-0.08,0.19-0.15,0.29-0.23c0.58,0.14,1.61,0.55,1.99,1c0.06,0.49,0.05,1.57,0.07,2.03
			c0.73-0.64,1.8-1.16,3.05-1.31C132.82,597.95,134.94,600.6,135.32,603.32z M125.39,604.61c0.2,1.47,1.81,2.58,4.55,2.2
			c2.74-0.38,4.46-1.92,4.23-3.66c-0.26-1.39-1.7-2.47-4.52-2.13C126.93,601.35,125.14,602.79,125.39,604.61z M135.18,604.89
			c0.77,0.67,1.47,0.87,1.88,0.81c0.62-0.09,1.24-0.72,1.04-2.14c-0.16-1.17-0.37-2.49-0.51-3.53c-0.26-2.02,0.16-4.69,3.61-5.08
			c3.62-0.39,7.46,2.98,8.02,7.03c0.48,3.45-1.51,5.66-3.54,6.04c-0.76,0.11-1.46-0.07-2.09-0.48c-0.82-0.51-2.14-1.57-2.87-2.2
			c-0.18,1.18-0.86,2.11-1.53,2.62c-0.48,0.36-1.09,0.55-1.43,0.6c-0.67-1.13-1.79-2.07-2.82-2.57
			C135.03,605.63,135.1,605.26,135.18,604.89z M140.36,601.93c0.21,1.53,0.51,2.19,1.11,2.68c0.92,0.76,2.05,1.24,3.06,1.09
			c1.91-0.28,3.07-2.24,2.75-4.6c-0.39-2.92-2.29-4.37-4.52-4.11c-1.18,0.14-2.06,0.75-2.37,1.68
			C140.11,599.5,140.18,600.61,140.36,601.93z"/>
		<path class="st9" d="M137.98,584.35c0.21,2.41,0.45,4.81,0.7,7.22c-0.32,0.03-0.65,0.07-0.97,0.1c-0.42-1.96-0.61-2.13-2.87-1.91
			c-2.42,0.23-4.83,0.46-7.25,0.69c-2.3,0.22-2.4,0.35-2.44,2.26c-0.29,0.03-0.58,0.06-0.87,0.09c-0.45-1.57-1.01-2.99-1.89-4.46
			c1.15-0.1,2.69-0.23,3.84-0.34c-1.92-0.97-3.96-2.19-4.1-3.82c-0.1-1.21,0.65-1.95,1.52-2.01c0.8-0.06,1.61,0.41,2.01,0.96
			c0.24,0.31,0.22,0.57,0,0.85c-0.48,0.53-0.8,0.94-0.75,1.53c0.06,0.68,1.25,1.79,3.1,2.34c2.19-0.19,4.37-0.39,6.56-0.58
			c2.3-0.21,2.46-0.38,2.45-2.82C137.33,584.41,137.66,584.38,137.98,584.35z"/>
		<path class="st9" d="M133.84,566.14c2.88,1.92,3.58,4.07,3.63,5.08c0.2,3.81-3.11,6.36-7.13,6.63c-2.37,0.15-4.63-0.48-6.25-1.72
			c-1.73-1.27-2.75-3.02-2.83-4.72c-0.15-2.85,2.4-5.08,5.2-5.17c0.7,0.01,1.02,0.09,1.18,0.61c0.16,0.64,0.65,4.73,1.04,8.54
			c4.69-0.18,6.45-2.88,6.34-5.11c-0.07-1.29-0.71-2.46-1.95-3.59C133.32,566.5,133.58,566.32,133.84,566.14z M122.63,572.13
			c0.08,1.5,1.67,2.89,4.53,3.18c-0.11-1.8-0.21-3.61-0.41-5.5c-0.03-0.58-0.21-0.76-0.74-0.74
			C124.16,569.1,122.53,570.31,122.63,572.13z"/>
		<path class="st9" d="M133.54,550.14c2.79,2.03,3.41,4.2,3.42,5.21c0.05,3.8-3.38,6.21-7.4,6.31c-2.38,0.06-4.61-0.67-6.18-1.97
			c-1.68-1.34-2.62-3.13-2.63-4.82c-0.03-2.84,2.61-4.97,5.41-4.94c0.7,0.04,1.01,0.14,1.15,0.65c0.14,0.64,0.45,4.74,0.68,8.55
			c4.69,0.01,6.56-2.61,6.55-4.83c-0.01-1.29-0.61-2.48-1.8-3.66C133.01,550.48,133.28,550.31,133.54,550.14z M122.09,555.65
			c0.02,1.5,1.55,2.95,4.4,3.35c-0.04-1.8-0.06-3.6-0.18-5.5c0-0.58-0.18-0.77-0.7-0.77C123.75,552.69,122.07,553.83,122.09,555.65z
			"/>
		<path class="st9" d="M136.78,536.82c-0.33-0.01-0.65-0.03-0.98-0.04c-0.14-1.82-0.37-2.02-2.75-2.13
			c-1.92-0.09-3.85-0.18-5.77-0.27c-2.45-0.12-4.13,0.61-4.21,2.74c-0.05,1.33,0.76,2.62,1.71,3.65c2.73,0.09,5.46,0.17,8.19,0.25
			c2.42,0.07,2.49-0.12,2.75-1.96c0.33,0.01,0.65,0.02,0.98,0.03c-0.07,2.25-0.12,4.5-0.15,6.75c-0.33-0.01-0.65-0.01-0.98-0.02
			c-0.21-2.07-0.35-2.26-2.66-2.32c-2.4-0.05-4.81-0.11-7.21-0.17c-2.27-0.06-2.39,0.17-2.73,1.91c-0.3-0.01-0.61-0.01-0.91-0.02
			c-0.26-1.6-0.68-3.2-1.31-4.59c0.81,0.03,1.92,0.06,2.76,0.09c-0.47-0.66-0.98-1.39-1.55-2.26c-0.6-0.93-0.99-1.79-0.95-2.74
			c0.1-2.61,2.25-4.11,5.64-3.92c2.21,0.12,4.43,0.24,6.64,0.35c2.38,0.12,2.49-0.06,2.8-1.86c0.33,0.02,0.65,0.04,0.98,0.06
			C136.96,532.52,136.86,534.67,136.78,536.82z"/>
		<path class="st9" d="M131.07,517.95c-0.21,2.42-0.39,4.85-0.55,7.27c-0.71-0.12-1.41-0.25-2.12-0.37
			c0.16-2.44,0.35-4.88,0.56-7.31C129.66,517.68,130.37,517.81,131.07,517.95z"/>
		<path class="st9" d="M123.74,505.19c-0.18-0.58-0.23-1.07-0.18-1.46c0.41-3.45,4.04-5.88,8.16-5.29c4.68,0.68,8.24,4.8,7.74,8.83
			c-0.15,1.33-0.69,3.01-1.77,4.63c-0.91-0.1-1.85-0.19-2.79-0.29c-5.59-0.59-11.19-1.2-16.78-1.82c-2.16-0.24-2.38-0.17-2.76,1.92
			c-0.3-0.03-0.6-0.06-0.91-0.1c-0.06-1.57-0.37-3.67-0.68-4.94c1.36,0.16,2.75,0.33,4.14,0.49c2.25,0.26,4.5,0.53,6.75,0.79
			C124.35,507.03,124.04,506.11,123.74,505.19z M134.75,509.09c0.56,0.06,0.87,0.07,1.23-0.02c0.91-0.28,2.05-1.37,2.23-2.86
			c0.32-2.66-2.07-4.32-6-4.85c-3.95-0.53-6.57,1.36-6.88,4.02c-0.11,0.93,0.09,2.02,0.37,2.67
			C128.72,508.41,131.73,508.75,134.75,509.09z"/>
		<path class="st9" d="M140.58,495.58c-0.32-0.05-0.65-0.1-0.97-0.14c0.08-2-0.05-2.28-2.33-2.63c-5.52-0.86-11.04-1.74-16.56-2.63
			c-2.11-0.34-2.34-0.21-2.93,1.83c-0.3-0.05-0.6-0.09-0.9-0.14c0.05-1.8-0.18-3.91-0.43-5.03c1.62,0.28,3.28,0.55,4.9,0.83
			c5.43,0.91,10.87,1.81,16.3,2.7c2.28,0.37,2.48,0.21,3.02-1.75c0.32,0.05,0.64,0.11,0.97,0.16
			C141.27,491.03,140.91,493.3,140.58,495.58z"/>
		<path class="st9" d="M144.44,469.94c-0.08,1.51,0.02,3.25,0.22,4.9c-0.55-0.11-1.78-0.37-2.64-0.55c1.2,1.97,2.04,3.53,1.72,5.2
			c-0.39,2.04-2.12,3.55-5.88,2.86c-2.23-0.41-4.45-0.82-6.68-1.24c-1.86-0.35-2.11-0.13-2.43,0.63c-0.11,0.29-0.22,0.57-0.33,0.86
			c-0.3-0.05-0.6-0.11-0.9-0.16c0.17-1.38,0.21-3.54,0.21-4.66c1.08,0.31,2.73,0.63,5,1.07c1.56,0.3,3.12,0.6,4.68,0.9
			c3.03,0.58,4.15-0.67,4.42-2.05c0.22-1.13-0.1-2.37-0.98-3.64c-2.66-0.55-5.32-1.11-7.98-1.67c-1.85-0.39-2.17-0.06-2.56,0.97
			c-0.11,0.33-0.23,0.65-0.34,0.98c-0.3-0.06-0.59-0.12-0.89-0.18c0.3-2.05,0.38-4.34,0.4-5.1c3.82,0.83,7.64,1.66,11.46,2.48
			c1.71,0.37,2,0.17,2.32-0.97c0.07-0.28,0.15-0.57,0.22-0.85C143.8,469.8,144.12,469.87,144.44,469.94z"/>
		<path class="st9" d="M145.9,454.51c2.2,2.65,2.26,4.88,2.02,5.85c-0.9,3.66-4.81,5.11-8.74,4.21c-2.32-0.54-4.3-1.79-5.49-3.43
			c-1.29-1.7-1.76-3.65-1.35-5.28c0.68-2.74,3.76-4.12,6.46-3.39c0.67,0.21,0.95,0.38,0.96,0.91c-0.03,0.65-0.74,4.67-1.46,8.37
			c4.54,1.18,7-0.86,7.54-3.01c0.31-1.24,0.02-2.53-0.84-3.96C145.3,454.7,145.6,454.61,145.9,454.51z M133.44,456.94
			c-0.35,1.44,0.77,3.21,3.43,4.31c0.41-1.74,0.83-3.47,1.19-5.32c0.14-0.56,0.02-0.78-0.49-0.92
			C135.78,454.52,133.87,455.19,133.44,456.94z"/>
	</g>
</g>
<g>
	<g>
		<path d="M1071.95,724.02c-0.21,1.08-1.26,4.73-1.61,5.81h-16.28v-0.98c3.19-0.31,3.47-0.49,3.47-3.46v-13.9
			c0-2.98-0.35-3.15-3.15-3.43v-0.98h9.38v0.98c-2.8,0.28-3.19,0.42-3.19,3.43v14.25c0,2.14,0.28,2.63,2.28,2.66
			c0.04,0,2.56,0.04,2.77,0.04c1.79,0,2.31-0.21,3.12-1.08c0.88-0.91,1.61-2.31,2.13-3.61L1071.95,724.02z"/>
		<path d="M1084.4,714.04c4.38,0,7.63,3.33,7.63,7.84c0,5.67-4.2,8.37-7.63,8.37c-4.83,0-7.77-3.89-7.77-7.81
			C1076.63,716.74,1081.08,714.04,1084.4,714.04z M1083.98,715.23c-2.13,0-4.06,2.07-4.06,6.13c0,4.45,1.96,7.67,4.83,7.67
			c2.17,0,3.99-1.58,3.99-6.37C1088.75,718.56,1087.06,715.23,1083.98,715.23z"/>
		<path d="M1105.19,729.83h-8.05v-0.98c2.21-0.21,2.42-0.38,2.42-2.66v-7.28c0-2.31-0.14-2.42-2.17-2.66v-0.88
			c1.71-0.28,3.29-0.7,4.94-1.44c0,1.16,0,2.7,0,3.85c1.22-1.82,2.7-3.75,4.45-3.75c1.29,0,2.03,0.81,2.03,1.68
			c0,0.8-0.56,1.58-1.19,1.92c-0.35,0.21-0.63,0.18-0.91-0.07c-0.52-0.53-0.95-0.88-1.58-0.88c-0.74,0-2.03,1.08-2.8,2.87v6.58
			c0,2.31,0.17,2.49,2.87,2.7V729.83z"/>
		<path d="M1125.63,726.86c-2.24,2.8-4.69,3.4-5.81,3.4c-4.27,0-6.86-3.5-6.86-7.53c0-2.38,0.84-4.59,2.28-6.13
			c1.47-1.65,3.4-2.56,5.22-2.56c3.04,0,5.36,2.63,5.36,5.43c-0.04,0.7-0.14,1.02-0.7,1.16c-0.7,0.14-5.18,0.46-9.35,0.59
			c-0.11,4.69,2.76,6.62,5.25,6.62c1.44,0,2.77-0.59,4.06-1.79L1125.63,726.86z M1119.61,715.38c-1.61,0-3.18,1.5-3.67,4.34
			c1.96,0,3.92,0,5.99-0.1c0.63,0,0.84-0.18,0.84-0.7C1122.8,717.05,1121.57,715.38,1119.61,715.38z"/>
		<path d="M1149.75,729.83v-0.98c2.07-0.21,2.31-0.35,2.31-2.8v-5.85c0-2.49-0.84-4.06-3.01-4.06c-1.33,0-2.55,0.74-3.88,1.82
			c0.03,0.42,0.1,0.84,0.1,1.5v6.79c0,2.21,0.32,2.38,2.24,2.59v0.98h-7.49v-0.98c2.17-0.21,2.48-0.35,2.48-2.66v-6.02
			c0-2.59-0.8-4.03-2.94-4.03c-1.4,0-2.77,0.95-3.85,1.82v8.23c0,2.31,0.25,2.45,2.24,2.66v0.98h-7.53v-0.98
			c2.31-0.21,2.52-0.35,2.52-2.66v-7.25c0-2.24-0.14-2.38-2.1-2.73v-0.88c1.65-0.25,3.29-0.7,4.87-1.4c0,0.84,0,2,0,2.83
			c0.73-0.56,1.47-1.16,2.59-1.82c0.88-0.56,1.65-0.91,2.77-0.91c1.68,0,3.12,1.05,3.82,2.87c0.98-0.77,1.89-1.37,2.76-1.96
			c0.77-0.49,1.75-0.91,2.77-0.91c2.73,0,4.41,1.96,4.41,5.39v6.76c0,2.35,0.21,2.45,2.21,2.66v0.98H1149.75z"/>
		<path d="M1172.5,729.83v-0.98c2.21-0.21,2.45-0.38,2.45-2.76v-7.21c0-2.17-0.1-2.31-2.21-2.66v-0.84c1.82-0.32,3.46-0.77,4.97-1.4
			c0,1.47,0,2.94,0,4.41v7.7c0,2.38,0.25,2.55,2.52,2.76v0.98H1172.5z M1176.14,710.54c-0.98,0-1.86-0.88-1.86-1.86
			c0-1.12,0.88-1.92,1.89-1.92c0.98,0,1.79,0.8,1.79,1.92C1177.96,709.67,1177.15,710.54,1176.14,710.54z"/>
		<path d="M1184.33,715.2c1.65-0.25,3.47-0.84,5.08-1.5c0,0.84,0,1.96,0,2.8c0.1-0.07,2.91-1.68,3.04-1.75
			c0.84-0.46,1.58-0.7,2.03-0.7c3.85,0,6.2,3.22,6.2,6.69c0,5.32-4.2,8.68-8.79,9.52c-1.05-0.04-2-0.35-2.48-0.63v4.73
			c0,2.59,0.28,2.8,2.97,3.04v0.98h-8.3v-0.98c2.28-0.25,2.56-0.42,2.56-2.76V718.7c0-2.1-0.07-2.24-2.31-2.56V715.2z
			 M1189.4,727.17c0.8,0.8,2.17,1.37,3.33,1.37c3.04,0,5-2.56,5-6.48c0-3.78-2.21-5.92-4.69-5.92c-1.22,0-2.7,0.8-3.64,1.5V727.17z"
			/>
		<path d="M1215.02,718.63c-0.63-2.03-1.54-3.43-3.68-3.43c-1.22,0-2.17,0.88-2.17,2.28c0,1.5,1.02,2.21,2.98,3.12
			c3.01,1.44,4.52,2.49,4.52,4.8c0,3.22-2.94,4.87-5.71,4.87c-1.82,0-3.43-0.56-4.17-0.98c-0.17-1.02-0.49-2.94-0.63-4.1l1.01-0.17
			c0.63,2.24,1.86,4.06,4.31,4.06c1.33,0,2.45-0.91,2.45-2.38c0-1.58-0.95-2.38-2.8-3.29c-2.45-1.19-4.45-2.31-4.45-4.83
			c0-2.55,2.17-4.52,5.46-4.52c1.47,0,2.66,0.35,3.36,0.46c0.1,0.84,0.35,3.05,0.53,3.89L1215.02,718.63z"/>
		<path d="M1238.51,729.03c-1.68,0.25-3.57,0.7-5.36,1.22c0-0.56,0-1.82,0-2.7c-1.89,1.58-3.43,2.7-5.36,2.7
			c-2.35,0-4.38-1.43-4.38-5.25v-6.79c0-1.89-0.28-2.1-1.16-2.28l-0.98-0.17v-0.91c1.5-0.07,3.82-0.42,5.01-0.63
			c-0.11,1.12-0.11,2.8-0.11,5.11v4.76c0,3.08,1.61,3.96,3.19,3.96c1.29,0,2.59-0.56,3.78-1.68v-8.16c0-1.89-0.42-2.14-1.61-2.31
			l-1.12-0.14v-0.91c2.24-0.11,4.69-0.49,5.5-0.63v11.73c0,1.75,0.28,2,1.61,2.07l0.98,0.04V729.03z"/>
		<path d="M1262.1,729.83v-0.98c2.07-0.21,2.31-0.35,2.31-2.8v-5.85c0-2.49-0.84-4.06-3.01-4.06c-1.33,0-2.55,0.74-3.88,1.82
			c0.03,0.42,0.1,0.84,0.1,1.5v6.79c0,2.21,0.32,2.38,2.24,2.59v0.98h-7.49v-0.98c2.17-0.21,2.48-0.35,2.48-2.66v-6.02
			c0-2.59-0.8-4.03-2.94-4.03c-1.4,0-2.77,0.95-3.85,1.82v8.23c0,2.31,0.25,2.45,2.24,2.66v0.98h-7.53v-0.98
			c2.31-0.21,2.52-0.35,2.52-2.66v-7.25c0-2.24-0.14-2.38-2.1-2.73v-0.88c1.65-0.25,3.29-0.7,4.87-1.4c0,0.84,0,2,0,2.83
			c0.73-0.56,1.47-1.16,2.59-1.82c0.88-0.56,1.65-0.91,2.77-0.91c1.68,0,3.12,1.05,3.82,2.87c0.98-0.77,1.89-1.37,2.76-1.96
			c0.77-0.49,1.75-0.91,2.77-0.91c2.73,0,4.41,1.96,4.41,5.39v6.76c0,2.35,0.21,2.45,2.21,2.66v0.98H1262.1z"/>
	</g>
</g>
<g>
	<g>
		<path d="M1343.1,519.42c-1.89,0.25-2.13,0.52-3.04,2.62c-1.16,2.8-3.15,7.46-4.97,12.18h-1.01c-1.47-4.03-3.19-8.19-4.83-12.29
			c-0.8-2.03-1.08-2.24-2.91-2.52v-0.95h7.14v0.95c-1.92,0.25-2,0.49-1.43,2c0.88,2.42,2.34,6.13,3.33,8.58
			c1.26-3.12,2.42-5.99,3.19-8.23c0.59-1.72,0.49-2.1-1.82-2.35v-0.95h6.37V519.42z"/>
		<path d="M1361.55,519.42c-1.89,0.25-2.13,0.52-3.04,2.62c-1.16,2.8-3.15,7.46-4.97,12.18h-1.01c-1.47-4.03-3.19-8.19-4.83-12.29
			c-0.8-2.03-1.08-2.24-2.91-2.52v-0.95h7.14v0.95c-1.92,0.25-2,0.49-1.43,2c0.88,2.42,2.34,6.13,3.33,8.58
			c1.26-3.12,2.42-5.99,3.19-8.23c0.59-1.72,0.49-2.1-1.82-2.35v-0.95h6.37V519.42z"/>
	</g>
</g>
</svg>
