<svg version="1.1" id="Layer_1" xmlns="http://www.w3.org/2000/svg" xmlns:xlink="http://www.w3.org/1999/xlink" x="0px" y="0px"
	 width="100%" viewBox="0 0 600 600" enable-background="new 0 0 600 600" xml:space="preserve">
<path fill="#000000" opacity="1.000000" stroke="none" 
	d="
M400.000000,601.000000 
	C266.666656,601.000000 133.833328,601.000000 1.000000,601.000000 
	C1.000000,401.000000 1.000000,201.000000 1.000000,1.000000 
	C201.000000,1.000000 401.000000,1.000000 601.000000,1.000000 
	C601.000000,201.000000 601.000000,401.000000 601.000000,601.000000 
	C534.166687,601.000000 467.333344,601.000000 400.000000,601.000000 
M95.500229,373.783051 
	C81.912277,373.783051 68.324333,373.783051 54.182228,373.783051 
	C54.182228,371.166473 54.182209,369.216034 54.182232,367.265594 
	C54.182560,335.292084 54.196171,303.318542 54.170841,271.345032 
	C54.166355,265.679993 52.120045,263.035126 47.897449,262.911743 
	C43.540092,262.784393 41.177788,265.712769 41.175175,271.456512 
	C41.158966,307.086975 41.159328,342.717468 41.181355,378.347931 
	C41.185127,384.452881 43.483826,386.879303 49.595108,386.887421 
	C85.231552,386.934814 120.868103,386.920837 156.504578,386.886292 
	C161.781647,386.881195 164.893188,384.417572 164.998077,380.454163 
	C165.112305,376.137726 162.174133,373.802551 156.440628,373.795898 
	C136.460632,373.772736 116.480576,373.784393 95.500229,373.783051 
M564.571472,258.349762 
	C568.011536,256.712494 568.325195,253.722656 568.320007,250.364807 
	C568.265930,215.065643 568.288391,179.766373 568.286682,144.467133 
	C568.286255,136.451508 566.777710,134.974701 558.532715,134.974579 
	C523.885864,134.974030 489.239014,134.981842 454.592163,134.989685 
	C453.259827,134.989990 451.891632,134.831955 450.602112,135.075623 
	C447.142395,135.729416 444.757080,137.702606 444.749176,141.412811 
	C444.740936,145.283585 446.909149,147.569397 450.804535,147.998810 
	C452.122009,148.144028 453.467163,148.045197 454.799683,148.045547 
	C486.443085,148.053726 518.086487,148.060257 549.729858,148.066986 
	C551.489197,148.067368 553.248535,148.067047 555.220154,148.067047 
	C555.220154,165.042435 555.220581,181.358994 555.219971,197.675552 
	C555.219299,215.167068 555.166504,232.658813 555.242676,250.149994 
	C555.271606,256.799683 557.637207,258.999420 564.571472,258.349762 
M194.969543,320.504517 
	C194.969543,325.276001 194.969543,330.047485 194.969543,334.791016 
	C198.026733,334.791016 200.467377,334.791016 202.958603,334.791016 
	C202.958603,313.800415 202.958603,293.035065 202.958603,272.193909 
	C200.276489,272.193909 197.839554,272.193909 194.903107,272.193909 
	C194.903107,281.459381 194.903107,290.527374 194.903107,299.693573 
	C184.307922,299.693573 174.216125,299.693573 163.568909,299.693573 
	C163.568909,290.398590 163.568909,281.323547 163.568909,272.385193 
	C160.446518,272.385193 157.889343,272.385193 155.395966,272.385193 
	C155.395966,293.389099 155.395966,313.991425 155.395966,334.677338 
	C158.199631,334.677338 160.743149,334.677338 163.637512,334.677338 
	C163.637512,325.402191 163.637512,316.457733 163.637512,307.306152 
	C174.223785,307.306152 184.446045,307.306152 194.969543,307.306152 
	C194.969543,311.565338 194.969543,315.537262 194.969543,320.504517 
M149.892975,244.127991 
	C149.892975,235.549026 149.892975,226.970047 149.892975,218.453308 
	C160.741287,218.453308 170.778564,218.453308 181.292648,218.453308 
	C181.292648,227.796402 181.292648,236.716171 181.292648,245.595490 
	C184.331985,245.595490 186.872040,245.595490 189.457916,245.595490 
	C189.457916,224.606628 189.457916,204.046860 189.457916,183.342804 
	C186.585617,183.342804 184.039871,183.342804 180.975311,183.342804 
	C180.975311,192.603409 180.975311,201.507050 180.975311,210.573120 
	C170.411102,210.573120 160.376785,210.573120 149.830963,210.573120 
	C149.830963,201.306381 149.830963,192.392700 149.830963,183.344330 
	C146.765793,183.344330 144.226654,183.344330 141.675888,183.344330 
	C141.675888,204.382263 141.675888,225.049362 141.675888,246.440323 
	C144.726074,245.905258 147.225601,245.466812 149.892975,244.127991 
M301.211243,224.065201 
	C302.450867,223.957977 303.690491,223.850754 304.856110,223.749939 
	C306.252014,207.879761 298.277313,197.084686 284.696686,196.027847 
	C269.918091,194.877792 259.252258,203.741547 258.080658,218.146896 
	C256.782776,234.104858 265.914215,245.501144 280.731232,246.415390 
	C292.443512,247.138062 302.848053,239.851730 303.394501,230.592209 
	C299.088074,229.738358 295.777649,230.210251 292.945038,234.579681 
	C289.648987,239.663986 281.427185,240.716248 275.145844,238.017258 
	C269.162964,235.446533 266.370148,230.852600 266.850952,224.065262 
	C277.977631,224.065262 289.126007,224.065262 301.211243,224.065201 
M357.084534,329.617004 
	C362.698669,324.721680 365.170776,318.413147 365.506897,311.101349 
	C366.112549,297.926483 358.000610,287.419983 345.475769,285.228455 
	C332.684692,282.990356 320.796448,290.073608 317.317505,302.005707 
	C314.156128,312.848602 317.707123,324.948730 325.791046,330.879425 
	C334.546509,337.302795 346.633301,336.986786 357.084534,329.617004 
M389.096130,205.692520 
	C388.361206,206.994827 387.462830,208.232407 386.917328,209.609756 
	C382.808502,219.984268 383.270569,230.016281 390.712708,238.665390 
	C397.480133,246.530334 406.564026,248.024475 416.265747,245.431412 
	C426.626465,242.662216 433.231232,233.785049 433.822601,222.501038 
	C434.405609,211.376312 428.861023,201.946472 419.361328,197.906418 
	C408.776306,193.404816 397.622864,196.100525 389.096130,205.692520 
M241.545517,196.972458 
	C239.048965,196.657715 237.763733,197.546448 238.065155,200.266464 
	C238.210968,201.582352 238.093460,202.927963 238.087265,204.260086 
	C238.053131,211.586243 238.283188,218.925964 237.910919,226.234985 
	C237.480453,234.686523 232.213470,239.318069 223.937271,239.185989 
	C216.242355,239.063171 211.477448,234.352356 211.003677,226.288147 
	C210.857391,223.797913 210.918640,221.294479 210.915298,218.797043 
	C210.905807,211.682617 210.911972,204.568146 210.911972,197.321259 
	C207.820007,197.321259 205.280533,197.321259 202.831055,197.321259 
	C202.831055,208.456055 202.257889,219.280121 203.004456,230.012360 
	C203.652817,239.332840 209.924728,244.751190 219.191589,246.293884 
	C226.410690,247.495682 232.357574,244.854462 237.879776,240.093826 
	C238.056229,242.286102 238.186951,243.909958 238.332199,245.714600 
	C241.098679,245.714600 243.654205,245.714600 246.653778,245.714600 
	C246.653778,230.116730 246.629913,214.828674 246.672394,199.540787 
	C246.681763,196.170441 244.265823,197.152206 241.545517,196.972458 
M421.979767,339.131104 
	C419.522797,345.256134 417.065826,351.381165 414.469971,357.852417 
	C417.553894,357.852417 420.025879,357.852417 422.818268,357.852417 
	C432.498810,333.957428 442.201569,310.007690 451.948853,285.947968 
	C443.978210,284.830475 443.965363,284.825623 441.426666,291.521790 
	C437.892395,300.843842 434.390350,310.178070 430.847382,319.496796 
	C430.254547,321.056061 429.524109,322.563049 428.472137,324.978546 
	C423.912781,313.063324 419.764069,302.209351 415.605957,291.358948 
	C412.986938,284.524750 412.980621,284.527161 404.702087,286.066467 
	C405.259125,287.636169 405.746277,289.182312 406.349548,290.681702 
	C411.683533,303.938629 417.173401,317.135742 422.256409,330.487915 
	C423.126892,332.774536 422.286865,335.712280 421.979767,339.131104 
M264.985229,297.725708 
	C266.811615,302.961914 270.615631,299.442108 273.614197,300.136749 
	C272.963440,292.471802 269.866241,287.628448 263.203186,286.237000 
	C258.333282,285.220062 252.933258,285.258698 248.038635,286.210571 
	C241.637817,287.455383 237.832962,292.536438 237.543152,298.012848 
	C237.224411,304.035309 240.363022,308.475586 247.167908,310.989960 
	C251.679001,312.656738 256.384613,313.791016 260.927948,315.378784 
	C263.854462,316.401520 266.492218,317.980255 266.035492,321.781677 
	C265.561310,325.728394 262.829010,327.403137 259.290161,328.032410 
	C252.116226,329.308044 248.228271,327.238220 244.567764,320.476746 
	C241.891266,320.476746 239.335022,320.476746 235.748398,320.476746 
	C237.222839,323.675232 237.955780,326.476715 239.585037,328.585785 
	C245.977661,336.860931 262.739044,337.917664 270.388885,330.751099 
	C276.699921,324.838776 275.650879,315.084991 268.004608,310.997559 
	C264.820343,309.295380 261.187286,308.432648 257.758362,307.188049 
	C254.957962,306.171600 251.874176,305.584717 249.455353,303.989594 
	C247.798981,302.897247 246.002701,300.276276 246.202728,298.564606 
	C246.435776,296.570099 248.395035,294.099609 250.276260,293.105438 
	C255.419144,290.387634 261.013672,292.159088 264.985229,297.725708 
M336.958008,196.097458 
	C332.090271,196.819260 327.003815,196.894043 322.416168,198.444565 
	C317.815063,199.999634 315.025208,203.812073 314.871429,209.174530 
	C314.714050,214.663101 317.161652,218.483063 321.855194,220.844955 
	C324.505768,222.178772 327.423798,222.989914 330.240143,223.983215 
	C333.527985,225.142822 336.973480,225.956192 340.100708,227.444733 
	C343.927155,229.266129 344.270630,234.160858 341.072388,236.949860 
	C336.716095,240.748718 326.604889,239.972336 324.059814,234.943100 
	C321.533661,229.951248 318.160645,230.846146 312.979218,231.802658 
	C314.735840,235.159836 315.721741,238.395370 317.763428,240.692535 
	C323.882050,247.576828 339.028900,248.529068 346.403625,242.873062 
	C354.206970,236.888367 353.629303,226.685425 345.075317,221.846390 
	C342.795898,220.556915 340.163940,219.868164 337.658447,219.006393 
	C334.358032,217.871185 330.901093,217.110062 327.730896,215.696091 
	C323.002167,213.586975 321.784363,209.484497 324.490051,206.069687 
	C328.174225,201.419952 339.522461,202.011597 341.445801,207.536072 
	C343.493347,213.417358 346.964569,211.619553 350.688995,211.179413 
	C350.670349,203.002960 347.289673,199.169785 336.958008,196.097458 
M295.901367,315.415710 
	C295.901367,308.010773 295.901367,300.605835 295.901367,292.759521 
	C300.530609,292.759521 304.427704,292.759521 308.197632,292.759521 
	C308.197632,290.234619 308.197632,288.181580 308.197632,285.667145 
	C303.892151,285.667145 299.979950,285.667145 295.709869,285.667145 
	C295.709869,281.429718 295.709869,277.662811 295.709869,273.809021 
	C292.788239,273.809021 290.251648,273.809021 287.285828,273.809021 
	C287.285828,277.964935 287.285828,281.727844 287.285828,285.627472 
	C285.144135,285.850677 283.416840,286.030701 281.767395,286.202606 
	C281.767395,288.682404 281.767395,290.745331 281.767395,292.879913 
	C283.738037,293.000610 285.354462,293.099640 287.407318,293.225372 
	C287.407318,295.449188 287.389435,297.407379 287.410431,299.365204 
	C287.499603,307.680969 287.330872,316.011383 287.783997,324.307617 
	C288.132385,330.685974 291.518738,334.048645 297.759827,334.778534 
	C301.163025,335.176544 304.651001,334.849579 308.336182,334.849579 
	C308.336182,332.490173 308.336182,330.411743 308.336182,328.169617 
	C307.295929,328.069916 306.494385,327.944397 305.690155,327.923462 
	C296.354431,327.680695 295.915131,327.234741 295.901550,317.883362 
	C295.900818,317.384155 295.901367,316.884949 295.901367,315.415710 
M446.424530,188.333328 
	C446.157867,191.094604 445.891174,193.855865 445.617920,196.685486 
	C443.689362,196.902817 442.087128,197.083359 440.385071,197.275162 
	C440.385071,199.601379 440.385071,201.643433 440.385071,203.702316 
	C442.360321,203.948883 443.959839,204.148544 446.185883,204.426422 
	C446.185883,218.339584 446.185883,232.048737 446.185883,245.657623 
	C449.115051,245.657623 451.373169,245.657623 454.157349,245.657623 
	C454.157349,231.748032 454.157349,218.168594 454.157349,204.317871 
	C458.039246,204.086227 461.413666,203.884872 464.643921,203.692108 
	C464.643921,201.224136 464.643921,199.305435 464.643921,197.189835 
	C461.051971,197.020401 457.799286,196.866974 454.631958,196.717575 
	C453.500397,188.409973 454.693970,186.728165 463.724365,183.371078 
	C463.724365,181.304474 463.724365,179.276703 463.724365,177.278458 
	C454.111816,176.869720 449.333008,179.841080 446.424530,188.333328 
M394.474213,285.802185 
	C391.320953,287.597168 388.167725,289.392151 385.028564,291.179108 
	C384.932068,289.647003 384.830078,288.027893 384.717438,286.239471 
	C381.940765,286.239471 379.378143,286.239471 376.665588,286.239471 
	C376.665588,302.568512 376.665588,318.622284 376.665588,334.697906 
	C379.497375,334.697906 382.055573,334.697906 384.907867,334.697906 
	C384.907867,326.409668 384.894897,318.455231 384.910797,310.500854 
	C384.937042,297.378937 387.389923,294.515625 400.356781,292.612183 
	C400.356781,290.210754 400.356781,287.780792 400.356781,284.872559 
	C398.452972,285.132721 396.851532,285.351593 394.474213,285.802185 
M225.912613,317.498627 
	C225.912613,307.064606 225.912613,296.630615 225.912613,286.166992 
	C222.799545,286.166992 220.348068,286.166992 217.644287,286.166992 
	C217.644287,302.457031 217.644287,318.541199 217.644287,334.721313 
	C220.462463,334.721313 223.022064,334.721313 225.912598,334.721313 
	C225.912598,329.105804 225.912598,323.801849 225.912613,317.498627 
M216.779785,273.931396 
	C218.782944,275.271118 220.675507,277.344208 222.831650,277.669342 
	C224.080521,277.857697 226.490433,275.492065 227.079849,273.818634 
	C228.244965,270.510681 226.541336,267.716003 223.078064,267.184052 
	C218.845413,266.533875 216.576569,268.851410 216.779785,273.931396 
z"/>
<path fill="#FAFAFA" opacity="1.000000" stroke="none" 
	d="
M96.000381,373.782959 
	C116.480576,373.784393 136.460632,373.772736 156.440628,373.795898 
	C162.174133,373.802551 165.112305,376.137726 164.998077,380.454163 
	C164.893188,384.417572 161.781647,386.881195 156.504578,386.886292 
	C120.868103,386.920837 85.231552,386.934814 49.595108,386.887421 
	C43.483826,386.879303 41.185127,384.452881 41.181355,378.347931 
	C41.159328,342.717468 41.158966,307.086975 41.175175,271.456512 
	C41.177788,265.712769 43.540092,262.784393 47.897449,262.911743 
	C52.120045,263.035126 54.166355,265.679993 54.170841,271.345032 
	C54.196171,303.318542 54.182560,335.292084 54.182232,367.265594 
	C54.182209,369.216034 54.182228,371.166473 54.182228,373.783051 
	C68.324333,373.783051 81.912277,373.783051 96.000381,373.782959 
z"/>
<path fill="#FBFBFB" opacity="1.000000" stroke="none" 
	d="
M564.218628,258.515259 
	C557.637207,258.999420 555.271606,256.799683 555.242676,250.149994 
	C555.166504,232.658813 555.219299,215.167068 555.219971,197.675552 
	C555.220581,181.358994 555.220154,165.042435 555.220154,148.067047 
	C553.248535,148.067047 551.489197,148.067368 549.729858,148.066986 
	C518.086487,148.060257 486.443085,148.053726 454.799683,148.045547 
	C453.467163,148.045197 452.122009,148.144028 450.804535,147.998810 
	C446.909149,147.569397 444.740936,145.283585 444.749176,141.412811 
	C444.757080,137.702606 447.142395,135.729416 450.602112,135.075623 
	C451.891632,134.831955 453.259827,134.989990 454.592163,134.989685 
	C489.239014,134.981842 523.885864,134.974030 558.532715,134.974579 
	C566.777710,134.974701 568.286255,136.451508 568.286682,144.467133 
	C568.288391,179.766373 568.265930,215.065643 568.320007,250.364807 
	C568.325195,253.722656 568.011536,256.712494 564.218628,258.515259 
z"/>
<path fill="#B7B7B7" opacity="1.000000" stroke="none" 
	d="
M194.969543,320.006836 
	C194.969543,315.537262 194.969543,311.565338 194.969543,307.306152 
	C184.446045,307.306152 174.223785,307.306152 163.637512,307.306152 
	C163.637512,316.457733 163.637512,325.402191 163.637512,334.677338 
	C160.743149,334.677338 158.199631,334.677338 155.395966,334.677338 
	C155.395966,313.991425 155.395966,293.389099 155.395966,272.385193 
	C157.889343,272.385193 160.446518,272.385193 163.568909,272.385193 
	C163.568909,281.323547 163.568909,290.398590 163.568909,299.693573 
	C174.216125,299.693573 184.307922,299.693573 194.903107,299.693573 
	C194.903107,290.527374 194.903107,281.459381 194.903107,272.193909 
	C197.839554,272.193909 200.276489,272.193909 202.958603,272.193909 
	C202.958603,293.035065 202.958603,313.800415 202.958603,334.791016 
	C200.467377,334.791016 198.026733,334.791016 194.969543,334.791016 
	C194.969543,330.047485 194.969543,325.276001 194.969543,320.006836 
z"/>
<path fill="#992513" opacity="1.000000" stroke="none" 
	d="
M149.809052,244.578171 
	C147.225601,245.466812 144.726074,245.905258 141.675888,246.440323 
	C141.675888,225.049362 141.675888,204.382263 141.675888,183.344330 
	C144.226654,183.344330 146.765793,183.344330 149.830963,183.344330 
	C149.830963,192.392700 149.830963,201.306381 149.830963,210.573120 
	C160.376785,210.573120 170.411102,210.573120 180.975311,210.573120 
	C180.975311,201.507050 180.975311,192.603409 180.975311,183.342804 
	C184.039871,183.342804 186.585617,183.342804 189.457916,183.342804 
	C189.457916,204.046860 189.457916,224.606628 189.457916,245.595490 
	C186.872040,245.595490 184.331985,245.595490 181.292648,245.595490 
	C181.292648,236.716171 181.292648,227.796402 181.292648,218.453308 
	C170.778564,218.453308 160.741287,218.453308 149.892975,218.453308 
	C149.892975,226.970047 149.892975,235.549026 149.809052,244.578171 
z"/>
<path fill="#EFD97A" opacity="1.000000" stroke="none" 
	d="
M300.742828,224.065231 
	C289.126007,224.065262 277.977631,224.065262 266.850952,224.065262 
	C266.370148,230.852600 269.162964,235.446533 275.145844,238.017258 
	C281.427185,240.716248 289.648987,239.663986 292.945038,234.579681 
	C295.777649,230.210251 299.088074,229.738358 303.394501,230.592209 
	C302.848053,239.851730 292.443512,247.138062 280.731232,246.415390 
	C265.914215,245.501144 256.782776,234.104858 258.080658,218.146896 
	C259.252258,203.741547 269.918091,194.877792 284.696686,196.027847 
	C298.277313,197.084686 306.252014,207.879761 304.856110,223.749939 
	C303.690491,223.850754 302.450867,223.957977 300.742828,224.065231 
M269.073486,216.995743 
	C278.312469,216.995743 287.551483,216.995743 296.814819,216.995743 
	C296.247131,208.540253 291.221252,203.602585 283.083832,203.050964 
	C275.118713,202.511017 268.347870,207.001801 266.915192,213.996048 
	C266.736267,214.869492 267.749878,215.987228 269.073486,216.995743 
z"/>
<path fill="#B7B7B7" opacity="1.000000" stroke="none" 
	d="
M356.805603,329.846436 
	C346.633301,336.986786 334.546509,337.302795 325.791046,330.879425 
	C317.707123,324.948730 314.156128,312.848602 317.317505,302.005707 
	C320.796448,290.073608 332.684692,282.990356 345.475769,285.228455 
	C358.000610,287.419983 366.112549,297.926483 365.506897,311.101349 
	C365.170776,318.413147 362.698669,324.721680 356.805603,329.846436 
M329.495239,324.029144 
	C332.440948,325.399475 335.279602,327.601288 338.350861,327.996826 
	C351.987671,329.753052 360.967529,316.764771 356.041290,302.827637 
	C353.613220,295.958160 347.693634,291.873627 340.385376,292.024963 
	C333.117798,292.175446 327.143524,296.528717 325.461884,303.673737 
	C323.820251,310.648895 323.992981,317.562714 329.495239,324.029144 
z"/>
<path fill="#357BC6" opacity="1.000000" stroke="none" 
	d="
M389.315094,205.404022 
	C397.622864,196.100525 408.776306,193.404816 419.361328,197.906418 
	C428.861023,201.946472 434.405609,211.376312 433.822601,222.501038 
	C433.231232,233.785049 426.626465,242.662216 416.265747,245.431412 
	C406.564026,248.024475 397.480133,246.530334 390.712708,238.665390 
	C383.270569,230.016281 382.808502,219.984268 386.917328,209.609756 
	C387.462830,208.232407 388.361206,206.994827 389.315094,205.404022 
M399.328064,236.374588 
	C407.926636,241.339233 417.272980,239.714096 422.277802,232.384064 
	C427.741333,224.382156 426.049042,211.633774 418.796112,206.155502 
	C410.631836,199.988861 398.547455,203.096786 394.429352,212.422318 
	C391.042114,220.092621 392.809448,229.772720 399.328064,236.374588 
z"/>
<path fill="#BF6A28" opacity="1.000000" stroke="none" 
	d="
M241.998764,196.972092 
	C244.265823,197.152206 246.681763,196.170441 246.672394,199.540787 
	C246.629913,214.828674 246.653778,230.116730 246.653778,245.714600 
	C243.654205,245.714600 241.098679,245.714600 238.332199,245.714600 
	C238.186951,243.909958 238.056229,242.286102 237.879776,240.093826 
	C232.357574,244.854462 226.410690,247.495682 219.191589,246.293884 
	C209.924728,244.751190 203.652817,239.332840 203.004456,230.012360 
	C202.257889,219.280121 202.831055,208.456055 202.831055,197.321259 
	C205.280533,197.321259 207.820007,197.321259 210.911972,197.321259 
	C210.911972,204.568146 210.905807,211.682617 210.915298,218.797043 
	C210.918640,221.294479 210.857391,223.797913 211.003677,226.288147 
	C211.477448,234.352356 216.242355,239.063171 223.937271,239.185989 
	C232.213470,239.318069 237.480453,234.686523 237.910919,226.234985 
	C238.283188,218.925964 238.053131,211.586243 238.087265,204.260086 
	C238.093460,202.927963 238.210968,201.582352 238.065155,200.266464 
	C237.763733,197.546448 239.048965,196.657715 241.998764,196.972092 
z"/>
<path fill="#B6B6B6" opacity="1.000000" stroke="none" 
	d="
M422.108398,338.740173 
	C422.286865,335.712280 423.126892,332.774536 422.256409,330.487915 
	C417.173401,317.135742 411.683533,303.938629 406.349548,290.681702 
	C405.746277,289.182312 405.259125,287.636169 404.702087,286.066467 
	C412.980621,284.527161 412.986938,284.524750 415.605957,291.358948 
	C419.764069,302.209351 423.912781,313.063324 428.472137,324.978546 
	C429.524109,322.563049 430.254547,321.056061 430.847382,319.496796 
	C434.390350,310.178070 437.892395,300.843842 441.426666,291.521790 
	C443.965363,284.825623 443.978210,284.830475 451.948853,285.947968 
	C442.201569,310.007690 432.498810,333.957428 422.818268,357.852417 
	C420.025879,357.852417 417.553894,357.852417 414.469971,357.852417 
	C417.065826,351.381165 419.522797,345.256134 422.108398,338.740173 
z"/>
<path fill="#B7B7B7" opacity="1.000000" stroke="none" 
	d="
M264.866150,297.355591 
	C261.013672,292.159088 255.419144,290.387634 250.276260,293.105438 
	C248.395035,294.099609 246.435776,296.570099 246.202728,298.564606 
	C246.002701,300.276276 247.798981,302.897247 249.455353,303.989594 
	C251.874176,305.584717 254.957962,306.171600 257.758362,307.188049 
	C261.187286,308.432648 264.820343,309.295380 268.004608,310.997559 
	C275.650879,315.084991 276.699921,324.838776 270.388885,330.751099 
	C262.739044,337.917664 245.977661,336.860931 239.585037,328.585785 
	C237.955780,326.476715 237.222839,323.675232 235.748398,320.476746 
	C239.335022,320.476746 241.891266,320.476746 244.567764,320.476746 
	C248.228271,327.238220 252.116226,329.308044 259.290161,328.032410 
	C262.829010,327.403137 265.561310,325.728394 266.035492,321.781677 
	C266.492218,317.980255 263.854462,316.401520 260.927948,315.378784 
	C256.384613,313.791016 251.679001,312.656738 247.167908,310.989960 
	C240.363022,308.475586 237.224411,304.035309 237.543152,298.012848 
	C237.832962,292.536438 241.637817,287.455383 248.038635,286.210571 
	C252.933258,285.258698 258.333282,285.220062 263.203186,286.237000 
	C269.866241,287.628448 272.963440,292.471802 273.614197,300.136749 
	C270.615631,299.442108 266.811615,302.961914 264.866150,297.355591 
z"/>
<path fill="#527629" opacity="1.000000" stroke="none" 
	d="
M337.381470,196.159286 
	C347.289673,199.169785 350.670349,203.002960 350.688995,211.179413 
	C346.964569,211.619553 343.493347,213.417358 341.445801,207.536072 
	C339.522461,202.011597 328.174225,201.419952 324.490051,206.069687 
	C321.784363,209.484497 323.002167,213.586975 327.730896,215.696091 
	C330.901093,217.110062 334.358032,217.871185 337.658447,219.006393 
	C340.163940,219.868164 342.795898,220.556915 345.075317,221.846390 
	C353.629303,226.685425 354.206970,236.888367 346.403625,242.873062 
	C339.028900,248.529068 323.882050,247.576828 317.763428,240.692535 
	C315.721741,238.395370 314.735840,235.159836 312.979218,231.802658 
	C318.160645,230.846146 321.533661,229.951248 324.059814,234.943100 
	C326.604889,239.972336 336.716095,240.748718 341.072388,236.949860 
	C344.270630,234.160858 343.927155,229.266129 340.100708,227.444733 
	C336.973480,225.956192 333.527985,225.142822 330.240143,223.983215 
	C327.423798,222.989914 324.505768,222.178772 321.855194,220.844955 
	C317.161652,218.483063 314.714050,214.663101 314.871429,209.174530 
	C315.025208,203.812073 317.815063,199.999634 322.416168,198.444565 
	C327.003815,196.894043 332.090271,196.819260 337.381470,196.159286 
z"/>
<path fill="#B1B1B1" opacity="1.000000" stroke="none" 
	d="
M295.901367,315.900726 
	C295.901367,316.884949 295.900818,317.384155 295.901550,317.883362 
	C295.915131,327.234741 296.354431,327.680695 305.690155,327.923462 
	C306.494385,327.944397 307.295929,328.069916 308.336182,328.169617 
	C308.336182,330.411743 308.336182,332.490173 308.336182,334.849579 
	C304.651001,334.849579 301.163025,335.176544 297.759827,334.778534 
	C291.518738,334.048645 288.132385,330.685974 287.783997,324.307617 
	C287.330872,316.011383 287.499603,307.680969 287.410431,299.365204 
	C287.389435,297.407379 287.407318,295.449188 287.407318,293.225372 
	C285.354462,293.099640 283.738037,293.000610 281.767395,292.879913 
	C281.767395,290.745331 281.767395,288.682404 281.767395,286.202606 
	C283.416840,286.030701 285.144135,285.850677 287.285828,285.627472 
	C287.285828,281.727844 287.285828,277.964935 287.285828,273.809021 
	C290.251648,273.809021 292.788239,273.809021 295.709869,273.809021 
	C295.709869,277.662811 295.709869,281.429718 295.709869,285.667145 
	C299.979950,285.667145 303.892151,285.667145 308.197632,285.667145 
	C308.197632,288.181580 308.197632,290.234619 308.197632,292.759521 
	C304.427704,292.759521 300.530609,292.759521 295.901367,292.759521 
	C295.901367,300.605835 295.901367,308.010773 295.901367,315.900726 
z"/>
<path fill="#521279" opacity="1.000000" stroke="none" 
	d="
M446.560181,187.946289 
	C449.333008,179.841080 454.111816,176.869720 463.724365,177.278458 
	C463.724365,179.276703 463.724365,181.304474 463.724365,183.371078 
	C454.693970,186.728165 453.500397,188.409973 454.631958,196.717575 
	C457.799286,196.866974 461.051971,197.020401 464.643921,197.189835 
	C464.643921,199.305435 464.643921,201.224136 464.643921,203.692108 
	C461.413666,203.884872 458.039246,204.086227 454.157349,204.317871 
	C454.157349,218.168594 454.157349,231.748032 454.157349,245.657623 
	C451.373169,245.657623 449.115051,245.657623 446.185883,245.657623 
	C446.185883,232.048737 446.185883,218.339584 446.185883,204.426422 
	C443.959839,204.148544 442.360321,203.948883 440.385071,203.702316 
	C440.385071,201.643433 440.385071,199.601379 440.385071,197.275162 
	C442.087128,197.083359 443.689362,196.902817 445.617920,196.685486 
	C445.891174,193.855865 446.157867,191.094604 446.560181,187.946289 
z"/>
<path fill="#B0B0B0" opacity="1.000000" stroke="none" 
	d="
M394.862152,285.686340 
	C396.851532,285.351593 398.452972,285.132721 400.356781,284.872559 
	C400.356781,287.780792 400.356781,290.210754 400.356781,292.612183 
	C387.389923,294.515625 384.937042,297.378937 384.910797,310.500854 
	C384.894897,318.455231 384.907867,326.409668 384.907867,334.697906 
	C382.055573,334.697906 379.497375,334.697906 376.665588,334.697906 
	C376.665588,318.622284 376.665588,302.568512 376.665588,286.239471 
	C379.378143,286.239471 381.940765,286.239471 384.717438,286.239471 
	C384.830078,288.027893 384.932068,289.647003 385.028564,291.179108 
	C388.167725,289.392151 391.320953,287.597168 394.862152,285.686340 
z"/>
<path fill="#AEAEAE" opacity="1.000000" stroke="none" 
	d="
M225.912598,317.998230 
	C225.912598,323.801849 225.912598,329.105804 225.912598,334.721313 
	C223.022064,334.721313 220.462463,334.721313 217.644287,334.721313 
	C217.644287,318.541199 217.644287,302.457031 217.644287,286.166992 
	C220.348068,286.166992 222.799545,286.166992 225.912613,286.166992 
	C225.912613,296.630615 225.912613,307.064606 225.912598,317.998230 
z"/>
<path fill="#B6B6B6" opacity="1.000000" stroke="none" 
	d="
M216.696960,273.574402 
	C216.576569,268.851410 218.845413,266.533875 223.078064,267.184052 
	C226.541336,267.716003 228.244965,270.510681 227.079849,273.818634 
	C226.490433,275.492065 224.080521,277.857697 222.831650,277.669342 
	C220.675507,277.344208 218.782944,275.271118 216.696960,273.574402 
z"/>
<path fill="#040402" opacity="1.000000" stroke="none" 
	d="
M268.642212,216.993744 
	C267.749878,215.987228 266.736267,214.869492 266.915192,213.996048 
	C268.347870,207.001801 275.118713,202.511017 283.083832,203.050964 
	C291.221252,203.602585 296.247131,208.540253 296.814819,216.995743 
	C287.551483,216.995743 278.312469,216.995743 268.642212,216.993744 
z"/>
<path fill="#020202" opacity="1.000000" stroke="none" 
	d="
M329.238770,323.756958 
	C323.992981,317.562714 323.820251,310.648895 325.461884,303.673737 
	C327.143524,296.528717 333.117798,292.175446 340.385376,292.024963 
	C347.693634,291.873627 353.613220,295.958160 356.041290,302.827637 
	C360.967529,316.764771 351.987671,329.753052 338.350861,327.996826 
	C335.279602,327.601288 332.440948,325.399475 329.238770,323.756958 
z"/>
<path fill="#010102" opacity="1.000000" stroke="none" 
	d="
M399.024170,236.149811 
	C392.809448,229.772720 391.042114,220.092621 394.429352,212.422318 
	C398.547455,203.096786 410.631836,199.988861 418.796112,206.155502 
	C426.049042,211.633774 427.741333,224.382156 422.277802,232.384064 
	C417.272980,239.714096 407.926636,241.339233 399.024170,236.149811 
z"/>
</svg>