<svg version="1.1" id="Layer_1" xmlns="http://www.w3.org/2000/svg" xmlns:xlink="http://www.w3.org/1999/xlink" x="0px" y="0px"
	 width="100%" viewBox="0 0 1920 1080" enable-background="new 0 0 1920 1080" xml:space="preserve">
<path fill="#000000" opacity="1.000000" stroke="none" 
	d="
M1224.000000,1081.000000 
	C816.000061,1081.000000 408.500153,1081.000000 1.000164,1081.000000 
	C1.000109,721.000122 1.000109,361.000275 1.000055,1.000309 
	C640.999756,1.000206 1280.999512,1.000206 1920.999512,1.000103 
	C1920.999634,360.999664 1920.999634,720.999329 1920.999756,1080.999512 
	C1688.833374,1081.000000 1456.666626,1081.000000 1224.000000,1081.000000 
M341.963257,572.500122 
	C341.963348,542.683472 341.951843,512.866821 341.975677,483.050201 
	C341.979401,478.393555 341.239624,474.009705 337.355988,470.943542 
	C333.669189,468.032776 329.411469,467.319031 325.174438,469.422852 
	C320.643951,471.672424 318.395172,475.535095 318.409332,480.732819 
	C318.460938,499.673889 318.435516,518.615234 318.433075,537.556458 
	C318.427063,584.235718 318.466034,630.915100 318.340790,677.594055 
	C318.327118,682.691406 319.510223,687.120911 324.008331,689.477112 
	C326.796570,690.937683 330.376556,691.425293 333.602844,691.431274 
	C392.952911,691.541443 452.303223,691.515869 511.653503,691.508606 
	C517.640015,691.507874 523.643616,691.712341 529.608704,691.336243 
	C537.455383,690.841553 542.056213,684.912537 540.890808,677.416504 
	C539.969482,671.490417 534.847168,667.914612 527.153687,667.913818 
	C467.906311,667.907959 408.658966,667.914917 349.411591,667.917908 
	C347.142517,667.918030 344.873444,667.917908 341.962433,667.917908 
	C341.962433,636.035645 341.962433,604.767944 341.963257,572.500122 
M1531.500000,360.035034 
	C1509.841797,360.035919 1488.183716,360.037323 1466.525513,360.037567 
	C1442.201782,360.037842 1417.877808,360.003815 1393.554199,360.053680 
	C1384.236328,360.072784 1378.938110,365.607452 1380.053101,373.919067 
	C1380.876953,380.059906 1386.130005,383.803741 1394.039673,383.804382 
	C1453.285645,383.809296 1512.531616,383.801666 1571.777588,383.797974 
	C1574.020630,383.797852 1576.263550,383.797974 1579.018188,383.797974 
	C1579.018188,386.382416 1579.018188,388.180664 1579.018188,389.978912 
	C1579.019043,414.136475 1579.022583,438.294006 1579.019897,462.451569 
	C1579.016235,497.771393 1579.022095,533.091187 1578.984619,568.411011 
	C1578.979736,573.069092 1579.652710,577.466064 1583.491821,580.577820 
	C1587.159912,583.550842 1591.405396,584.127136 1595.681763,582.147766 
	C1601.038574,579.668091 1602.558594,575.052246 1602.551514,569.413025 
	C1602.469727,504.649384 1602.286865,439.884521 1602.648193,375.122894 
	C1602.707886,364.404541 1596.143677,359.801514 1587.477295,359.946228 
	C1569.156128,360.252228 1550.826294,360.041931 1531.500000,360.035034 
M507.209503,425.579041 
	C507.209503,423.503662 507.209503,421.428284 507.209503,419.296143 
	C501.776459,419.296143 497.187042,419.296143 492.338379,419.296143 
	C492.338379,457.316772 492.338379,495.056976 492.338379,533.243774 
	C497.207336,533.243774 501.917358,533.243774 507.209442,533.243774 
	C507.209442,531.247009 507.209442,529.460022 507.209473,527.672974 
	C507.209717,514.013733 507.312897,500.353180 507.142548,486.696045 
	C507.096375,482.994690 508.265656,481.812073 512.009277,481.853333 
	C528.331726,482.033142 544.657410,481.920776 560.981812,481.950317 
	C562.240295,481.952606 563.498230,482.232208 565.030396,482.415710 
	C565.030396,496.585785 565.030396,510.394958 565.030396,524.204163 
	C565.030396,533.726257 565.035950,533.523560 574.547363,533.783020 
	C578.750000,533.897644 580.286377,533.003357 580.258301,528.365601 
	C580.049133,493.718964 580.147644,459.070496 580.134521,424.422607 
	C580.133911,422.802887 579.988770,421.183197 579.900818,419.352722 
	C574.860535,419.352722 570.149231,419.352722 564.900024,419.352722 
	C564.900024,436.248047 564.900024,452.813354 564.900024,469.476318 
	C563.751221,469.643799 563.115540,469.816742 562.479675,469.817505 
	C545.488953,469.837463 528.497375,469.750275 511.508209,469.913940 
	C507.716583,469.950470 507.139221,468.217468 507.165710,465.042358 
	C507.272705,452.216858 507.209930,439.389984 507.209503,425.579041 
M765.500000,493.983765 
	C774.619873,493.983765 783.739746,493.983765 793.645752,493.983765 
	C793.645752,490.050903 793.742798,486.579071 793.630005,483.114136 
	C792.892273,460.453796 778.266479,444.428375 755.991516,441.812958 
	C733.134399,439.129181 713.985229,451.568695 708.323669,472.964294 
	C705.719666,482.805237 705.569702,492.796021 708.371826,502.601074 
	C713.183838,519.439026 724.049194,530.399048 741.449158,533.500183 
	C758.805542,536.593384 774.365112,532.865784 785.570984,518.037659 
	C788.263733,514.474548 789.890442,510.105865 792.499939,505.177521 
	C786.714294,505.177521 782.408630,505.048859 778.120850,505.269104 
	C777.064392,505.323364 775.595215,506.273376 775.112671,507.218445 
	C768.736511,519.708008 757.845398,522.444458 745.184387,521.064514 
	C731.244019,519.545105 721.328369,507.946289 722.160950,493.983765 
	C736.251404,493.983765 750.375732,493.983765 765.500000,493.983765 
M1306.285767,528.832458 
	C1326.745972,516.665955 1334.862915,492.346527 1326.134399,469.363647 
	C1318.424438,449.062866 1296.967163,437.942627 1274.039429,442.365112 
	C1247.875000,447.411926 1232.774536,473.138947 1239.669312,500.922577 
	C1246.814819,529.716736 1277.752686,542.941956 1306.285767,528.832458 
M944.689636,463.188873 
	C934.705139,482.198608 936.658081,505.954041 949.960815,520.202698 
	C963.100830,534.276917 979.637695,537.603271 997.580200,532.392151 
	C1016.203674,526.983093 1026.479370,513.752441 1029.355225,494.650116 
	C1032.664062,472.671906 1021.289612,452.105530 1001.599792,444.584900 
	C980.240479,436.426605 957.232971,443.731812 944.689636,463.188873 
M1418.755737,443.214966 
	C1415.236450,442.619934 1414.267090,444.102905 1414.312622,447.598450 
	C1414.501831,462.094055 1414.484375,476.594574 1414.330688,491.091034 
	C1414.286865,495.224701 1413.954102,499.450378 1413.016846,503.461639 
	C1410.230469,515.387939 1401.137573,521.637634 1387.687256,521.320129 
	C1375.450684,521.031311 1366.972900,514.218872 1364.972900,502.311859 
	C1364.043457,496.777771 1364.053833,491.052612 1364.002808,485.410767 
	C1363.876953,471.473877 1363.961426,457.535095 1363.961426,443.458008 
	C1358.657227,443.458008 1353.918945,443.458008 1349.043091,443.458008 
	C1349.043091,463.338806 1347.736572,483.084991 1349.358032,502.587799 
	C1351.629639,529.909729 1382.196655,543.695496 1405.386475,528.877075 
	C1408.370605,526.970215 1410.893066,524.340698 1414.293945,521.488708 
	C1414.293945,525.754822 1414.293945,529.309326 1414.293945,533.118164 
	C1419.726318,533.118164 1424.631226,533.118164 1429.458496,533.118164 
	C1429.458496,503.060089 1429.458496,473.322266 1429.458496,443.215027 
	C1425.968506,443.215027 1422.827393,443.215027 1418.755737,443.214966 
M687.078003,451.557556 
	C687.078003,448.938965 687.078003,446.320343 687.078003,443.499817 
	C681.805786,443.499817 677.082031,443.499817 671.945374,443.499817 
	C671.945374,445.595398 671.946106,447.399963 671.945251,449.204498 
	C671.937927,464.201202 672.134888,479.201508 671.869324,494.193634 
	C671.559937,511.657349 662.123596,521.348389 646.045288,521.283325 
	C630.461243,521.220276 621.885010,511.795654 621.467468,494.261963 
	C621.431763,492.763031 621.451721,491.262756 621.451599,489.763092 
	C621.450806,476.099396 621.460693,462.435699 621.439819,448.772034 
	C621.437134,447.003326 621.277893,445.234924 621.195740,443.559448 
	C615.886353,443.559448 611.137695,443.559448 606.070557,443.559448 
	C606.070557,460.894623 606.064026,477.869904 606.078552,494.845154 
	C606.080444,497.009796 606.040100,499.191040 606.275452,501.336517 
	C609.340088,529.276123 638.969971,543.903320 662.518799,529.021240 
	C665.775574,526.963013 668.527100,524.105408 672.006531,521.206360 
	C672.006531,525.489380 672.006531,529.242676 672.006531,533.240112 
	C677.154785,533.240112 681.904480,533.240112 687.078064,533.240112 
	C687.078064,506.145660 687.078064,479.345123 687.078003,451.557556 
M845.588013,494.848022 
	C849.515869,496.188202 853.557068,497.268402 857.348022,498.922394 
	C865.319824,502.400543 866.594910,510.770111 860.143799,516.686035 
	C853.906311,522.405884 846.318787,521.781433 838.869995,520.535400 
	C832.197327,519.419067 827.342712,515.664185 825.016357,509.001617 
	C824.641785,507.928894 823.522522,506.385803 822.669250,506.333374 
	C818.272217,506.063171 813.849731,506.207977 809.196350,506.207977 
	C809.045227,512.973938 811.210388,518.071716 815.073914,522.424194 
	C827.209412,536.095459 852.980957,538.951782 867.869934,528.234009 
	C875.086060,523.039551 879.271484,515.966431 878.602539,506.910767 
	C877.887939,497.238098 871.885925,491.239075 863.299316,487.704559 
	C858.852356,485.874023 854.185059,484.580841 849.624207,483.024811 
	C844.282288,481.202332 838.806274,479.683014 833.648315,477.435669 
	C828.006775,474.977631 825.319885,470.514252 826.022034,465.795319 
	C826.855835,460.191772 830.586609,457.161163 835.744080,455.585236 
	C848.397583,451.718781 857.688538,456.519989 863.075500,469.921295 
	C866.779663,469.921295 870.597839,469.871674 874.414001,469.937897 
	C877.176758,469.985840 877.852905,468.658173 877.401489,466.140564 
	C876.023865,458.458435 872.967957,451.744812 866.053589,447.561768 
	C852.040771,439.084473 837.597839,439.146820 823.304565,446.570099 
	C815.235046,450.760956 810.430542,457.775848 810.461487,467.103424 
	C810.492493,476.461060 815.259155,483.449432 823.677368,487.212738 
	C830.469666,490.249207 837.744690,492.205963 845.588013,494.848022 
M1187.228027,468.564789 
	C1185.967285,470.994446 1184.706421,473.424103 1183.063843,476.589539 
	C1181.772339,474.227905 1180.868530,472.708130 1180.088013,471.127441 
	C1172.272827,455.300507 1164.506348,439.449493 1156.632446,423.651886 
	C1155.872559,422.127106 1154.581543,419.859406 1153.367798,419.745911 
	C1148.537476,419.294342 1143.640381,419.559937 1138.599487,419.559937 
	C1138.882812,420.701050 1138.901489,421.056122 1139.051636,421.342041 
	C1146.250732,435.044006 1152.595703,449.290649 1160.877197,462.304901 
	C1172.698853,480.882538 1178.093750,500.465149 1175.459961,522.324829 
	C1175.033813,525.862610 1175.400146,529.495850 1175.400146,533.150391 
	C1180.928955,533.150391 1185.696167,533.150391 1190.815918,533.150391 
	C1190.815918,520.231140 1190.690552,507.593079 1190.911743,494.961060 
	C1190.961670,492.110565 1191.699951,489.014313 1193.001953,486.484253 
	C1203.583984,465.921967 1214.378540,445.469055 1225.096802,424.976715 
	C1225.915161,423.412170 1226.642822,421.800201 1227.757446,419.498108 
	C1223.101196,419.498108 1219.144165,419.708527 1215.221558,419.430176 
	C1212.198120,419.215637 1210.845093,420.527283 1209.607300,423.089996 
	C1202.368652,438.078033 1194.958374,452.983215 1187.228027,468.564789 
M1067.072998,466.539886 
	C1067.072998,463.438477 1067.072998,460.337067 1067.072998,456.791107 
	C1072.627563,456.791107 1077.447754,456.547516 1082.232788,456.854187 
	C1087.920654,457.218719 1086.637573,453.300659 1086.739502,450.169189 
	C1086.844238,446.956818 1087.344360,443.664001 1082.164307,444.051331 
	C1077.270142,444.417328 1072.327148,444.129913 1067.091309,444.129913 
	C1067.091309,441.307892 1066.993408,439.324554 1067.108032,437.353577 
	C1067.633545,428.308777 1070.643311,424.407257 1078.390747,422.595276 
	C1085.907349,420.837280 1085.921509,420.836914 1085.735718,412.796417 
	C1085.709839,411.673981 1085.465820,410.556519 1085.277466,409.082031 
	C1076.958374,408.771667 1069.135010,409.760040 1062.199219,414.271332 
	C1051.374634,421.311920 1052.117188,432.822357 1051.764282,444.202271 
	C1048.014648,444.202271 1044.763794,444.202271 1041.355591,444.202271 
	C1041.355591,448.612000 1041.355591,452.477753 1041.355591,456.537964 
	C1044.983887,456.728821 1048.231689,456.899628 1052.117798,457.104034 
	C1052.117798,482.871124 1052.117798,508.247589 1052.117798,534.062622 
	C1055.920288,534.062622 1059.086304,533.792358 1062.186401,534.128967 
	C1066.334961,534.579407 1067.176514,532.795288 1067.147339,529.004028 
	C1066.989868,508.512756 1067.072876,488.019623 1067.072998,466.539886 
M1346.350342,615.299744 
	C1346.350342,617.097168 1346.350342,618.894592 1346.350342,620.847656 
	C1348.298828,620.847656 1349.746338,620.847656 1351.692383,620.847656 
	C1351.692383,615.356384 1351.578247,610.057983 1351.722168,604.766541 
	C1351.890625,598.567261 1354.746216,595.307129 1359.663818,595.336182 
	C1364.556396,595.365112 1367.187012,598.568665 1367.320435,604.955994 
	C1367.430420,610.222046 1367.342896,615.492310 1367.342896,620.785645 
	C1369.408691,620.785645 1370.834961,620.785645 1372.768921,620.785645 
	C1372.768921,614.893982 1372.585571,609.254211 1372.821533,603.632019 
	C1373.048340,598.231567 1376.153076,595.234802 1380.803711,595.344482 
	C1385.298828,595.450378 1388.000977,598.269409 1388.235352,603.601746 
	C1388.468994,608.917358 1388.358398,614.247681 1388.444336,619.570862 
	C1388.451172,619.995850 1388.812622,620.415039 1389.119629,621.073608 
	C1390.540039,620.965637 1391.946289,620.858704 1393.332397,620.753296 
	C1393.332397,613.934937 1393.846558,607.421936 1393.203857,601.025330 
	C1392.378052,592.808594 1384.374756,588.575378 1376.915405,591.984070 
	C1374.873901,592.916931 1373.176880,594.603943 1371.298950,595.961426 
	C1363.752075,589.717590 1360.591431,589.361145 1353.438721,593.210388 
	C1350.795166,592.096619 1348.958374,591.322754 1346.350464,590.223999 
	C1346.350464,599.079285 1346.350464,606.714111 1346.350342,615.299744 
M998.232056,611.493469 
	C998.189026,608.166321 998.349915,604.821411 998.062317,601.515564 
	C997.371826,593.576843 990.000061,588.861755 982.559021,591.747803 
	C980.088562,592.705933 978.006775,594.666077 975.734009,596.176880 
	C969.831665,590.002197 965.868530,589.496582 958.049438,593.221863 
	C955.426880,592.118896 953.639648,591.367249 951.420044,590.433777 
	C951.420044,601.281555 951.420044,611.023315 951.420044,621.029480 
	C953.152588,620.944092 954.581055,620.873657 956.243774,620.791626 
	C956.243774,615.335754 956.118225,610.181702 956.275635,605.036316 
	C956.471619,598.629089 959.528687,595.157104 964.547058,595.274597 
	C969.450928,595.389404 972.030701,598.636963 972.113342,604.989258 
	C972.181824,610.256104 972.127319,615.524597 972.127319,621.066284 
	C974.183228,620.945190 975.603699,620.861511 977.345093,620.758972 
	C977.345093,614.800293 977.078064,609.135498 977.421875,603.507935 
	C977.750549,598.126770 981.031677,595.147522 985.585632,595.277893 
	C990.202576,595.410034 992.934143,598.491821 993.080017,604.030273 
	C993.215759,609.185547 993.138550,614.346252 993.196228,619.504089 
	C993.201172,619.944153 993.516052,620.380798 993.774963,621.044739 
	C995.214783,620.946350 996.626709,620.849915 998.231934,620.740234 
	C998.231934,617.756104 998.231934,615.101257 998.232056,611.493469 
M503.965149,609.480652 
	C505.975769,595.849182 496.478882,589.986023 488.877747,591.142578 
	C485.749115,591.618591 482.818176,593.393860 479.588806,594.659851 
	C479.396790,593.744385 479.135864,592.500549 478.865997,591.213989 
	C477.382538,591.213989 475.948425,591.213989 474.373108,591.213989 
	C474.373108,605.859436 474.373108,620.270264 474.373108,634.816223 
	C476.064575,634.816223 477.510956,634.816223 479.511719,634.816223 
	C479.511719,628.784241 479.511719,622.950256 479.511719,616.794983 
	C491.047546,624.044434 499.458099,621.601440 503.965149,609.480652 
M1501.015137,586.625610 
	C1501.015137,584.843140 1501.015137,583.060669 1501.015137,581.254578 
	C1499.096924,581.254578 1497.704224,581.254578 1495.961548,581.254578 
	C1495.961548,586.081177 1495.961548,590.658325 1495.961548,595.458374 
	C1488.195801,590.244263 1482.294067,589.695190 1476.919922,593.481018 
	C1472.107422,596.871155 1469.329956,603.861084 1471.539551,609.949463 
	C1476.316406,623.111633 1485.036987,623.802063 1495.848145,616.591675 
	C1495.952637,618.014404 1496.054688,619.403748 1496.152466,620.735352 
	C1497.922119,620.735352 1499.325439,620.735352 1501.015137,620.735352 
	C1501.015137,609.507935 1501.015137,598.552368 1501.015137,586.625610 
M760.533936,592.175903 
	C759.241577,591.803345 757.584351,590.766296 756.748535,591.225220 
	C755.686829,591.808228 755.291260,593.604370 754.603088,594.887573 
	C746.866943,589.564392 739.401428,589.760986 734.269592,595.346741 
	C729.397095,600.650146 729.217957,610.399109 733.888184,616.100769 
	C738.883240,622.199036 745.796448,622.531494 755.108459,616.938232 
	C755.007019,620.867310 756.840881,621.952332 760.596069,620.415894 
	C760.596069,611.336182 760.596069,602.200317 760.533936,592.175903 
M849.882324,590.196167 
	C849.882324,587.234619 849.882324,584.273132 849.882324,581.184814 
	C847.945679,581.184814 846.498169,581.184814 845.005737,581.184814 
	C845.005737,594.491089 845.005737,607.591980 845.005737,620.768738 
	C846.656311,620.768738 848.077454,620.768738 849.888733,620.768738 
	C849.888733,615.388489 849.826965,610.250183 849.904419,605.113953 
	C850.000183,598.767761 852.805603,595.457397 858.068604,595.284363 
	C863.500916,595.105713 866.577026,598.503967 866.737793,605.142700 
	C866.862427,610.293396 866.762695,615.449585 866.762695,621.033691 
	C868.600403,620.924255 870.132629,620.833008 871.822632,620.732361 
	C871.822632,614.441895 872.103027,608.609985 871.759949,602.815063 
	C871.177490,592.976013 862.252686,588.056824 853.419556,592.475220 
	C852.440491,592.964905 851.534729,593.601074 850.089600,594.474915 
	C849.996155,592.948608 849.939331,592.021423 849.882324,590.196167 
M1024.423340,620.188965 
	C1026.361572,619.139343 1028.299805,618.089722 1030.389893,616.957947 
	C1030.715942,618.507324 1030.969727,619.713318 1031.209229,620.851501 
	C1032.832886,620.851501 1034.132202,620.851501 1035.623535,620.851501 
	C1035.717041,619.563904 1035.868530,618.428101 1035.871094,617.291931 
	C1035.891235,608.681946 1035.882080,600.072021 1035.882080,589.558777 
	C1032.909424,591.554260 1031.085449,592.778748 1029.369507,593.930664 
	C1026.908081,593.067444 1024.052124,591.499695 1021.049683,591.134094 
	C1015.299194,590.433838 1010.507019,592.720215 1007.746460,597.946655 
	C1004.643616,603.821289 1004.804138,609.886292 1008.675659,615.368042 
	C1012.320068,620.528137 1017.561218,621.984192 1024.423340,620.188965 
M901.902893,594.603333 
	C901.585815,594.509521 901.229004,594.480103 900.957520,594.312439 
	C893.028687,589.417847 885.715088,590.049133 880.927490,596.055969 
	C876.387939,601.751770 876.753113,611.447632 881.707153,616.751648 
	C886.834534,622.241272 893.985168,622.399353 901.410828,617.213196 
	C901.610107,617.073975 901.991638,617.195618 902.648804,617.195618 
	C902.062073,621.720398 904.579651,621.474487 907.571411,620.699951 
	C907.571411,610.632202 907.571411,600.922974 907.571411,591.267090 
	C904.914490,590.814392 902.464417,590.232178 901.902893,594.603333 
M590.071350,616.202881 
	C586.231995,615.014099 583.683044,612.840820 583.978882,608.024841 
	C591.702759,608.024841 599.300415,608.024841 606.820496,608.024841 
	C608.429993,599.637451 604.546326,593.266174 596.965515,591.372009 
	C589.036987,589.390991 581.123352,593.665222 579.105896,601.018372 
	C576.748779,609.609497 580.512817,617.604370 588.132019,620.190002 
	C596.096008,622.892639 603.542786,619.624390 606.808899,610.970459 
	C604.285889,611.887512 602.034546,612.058655 600.835144,613.270752 
	C597.959412,616.177002 594.783020,617.174561 590.071350,616.202881 
M1134.391235,616.039368 
	C1138.961548,620.960327 1144.546265,622.090759 1150.788696,620.187622 
	C1154.898315,618.934692 1157.940918,616.472778 1158.423706,611.431885 
	C1156.256226,611.900635 1154.209961,612.637878 1152.683472,613.970337 
	C1149.451660,616.791382 1145.947144,617.363586 1142.025879,616.067993 
	C1138.355103,614.855225 1136.288452,612.387817 1136.165771,607.954651 
	C1144.093384,607.954651 1151.836792,607.954651 1159.515137,607.954651 
	C1160.806030,597.837158 1155.206299,591.064514 1145.864868,591.005676 
	C1140.519775,590.971985 1135.922241,592.769531 1133.219727,597.548035 
	C1129.829590,603.542419 1130.089111,609.624390 1134.391235,616.039368 
M688.977844,613.503540 
	C688.292969,611.822021 687.608093,610.140503 686.629822,607.738647 
	C695.361938,607.738647 703.102356,607.738647 710.796570,607.738647 
	C711.284180,598.104980 706.971313,592.197449 699.004944,591.101257 
	C690.697021,589.958008 683.879700,594.587036 682.262573,602.469543 
	C680.546814,610.832886 684.838013,618.340210 692.553589,620.473389 
	C700.264648,622.605225 707.131470,619.321655 710.269592,611.007080 
	C707.749023,611.919189 705.591187,612.117981 704.284668,613.276672 
	C699.451355,617.563232 695.458069,617.927246 688.977844,613.503540 
M1097.987549,607.491394 
	C1097.987549,611.929504 1097.987549,616.367615 1097.987549,621.059937 
	C1099.971191,620.945190 1101.369995,620.864258 1103.046021,620.767273 
	C1103.046021,614.937927 1102.884399,609.464905 1103.090942,604.005737 
	C1103.303833,598.379333 1106.778687,595.099182 1111.871216,595.263794 
	C1116.808105,595.423401 1119.762329,598.547729 1119.935791,604.143127 
	C1120.090332,609.128174 1119.968262,614.121460 1120.013184,619.110779 
	C1120.018677,619.723022 1120.302002,620.332703 1120.500366,621.116760 
	C1122.071533,620.955383 1123.470947,620.811707 1124.990967,620.655579 
	C1124.990967,614.480286 1125.168823,608.664795 1124.950562,602.864197 
	C1124.599854,593.538818 1116.186035,588.345459 1107.637207,592.054932 
	C1106.178833,592.687744 1104.856934,593.634705 1102.914795,594.759094 
	C1102.914795,589.931702 1102.914795,585.554016 1102.914795,580.931641 
	C1101.013062,581.053528 1099.617188,581.143005 1097.987549,581.247437 
	C1097.987549,589.903687 1097.987549,598.199219 1097.987549,607.491394 
M648.987366,591.526855 
	C648.987366,601.287842 648.987366,611.048767 648.987366,621.064331 
	C650.973999,620.945740 652.372925,620.862305 654.031555,620.763306 
	C654.031555,615.100220 653.913147,609.795654 654.062988,604.498718 
	C654.232422,598.507385 657.613281,595.090454 662.876892,595.264099 
	C667.953857,595.431702 670.835632,598.682495 670.954956,604.647888 
	C671.060791,609.938599 670.977173,615.232971 670.977173,620.645081 
	C672.847900,620.645081 674.343506,620.645081 675.990662,620.645081 
	C675.990662,614.473511 676.173645,608.656738 675.949402,602.855774 
	C675.574402,593.153503 666.382507,587.978882 657.724426,592.465149 
	C656.603699,593.045776 655.582275,593.817932 653.906738,594.890686 
	C653.906738,589.926697 653.906738,585.547668 653.906738,580.921570 
	C652.006287,581.051880 650.609131,581.147766 648.987366,581.258972 
	C648.987366,584.590881 648.987366,587.565002 648.987366,591.526855 
M1294.445068,615.406067 
	C1286.110596,618.424561 1281.454956,615.379883 1281.256592,606.658569 
	C1281.140259,601.546692 1281.235352,596.430054 1281.235352,591.218445 
	C1279.384644,591.218445 1277.959229,591.218445 1276.130493,591.218445 
	C1276.130493,593.086243 1276.122559,594.720032 1276.132080,596.353699 
	C1276.158325,600.842651 1275.866943,605.362488 1276.290161,609.814087 
	C1277.157959,618.941833 1286.070679,623.736633 1294.295532,619.723083 
	C1295.455811,619.156921 1296.528442,618.411255 1297.641724,617.748596 
	C1297.516602,618.182861 1297.391602,618.617188 1297.266602,619.051453 
	C1299.023438,619.858765 1300.780273,620.666016 1303.012207,621.691589 
	C1303.012207,610.832214 1303.012207,601.077820 1303.012207,591.210754 
	C1301.380493,591.210754 1299.953613,591.210754 1298.111572,591.210754 
	C1298.111572,596.560181 1298.443115,601.716858 1297.979248,606.800903 
	C1297.726562,609.570007 1296.123901,612.215881 1294.445068,615.406067 
M435.079895,599.987427 
	C431.807343,599.987427 428.534760,599.987427 425.206055,599.987427 
	C425.206055,595.437622 425.206055,591.483215 425.206055,587.198669 
	C429.375305,587.198669 433.361877,587.072021 437.336151,587.238953 
	C440.492615,587.371582 441.081207,586.037170 440.118835,583.244873 
	C433.488831,583.244873 426.916534,583.244873 420.261810,583.244873 
	C420.261810,595.899414 420.261810,608.294678 420.261810,620.731445 
	C427.120544,620.731445 433.701965,620.731445 440.480194,620.731445 
	C440.402252,619.474609 440.431732,617.682800 440.269653,617.665344 
	C435.289154,617.127563 430.289917,616.763794 425.299194,616.373535 
	C425.299194,612.295044 425.299194,608.375977 425.299194,604.151550 
	C429.713593,604.151550 433.846527,604.151550 437.979462,604.151550 
	C438.315674,603.757446 438.651917,603.363281 438.988159,602.969177 
	C437.978668,601.975525 436.969177,600.981873 435.079895,599.987427 
M1244.645752,617.960632 
	C1246.426025,618.817749 1248.123657,620.017761 1250.001465,620.469421 
	C1256.312134,621.987549 1261.967896,620.613281 1266.099487,615.394775 
	C1270.082153,610.364380 1270.318115,604.550293 1267.684692,598.953430 
	C1264.928589,593.095825 1259.715576,590.712830 1253.363281,591.029297 
	C1247.411743,591.325806 1242.754272,593.998352 1240.501709,599.655334 
	C1237.877319,606.245178 1238.900879,612.343994 1244.645752,617.960632 
M534.969116,591.140442 
	C526.735413,593.575256 523.022034,597.915833 522.824951,605.335693 
	C522.631836,612.605591 525.984558,617.999329 532.222717,620.092285 
	C538.408325,622.167664 544.066528,621.065247 548.742798,616.448792 
	C553.035522,612.210999 554.078369,605.059570 551.368469,599.330505 
	C548.263062,592.765259 542.690430,590.634827 534.969116,591.140442 
M1418.049194,620.897034 
	C1426.402832,618.584045 1430.492554,613.998718 1430.826904,606.571167 
	C1431.121582,600.021851 1427.505493,594.302063 1421.639404,592.039062 
	C1415.659912,589.732117 1408.669434,591.093323 1404.649170,595.537354 
	C1400.167969,600.491089 1399.650635,606.331970 1401.995361,612.254395 
	C1404.663818,618.994568 1410.251099,621.341370 1418.049194,620.897034 
M1211.957642,591.162537 
	C1210.399902,591.162537 1208.842285,591.162537 1206.952759,591.162537 
	C1209.118286,596.594238 1210.615967,601.782532 1213.149414,606.402832 
	C1218.208618,615.629578 1219.469482,624.608582 1213.480713,633.837646 
	C1213.355591,634.030518 1213.507568,634.403259 1213.618774,635.818909 
	C1215.637573,634.750488 1218.232300,634.274719 1218.798950,632.938782 
	C1224.625977,619.198364 1230.124756,605.318726 1235.716675,591.473755 
	C1232.056641,590.059326 1230.377319,591.389709 1229.240112,594.740723 
	C1227.029541,601.254578 1224.423828,607.634338 1221.637207,614.977844 
	C1218.351074,606.487915 1215.474854,599.056946 1211.957642,591.162537 
M1440.424316,617.096802 
	C1441.649170,617.940430 1442.788086,618.964172 1444.113647,619.596558 
	C1450.046387,622.426636 1457.713501,621.021484 1462.056274,616.422607 
	C1466.306152,611.922363 1467.284424,604.528259 1464.389648,598.784851 
	C1461.608276,593.266418 1455.650391,590.288025 1448.943115,591.062927 
	C1436.826294,592.462830 1432.046265,605.949280 1440.424316,617.096802 
M1166.593994,615.917725 
	C1171.053345,621.002502 1177.809937,622.887756 1183.066528,619.660400 
	C1185.279175,618.301880 1187.630981,615.163513 1187.651367,612.814392 
	C1187.671265,610.540710 1185.201050,607.647522 1183.049438,606.114502 
	C1180.725342,604.458618 1177.348999,604.360535 1174.731567,603.004211 
	C1173.222290,602.222168 1172.306030,600.295654 1171.122803,598.884338 
	C1172.730347,597.692078 1174.282837,595.637207 1175.959351,595.530457 
	C1177.960083,595.403137 1180.922485,596.370544 1181.941162,597.888489 
	C1183.780029,600.628784 1185.494751,600.486511 1187.959717,599.729492 
	C1186.135254,592.164001 1178.743774,588.587830 1171.578735,592.162659 
	C1169.178833,593.360046 1166.454590,596.617798 1166.385010,599.006836 
	C1166.316528,601.357849 1168.998169,604.386719 1171.260742,606.040955 
	C1173.552490,607.716492 1176.937256,607.811157 1179.589111,609.115112 
	C1180.963745,609.791016 1182.739258,611.691589 1182.610229,612.846252 
	C1182.463379,614.159180 1180.416016,616.213379 1179.153442,616.243896 
	C1176.725098,616.302673 1174.178101,615.385193 1171.849976,614.450378 
	C1169.944580,613.685486 1168.285400,612.307495 1166.517090,611.201233 
	C1166.217896,611.616150 1165.918701,612.031128 1165.619507,612.446045 
	C1165.811890,613.399292 1166.004272,614.352478 1166.593994,615.917725 
M1078.300781,595.327209 
	C1080.189087,596.274902 1082.110107,597.163269 1083.956665,598.186523 
	C1085.918213,599.273560 1087.809082,600.488464 1090.647827,602.200562 
	C1089.505859,593.442017 1081.355835,589.822266 1074.038330,591.233337 
	C1066.500977,592.686829 1062.291748,598.988037 1062.875366,607.693542 
	C1063.389648,615.368103 1068.821899,620.711304 1076.409790,621.006348 
	C1083.853882,621.295776 1088.997803,617.633301 1090.347534,609.713318 
	C1087.741943,611.317444 1086.023682,612.380066 1084.300537,613.434937 
	C1082.641235,614.450745 1081.095825,615.905151 1079.292358,616.385376 
	C1073.989624,617.797180 1069.221680,614.567688 1068.119751,609.181702 
	C1066.518066,601.352112 1069.755859,596.519531 1078.300781,595.327209 
M464.038483,620.907654 
	C465.548309,620.907654 467.058136,620.907654 469.113068,620.907654 
	C466.291840,616.412598 464.062317,612.525391 461.488251,608.881592 
	C459.883087,606.609314 459.979736,604.919006 461.586121,602.689941 
	C464.181671,599.088318 466.407959,595.220703 468.952850,591.209045 
	C460.485657,589.654907 461.677887,598.716370 457.312531,600.984314 
	C452.723328,598.514893 453.570251,589.442444 444.940430,591.379211 
	C447.573517,595.570862 449.774139,599.476074 452.384735,603.084595 
	C454.047638,605.383240 453.869507,607.033936 452.281586,609.242310 
	C449.687836,612.849609 447.444641,616.708984 444.869415,620.750977 
	C453.462830,622.320374 452.103210,613.178345 456.699158,610.813232 
	C456.908112,610.975098 457.247467,611.125671 457.417358,611.386597 
	C459.408356,614.444580 461.373901,617.519104 464.038483,620.907654 
M917.768188,611.007690 
	C918.027771,620.078918 920.372498,621.974182 929.681641,620.504822 
	C929.681641,619.415588 929.681641,618.304932 929.681641,617.194275 
	C929.335205,617.514893 928.988708,617.835571 928.642273,618.156250 
	C926.726807,616.451904 923.407654,614.928833 923.159729,613.009216 
	C922.423279,607.307312 922.895874,601.449280 922.895874,596.361389 
	C925.044861,593.804688 930.859741,597.794922 929.597473,591.157898 
	C927.345398,591.024170 925.253784,590.899963 923.067871,590.770203 
	C922.904114,588.372009 922.761475,586.281982 922.602112,583.948303 
	C920.834900,584.051025 919.412598,584.133728 917.766846,584.229370 
	C917.766846,586.506653 917.766846,588.475830 917.766846,589.752930 
	C916.127502,590.955444 914.817566,591.682922 913.891357,592.745056 
	C913.630005,593.044739 914.471924,595.034302 914.842163,595.044922 
	C918.727722,595.155762 917.681702,597.998474 917.742432,600.117004 
	C917.837769,603.443604 917.768005,606.774963 917.768188,611.007690 
M1050.869507,603.498474 
	C1050.869507,600.876831 1050.869507,598.255127 1050.869507,595.528687 
	C1053.427124,595.294250 1055.510986,595.103210 1057.620605,594.909790 
	C1057.620605,593.535095 1057.620605,592.451233 1057.620605,591.210632 
	C1055.310059,591.037537 1053.220825,590.881042 1051.061646,590.719360 
	C1050.898315,588.350403 1050.754639,586.265808 1050.593872,583.934021 
	C1048.808228,584.050415 1047.393311,584.142578 1045.751953,584.249512 
	C1045.751953,586.529968 1045.751953,588.494324 1045.751953,589.724670 
	C1044.094849,590.965393 1042.798096,591.699097 1041.891846,592.764832 
	C1041.632324,593.070007 1042.483398,595.042603 1042.859253,595.053345 
	C1046.762573,595.164307 1045.677246,598.027588 1045.739624,600.130737 
	C1045.843018,603.620850 1045.752319,607.116211 1045.770996,610.609314 
	C1045.821289,619.943726 1048.427490,622.109680 1057.652466,620.471375 
	C1057.652466,619.362061 1057.652466,618.252869 1057.652466,616.822998 
	C1051.492676,617.817322 1050.316772,614.434265 1050.842163,609.470764 
	C1051.016357,607.825806 1050.869507,606.146790 1050.869507,603.498474 
M830.869751,587.606873 
	C831.403259,583.237915 828.872742,583.615234 825.801025,584.406921 
	C825.801025,586.457153 825.801025,588.434692 825.801025,589.825867 
	C824.183716,590.948853 822.849670,591.646301 821.890198,592.688599 
	C821.621582,592.980408 822.435913,595.008911 822.788513,595.019043 
	C826.604004,595.128662 825.712219,597.890320 825.750916,600.058167 
	C825.813416,603.553162 825.753174,607.050171 825.770752,610.546204 
	C825.817993,619.943787 828.319519,622.048645 837.672485,620.488281 
	C837.672485,619.386780 837.672485,618.273071 837.672485,617.159424 
	C837.306763,617.492493 836.941040,617.825500 836.575256,618.158569 
	C834.681763,616.439880 831.402893,614.898804 831.155640,612.969177 
	C830.425598,607.272217 830.894775,601.421631 830.894775,595.525085 
	C833.421387,595.294189 835.507385,595.103577 837.620667,594.910522 
	C837.620667,593.536682 837.620667,592.451843 837.620667,591.786560 
	C835.656982,589.407104 831.242554,593.543274 830.869751,587.606873 
M640.731750,595.164307 
	C641.215393,593.916992 641.699036,592.669678 642.260254,591.222290 
	C639.306213,591.013855 637.226074,590.867126 634.914917,590.704041 
	C634.914917,588.361145 634.914917,586.408020 634.914917,584.356812 
	C633.127441,584.356812 631.614075,584.356812 629.847961,584.356812 
	C629.847961,586.683655 629.847961,588.644043 629.847961,589.686707 
	C628.163086,591.035645 627.080933,591.902039 625.998779,592.768433 
	C627.095337,593.999695 628.191833,595.230957 629.985107,597.244568 
	C629.985107,600.831360 629.978516,605.656738 629.986511,610.482117 
	C630.002014,619.843262 632.483154,621.951294 641.840454,620.525208 
	C641.840454,619.403076 641.840454,618.274963 641.840454,617.090088 
	C638.844849,616.478333 634.907776,617.516968 634.997498,612.500244 
	C635.098083,606.877380 635.020630,601.251282 635.020630,595.195129 
	C636.895264,595.195129 638.369202,595.195129 640.731750,595.164307 
M796.012634,600.539429 
	C796.012634,598.904907 796.012634,597.270386 796.012634,595.473572 
	C798.479309,595.295166 800.584900,595.142883 802.950928,594.971802 
	C802.873840,593.569153 802.807373,592.359924 802.743591,591.199646 
	C800.256836,591.013184 798.180969,590.857605 795.879822,590.685059 
	C795.879822,588.319946 795.879822,586.368774 795.879822,584.373535 
	C794.081299,584.373535 792.576050,584.373535 790.821777,584.373535 
	C790.821777,586.716736 790.821777,588.676636 790.821777,589.636536 
	C789.120911,591.045410 788.059692,591.924377 786.998535,592.803345 
	C788.106812,594.026733 789.215027,595.250122 790.985168,597.204163 
	C790.985168,600.856628 790.978455,605.677917 790.986633,610.499268 
	C791.002380,619.840454 793.491577,621.951721 802.840942,620.525085 
	C802.840942,619.401611 802.840942,618.275635 802.840942,616.849487 
	C796.834534,617.769165 795.462952,614.590515 795.966553,609.511963 
	C796.227966,606.875427 796.012634,604.191650 796.012634,600.539429 
M511.350433,584.832397 
	C511.350433,596.755127 511.350433,608.677795 511.350433,621.048035 
	C513.344971,620.947144 514.869873,620.870056 516.338867,620.795776 
	C516.338867,607.284546 516.338867,594.261292 516.338867,581.185974 
	C513.804443,581.000732 511.089691,579.860901 511.350433,584.832397 
M778.001831,597.345093 
	C780.004639,596.715820 782.007507,596.086548 784.237000,595.386047 
	C784.143677,594.006165 784.048401,592.597717 783.892212,590.288269 
	C780.566284,591.786804 777.809082,593.029114 775.051819,594.271423 
	C775.307251,593.899292 775.562683,593.527161 775.818115,593.155029 
	C774.054382,592.249878 772.290588,591.344788 770.007080,590.172913 
	C770.007080,601.193665 770.007080,610.944580 770.007080,620.771667 
	C771.656677,620.771667 773.075806,620.771667 774.892334,620.771667 
	C774.892334,615.405884 774.631470,610.260925 775.004578,605.162415 
	C775.185913,602.685547 776.553589,600.295593 778.001831,597.345093 
M1322.145874,596.241455 
	C1325.984497,596.421204 1326.562012,594.461426 1325.197754,590.573608 
	C1322.316650,591.722290 1319.547363,592.826355 1316.422485,594.072266 
	C1316.833740,589.394531 1313.822021,591.157654 1311.358765,591.201660 
	C1311.358765,601.160217 1311.358765,610.896118 1311.358765,620.825195 
	C1313.023926,620.825195 1314.461060,620.825195 1316.245728,620.825195 
	C1316.245728,615.517212 1316.160889,610.389404 1316.273804,605.265991 
	C1316.357300,601.474792 1317.086060,597.915771 1322.145874,596.241455 
M574.549500,593.497559 
	C573.514832,592.762329 572.251709,591.226929 571.489136,591.444702 
	C569.359680,592.052795 567.437378,593.386719 565.215759,594.547913 
	C565.074585,593.438232 564.927185,592.279297 564.757141,590.942078 
	C562.973999,591.043701 561.583252,591.122986 560.263672,591.198242 
	C560.263672,601.345276 560.263672,611.062134 560.263672,620.721924 
	C561.938416,620.721924 563.332520,620.721924 565.033936,620.721924 
	C565.033936,615.154907 564.970703,609.869934 565.052795,604.587158 
	C565.125977,599.879761 567.079834,596.679688 572.178833,595.994873 
	C573.027100,595.880920 573.754700,594.869080 574.549500,593.497559 
z"/>
<path fill="#FBFBFB" opacity="1.000000" stroke="none" 
	d="
M341.962830,573.000183 
	C341.962433,604.767944 341.962433,636.035645 341.962433,667.917908 
	C344.873444,667.917908 347.142517,667.918030 349.411591,667.917908 
	C408.658966,667.914917 467.906311,667.907959 527.153687,667.913818 
	C534.847168,667.914612 539.969482,671.490417 540.890808,677.416504 
	C542.056213,684.912537 537.455383,690.841553 529.608704,691.336243 
	C523.643616,691.712341 517.640015,691.507874 511.653503,691.508606 
	C452.303223,691.515869 392.952911,691.541443 333.602844,691.431274 
	C330.376556,691.425293 326.796570,690.937683 324.008331,689.477112 
	C319.510223,687.120911 318.327118,682.691406 318.340790,677.594055 
	C318.466034,630.915100 318.427063,584.235718 318.433075,537.556458 
	C318.435516,518.615234 318.460938,499.673889 318.409332,480.732819 
	C318.395172,475.535095 320.643951,471.672424 325.174438,469.422852 
	C329.411469,467.319031 333.669189,468.032776 337.355988,470.943542 
	C341.239624,474.009705 341.979401,478.393555 341.975677,483.050201 
	C341.951843,512.866821 341.963348,542.683472 341.962830,573.000183 
z"/>
<path fill="#FBFBFB" opacity="1.000000" stroke="none" 
	d="
M1532.000000,360.039215 
	C1550.826294,360.041931 1569.156128,360.252228 1587.477295,359.946228 
	C1596.143677,359.801514 1602.707886,364.404541 1602.648193,375.122894 
	C1602.286865,439.884521 1602.469727,504.649384 1602.551514,569.413025 
	C1602.558594,575.052246 1601.038574,579.668091 1595.681763,582.147766 
	C1591.405396,584.127136 1587.159912,583.550842 1583.491821,580.577820 
	C1579.652710,577.466064 1578.979736,573.069092 1578.984619,568.411011 
	C1579.022095,533.091187 1579.016235,497.771393 1579.019897,462.451569 
	C1579.022583,438.294006 1579.019043,414.136475 1579.018188,389.978912 
	C1579.018188,388.180664 1579.018188,386.382416 1579.018188,383.797974 
	C1576.263550,383.797974 1574.020630,383.797852 1571.777588,383.797974 
	C1512.531616,383.801666 1453.285645,383.809296 1394.039673,383.804382 
	C1386.130005,383.803741 1380.876953,380.059906 1380.053101,373.919067 
	C1378.938110,365.607452 1384.236328,360.072784 1393.554199,360.053680 
	C1417.877808,360.003815 1442.201782,360.037842 1466.525513,360.037567 
	C1488.183716,360.037323 1509.841797,360.035919 1532.000000,360.039215 
z"/>
<path fill="#A12714" opacity="1.000000" stroke="none" 
	d="
M507.209656,426.071320 
	C507.209930,439.389984 507.272705,452.216858 507.165710,465.042358 
	C507.139221,468.217468 507.716583,469.950470 511.508209,469.913940 
	C528.497375,469.750275 545.488953,469.837463 562.479675,469.817505 
	C563.115540,469.816742 563.751221,469.643799 564.900024,469.476318 
	C564.900024,452.813354 564.900024,436.248047 564.900024,419.352722 
	C570.149231,419.352722 574.860535,419.352722 579.900818,419.352722 
	C579.988770,421.183197 580.133911,422.802887 580.134521,424.422607 
	C580.147644,459.070496 580.049133,493.718964 580.258301,528.365601 
	C580.286377,533.003357 578.750000,533.897644 574.547363,533.783020 
	C565.035950,533.523560 565.030396,533.726257 565.030396,524.204163 
	C565.030396,510.394958 565.030396,496.585785 565.030396,482.415710 
	C563.498230,482.232208 562.240295,481.952606 560.981812,481.950317 
	C544.657410,481.920776 528.331726,482.033142 512.009277,481.853333 
	C508.265656,481.812073 507.096375,482.994690 507.142548,486.696045 
	C507.312897,500.353180 507.209717,514.013733 507.209473,527.672974 
	C507.209442,529.460022 507.209442,531.247009 507.209442,533.243774 
	C501.917358,533.243774 497.207336,533.243774 492.338379,533.243774 
	C492.338379,495.056976 492.338379,457.316772 492.338379,419.296143 
	C497.187042,419.296143 501.776459,419.296143 507.209503,419.296143 
	C507.209503,421.428284 507.209503,423.503662 507.209656,426.071320 
z"/>
<path fill="#F0DB7B" opacity="1.000000" stroke="none" 
	d="
M765.000000,493.983765 
	C750.375732,493.983765 736.251404,493.983765 722.160950,493.983765 
	C721.328369,507.946289 731.244019,519.545105 745.184387,521.064514 
	C757.845398,522.444458 768.736511,519.708008 775.112671,507.218445 
	C775.595215,506.273376 777.064392,505.323364 778.120850,505.269104 
	C782.408630,505.048859 786.714294,505.177521 792.499939,505.177521 
	C789.890442,510.105865 788.263733,514.474548 785.570984,518.037659 
	C774.365112,532.865784 758.805542,536.593384 741.449158,533.500183 
	C724.049194,530.399048 713.183838,519.439026 708.371826,502.601074 
	C705.569702,492.796021 705.719666,482.805237 708.323669,472.964294 
	C713.985229,451.568695 733.134399,439.129181 755.991516,441.812958 
	C778.266479,444.428375 792.892273,460.453796 793.630005,483.114136 
	C793.742798,486.579071 793.645752,490.050903 793.645752,493.983765 
	C783.739746,493.983765 774.619873,493.983765 765.000000,493.983765 
M737.788818,457.022736 
	C727.619019,462.045166 722.674194,470.377350 721.798950,481.563660 
	C740.806335,481.563660 759.369568,481.563660 778.291809,481.563660 
	C778.069153,479.229034 778.080383,477.220581 777.663269,475.305420 
	C774.006653,458.517670 756.463318,450.228546 737.788818,457.022736 
z"/>
<path fill="#B8B8B8" opacity="1.000000" stroke="none" 
	d="
M1305.940552,528.968445 
	C1277.752686,542.941956 1246.814819,529.716736 1239.669312,500.922577 
	C1232.774536,473.138947 1247.875000,447.411926 1274.039429,442.365112 
	C1296.967163,437.942627 1318.424438,449.062866 1326.134399,469.363647 
	C1334.862915,492.346527 1326.745972,516.665955 1305.940552,528.968445 
M1253.561157,485.616455 
	C1253.787476,489.264191 1253.647705,492.979614 1254.307617,496.547150 
	C1256.428101,508.009857 1262.377319,516.540283 1273.980347,520.065430 
	C1292.270020,525.622009 1309.684448,514.875427 1313.285522,495.964600 
	C1316.265015,480.317261 1310.955200,465.757324 1299.794189,458.970764 
	C1279.172974,446.431854 1256.016113,459.319855 1253.561157,485.616455 
z"/>
<path fill="#367CC7" opacity="1.000000" stroke="none" 
	d="
M944.864502,462.866333 
	C957.232971,443.731812 980.240479,436.426605 1001.599792,444.584900 
	C1021.289612,452.105530 1032.664062,472.671906 1029.355225,494.650116 
	C1026.479370,513.752441 1016.203674,526.983093 997.580200,532.392151 
	C979.637695,537.603271 963.100830,534.276917 949.960815,520.202698 
	C936.658081,505.954041 934.705139,482.198608 944.864502,462.866333 
M964.587646,514.970886 
	C980.004761,526.145630 1000.265991,522.430298 1009.747559,506.689850 
	C1016.530029,495.430389 1015.733032,476.902893 1008.011475,466.332458 
	C995.769043,449.572937 968.908691,450.831360 958.460938,468.653931 
	C950.327698,482.528351 952.837463,503.139435 964.587646,514.970886 
z"/>
<path fill="#B8B8B8" opacity="1.000000" stroke="none" 
	d="
M1419.220947,443.214996 
	C1422.827393,443.215027 1425.968506,443.215027 1429.458496,443.215027 
	C1429.458496,473.322266 1429.458496,503.060089 1429.458496,533.118164 
	C1424.631226,533.118164 1419.726318,533.118164 1414.293945,533.118164 
	C1414.293945,529.309326 1414.293945,525.754822 1414.293945,521.488708 
	C1410.893066,524.340698 1408.370605,526.970215 1405.386475,528.877075 
	C1382.196655,543.695496 1351.629639,529.909729 1349.358032,502.587799 
	C1347.736572,483.084991 1349.043091,463.338806 1349.043091,443.458008 
	C1353.918945,443.458008 1358.657227,443.458008 1363.961426,443.458008 
	C1363.961426,457.535095 1363.876953,471.473877 1364.002808,485.410767 
	C1364.053833,491.052612 1364.043457,496.777771 1364.972900,502.311859 
	C1366.972900,514.218872 1375.450684,521.031311 1387.687256,521.320129 
	C1401.137573,521.637634 1410.230469,515.387939 1413.016846,503.461639 
	C1413.954102,499.450378 1414.286865,495.224701 1414.330688,491.091034 
	C1414.484375,476.594574 1414.501831,462.094055 1414.312622,447.598450 
	C1414.267090,444.102905 1415.236450,442.619934 1419.220947,443.214996 
z"/>
<path fill="#C96F2A" opacity="1.000000" stroke="none" 
	d="
M687.078003,452.051086 
	C687.078064,479.345123 687.078064,506.145660 687.078064,533.240112 
	C681.904480,533.240112 677.154785,533.240112 672.006531,533.240112 
	C672.006531,529.242676 672.006531,525.489380 672.006531,521.206360 
	C668.527100,524.105408 665.775574,526.963013 662.518799,529.021240 
	C638.969971,543.903320 609.340088,529.276123 606.275452,501.336517 
	C606.040100,499.191040 606.080444,497.009796 606.078552,494.845154 
	C606.064026,477.869904 606.070557,460.894623 606.070557,443.559448 
	C611.137695,443.559448 615.886353,443.559448 621.195740,443.559448 
	C621.277893,445.234924 621.437134,447.003326 621.439819,448.772034 
	C621.460693,462.435699 621.450806,476.099396 621.451599,489.763092 
	C621.451721,491.262756 621.431763,492.763031 621.467468,494.261963 
	C621.885010,511.795654 630.461243,521.220276 646.045288,521.283325 
	C662.123596,521.348389 671.559937,511.657349 671.869324,494.193634 
	C672.134888,479.201508 671.937927,464.201202 671.945251,449.204498 
	C671.946106,447.399963 671.945374,445.595398 671.945374,443.499817 
	C677.082031,443.499817 681.805786,443.499817 687.078003,443.499817 
	C687.078003,446.320343 687.078003,448.938965 687.078003,452.051086 
z"/>
<path fill="#537729" opacity="1.000000" stroke="none" 
	d="
M845.196777,494.744873 
	C837.744690,492.205963 830.469666,490.249207 823.677368,487.212738 
	C815.259155,483.449432 810.492493,476.461060 810.461487,467.103424 
	C810.430542,457.775848 815.235046,450.760956 823.304565,446.570099 
	C837.597839,439.146820 852.040771,439.084473 866.053589,447.561768 
	C872.967957,451.744812 876.023865,458.458435 877.401489,466.140564 
	C877.852905,468.658173 877.176758,469.985840 874.414001,469.937897 
	C870.597839,469.871674 866.779663,469.921295 863.075500,469.921295 
	C857.688538,456.519989 848.397583,451.718781 835.744080,455.585236 
	C830.586609,457.161163 826.855835,460.191772 826.022034,465.795319 
	C825.319885,470.514252 828.006775,474.977631 833.648315,477.435669 
	C838.806274,479.683014 844.282288,481.202332 849.624207,483.024811 
	C854.185059,484.580841 858.852356,485.874023 863.299316,487.704559 
	C871.885925,491.239075 877.887939,497.238098 878.602539,506.910767 
	C879.271484,515.966431 875.086060,523.039551 867.869934,528.234009 
	C852.980957,538.951782 827.209412,536.095459 815.073914,522.424194 
	C811.210388,518.071716 809.045227,512.973938 809.196350,506.207977 
	C813.849731,506.207977 818.272217,506.063171 822.669250,506.333374 
	C823.522522,506.385803 824.641785,507.928894 825.016357,509.001617 
	C827.342712,515.664185 832.197327,519.419067 838.869995,520.535400 
	C846.318787,521.781433 853.906311,522.405884 860.143799,516.686035 
	C866.594910,510.770111 865.319824,502.400543 857.348022,498.922394 
	C853.557068,497.268402 849.515869,496.188202 845.196777,494.744873 
z"/>
<path fill="#B8B8B8" opacity="1.000000" stroke="none" 
	d="
M1187.416992,468.240570 
	C1194.958374,452.983215 1202.368652,438.078033 1209.607300,423.089996 
	C1210.845093,420.527283 1212.198120,419.215637 1215.221558,419.430176 
	C1219.144165,419.708527 1223.101196,419.498108 1227.757446,419.498108 
	C1226.642822,421.800201 1225.915161,423.412170 1225.096802,424.976715 
	C1214.378540,445.469055 1203.583984,465.921967 1193.001953,486.484253 
	C1191.699951,489.014313 1190.961670,492.110565 1190.911743,494.961060 
	C1190.690552,507.593079 1190.815918,520.231140 1190.815918,533.150391 
	C1185.696167,533.150391 1180.928955,533.150391 1175.400146,533.150391 
	C1175.400146,529.495850 1175.033813,525.862610 1175.459961,522.324829 
	C1178.093750,500.465149 1172.698853,480.882538 1160.877197,462.304901 
	C1152.595703,449.290649 1146.250732,435.044006 1139.051636,421.342041 
	C1138.901489,421.056122 1138.882812,420.701050 1138.599487,419.559937 
	C1143.640381,419.559937 1148.537476,419.294342 1153.367798,419.745911 
	C1154.581543,419.859406 1155.872559,422.127106 1156.632446,423.651886 
	C1164.506348,439.449493 1172.272827,455.300507 1180.088013,471.127441 
	C1180.868530,472.708130 1181.772339,474.227905 1183.063843,476.589539 
	C1184.706421,473.424103 1185.967285,470.994446 1187.416992,468.240570 
z"/>
<path fill="#521278" opacity="1.000000" stroke="none" 
	d="
M1067.072998,467.033508 
	C1067.072876,488.019623 1066.989868,508.512756 1067.147339,529.004028 
	C1067.176514,532.795288 1066.334961,534.579407 1062.186401,534.128967 
	C1059.086304,533.792358 1055.920288,534.062622 1052.117798,534.062622 
	C1052.117798,508.247589 1052.117798,482.871124 1052.117798,457.104034 
	C1048.231689,456.899628 1044.983887,456.728821 1041.355591,456.537964 
	C1041.355591,452.477753 1041.355591,448.612000 1041.355591,444.202271 
	C1044.763794,444.202271 1048.014648,444.202271 1051.764282,444.202271 
	C1052.117188,432.822357 1051.374634,421.311920 1062.199219,414.271332 
	C1069.135010,409.760040 1076.958374,408.771667 1085.277466,409.082031 
	C1085.465820,410.556519 1085.709839,411.673981 1085.735718,412.796417 
	C1085.921509,420.836914 1085.907349,420.837280 1078.390747,422.595276 
	C1070.643311,424.407257 1067.633545,428.308777 1067.108032,437.353577 
	C1066.993408,439.324554 1067.091309,441.307892 1067.091309,444.129913 
	C1072.327148,444.129913 1077.270142,444.417328 1082.164307,444.051331 
	C1087.344360,443.664001 1086.844238,446.956818 1086.739502,450.169189 
	C1086.637573,453.300659 1087.920654,457.218719 1082.232788,456.854187 
	C1077.447754,456.547516 1072.627563,456.791107 1067.072998,456.791107 
	C1067.072998,460.337067 1067.072998,463.438477 1067.072998,467.033508 
z"/>
<path fill="#A7A7A7" opacity="1.000000" stroke="none" 
	d="
M1346.350342,614.824341 
	C1346.350464,606.714111 1346.350464,599.079285 1346.350464,590.223999 
	C1348.958374,591.322754 1350.795166,592.096619 1353.438721,593.210388 
	C1360.591431,589.361145 1363.752075,589.717590 1371.298950,595.961426 
	C1373.176880,594.603943 1374.873901,592.916931 1376.915405,591.984070 
	C1384.374756,588.575378 1392.378052,592.808594 1393.203857,601.025330 
	C1393.846558,607.421936 1393.332397,613.934937 1393.332397,620.753296 
	C1391.946289,620.858704 1390.540039,620.965637 1389.119629,621.073608 
	C1388.812622,620.415039 1388.451172,619.995850 1388.444336,619.570862 
	C1388.358398,614.247681 1388.468994,608.917358 1388.235352,603.601746 
	C1388.000977,598.269409 1385.298828,595.450378 1380.803711,595.344482 
	C1376.153076,595.234802 1373.048340,598.231567 1372.821533,603.632019 
	C1372.585571,609.254211 1372.768921,614.893982 1372.768921,620.785645 
	C1370.834961,620.785645 1369.408691,620.785645 1367.342896,620.785645 
	C1367.342896,615.492310 1367.430420,610.222046 1367.320435,604.955994 
	C1367.187012,598.568665 1364.556396,595.365112 1359.663818,595.336182 
	C1354.746216,595.307129 1351.890625,598.567261 1351.722168,604.766541 
	C1351.578247,610.057983 1351.692383,615.356384 1351.692383,620.847656 
	C1349.746338,620.847656 1348.298828,620.847656 1346.350342,620.847656 
	C1346.350342,618.894592 1346.350342,617.097168 1346.350342,614.824341 
z"/>
<path fill="#B3B3B3" opacity="1.000000" stroke="none" 
	d="
M998.231995,611.969971 
	C998.231934,615.101257 998.231934,617.756104 998.231934,620.740234 
	C996.626709,620.849915 995.214783,620.946350 993.774963,621.044739 
	C993.516052,620.380798 993.201172,619.944153 993.196228,619.504089 
	C993.138550,614.346252 993.215759,609.185547 993.080017,604.030273 
	C992.934143,598.491821 990.202576,595.410034 985.585632,595.277893 
	C981.031677,595.147522 977.750549,598.126770 977.421875,603.507935 
	C977.078064,609.135498 977.345093,614.800293 977.345093,620.758972 
	C975.603699,620.861511 974.183228,620.945190 972.127319,621.066284 
	C972.127319,615.524597 972.181824,610.256104 972.113342,604.989258 
	C972.030701,598.636963 969.450928,595.389404 964.547058,595.274597 
	C959.528687,595.157104 956.471619,598.629089 956.275635,605.036316 
	C956.118225,610.181702 956.243774,615.335754 956.243774,620.791626 
	C954.581055,620.873657 953.152588,620.944092 951.420044,621.029480 
	C951.420044,611.023315 951.420044,601.281555 951.420044,590.433777 
	C953.639648,591.367249 955.426880,592.118896 958.049438,593.221863 
	C965.868530,589.496582 969.831665,590.002197 975.734009,596.176880 
	C978.006775,594.666077 980.088562,592.705933 982.559021,591.747803 
	C990.000061,588.861755 997.371826,593.576843 998.062317,601.515564 
	C998.349915,604.821411 998.189026,608.166321 998.231995,611.969971 
z"/>
<path fill="#B3B3B3" opacity="1.000000" stroke="none" 
	d="
M503.898071,609.860596 
	C499.458099,621.601440 491.047546,624.044434 479.511719,616.794983 
	C479.511719,622.950256 479.511719,628.784241 479.511719,634.816223 
	C477.510956,634.816223 476.064575,634.816223 474.373108,634.816223 
	C474.373108,620.270264 474.373108,605.859436 474.373108,591.213989 
	C475.948425,591.213989 477.382538,591.213989 478.865997,591.213989 
	C479.135864,592.500549 479.396790,593.744385 479.588806,594.659851 
	C482.818176,593.393860 485.749115,591.618591 488.877747,591.142578 
	C496.478882,589.986023 505.975769,595.849182 503.898071,609.860596 
M499.083588,604.746033 
	C497.789703,597.876526 493.313599,594.279419 487.511230,595.446228 
	C482.076569,596.539001 478.588013,601.588440 479.308411,607.319214 
	C480.024445,613.015320 484.367493,616.992676 489.633728,616.775208 
	C495.306458,616.540894 498.675293,612.565308 499.083588,604.746033 
z"/>
<path fill="#B8B8B8" opacity="1.000000" stroke="none" 
	d="
M1501.015137,587.111206 
	C1501.015137,598.552368 1501.015137,609.507935 1501.015137,620.735352 
	C1499.325439,620.735352 1497.922119,620.735352 1496.152466,620.735352 
	C1496.054688,619.403748 1495.952637,618.014404 1495.848145,616.591675 
	C1485.036987,623.802063 1476.316406,623.111633 1471.539551,609.949463 
	C1469.329956,603.861084 1472.107422,596.871155 1476.919922,593.481018 
	C1482.294067,589.695190 1488.195801,590.244263 1495.961548,595.458374 
	C1495.961548,590.658325 1495.961548,586.081177 1495.961548,581.254578 
	C1497.704224,581.254578 1499.096924,581.254578 1501.015137,581.254578 
	C1501.015137,583.060669 1501.015137,584.843140 1501.015137,587.111206 
M1478.274292,613.048706 
	C1483.107910,617.432129 1487.932007,617.989746 1492.130127,614.650146 
	C1496.144653,611.456604 1497.238647,604.741272 1494.501465,600.094971 
	C1491.950928,595.765442 1486.542969,594.053772 1481.885498,596.102112 
	C1476.232300,598.588379 1474.585327,605.244507 1478.274292,613.048706 
z"/>
<path fill="#B3B3B3" opacity="1.000000" stroke="none" 
	d="
M760.565002,592.620117 
	C760.596069,602.200317 760.596069,611.336182 760.596069,620.415894 
	C756.840881,621.952332 755.007019,620.867310 755.108459,616.938232 
	C745.796448,622.531494 738.883240,622.199036 733.888184,616.100769 
	C729.217957,610.399109 729.397095,600.650146 734.269592,595.346741 
	C739.401428,589.760986 746.866943,589.564392 754.603088,594.887573 
	C755.291260,593.604370 755.686829,591.808228 756.748535,591.225220 
	C757.584351,590.766296 759.241577,591.803345 760.565002,592.620117 
M752.471008,613.900085 
	C753.199768,612.797485 754.236267,611.787720 754.601746,610.575623 
	C755.902161,606.262695 756.287842,601.540039 752.573975,598.567688 
	C750.181091,596.652527 746.322205,595.661865 743.189514,595.802063 
	C739.031311,595.988098 736.543152,599.225037 735.883606,603.434387 
	C735.175964,607.951233 735.785522,612.177979 739.879395,614.952942 
	C743.911621,617.686218 748.008240,617.295532 752.471008,613.900085 
z"/>
<path fill="#B3B3B3" opacity="1.000000" stroke="none" 
	d="
M849.882446,590.645142 
	C849.939331,592.021423 849.996155,592.948608 850.089600,594.474915 
	C851.534729,593.601074 852.440491,592.964905 853.419556,592.475220 
	C862.252686,588.056824 871.177490,592.976013 871.759949,602.815063 
	C872.103027,608.609985 871.822632,614.441895 871.822632,620.732361 
	C870.132629,620.833008 868.600403,620.924255 866.762695,621.033691 
	C866.762695,615.449585 866.862427,610.293396 866.737793,605.142700 
	C866.577026,598.503967 863.500916,595.105713 858.068604,595.284363 
	C852.805603,595.457397 850.000183,598.767761 849.904419,605.113953 
	C849.826965,610.250183 849.888733,615.388489 849.888733,620.768738 
	C848.077454,620.768738 846.656311,620.768738 845.005737,620.768738 
	C845.005737,607.591980 845.005737,594.491089 845.005737,581.184814 
	C846.498169,581.184814 847.945679,581.184814 849.882324,581.184814 
	C849.882324,584.273132 849.882324,587.234619 849.882446,590.645142 
z"/>
<path fill="#B3B3B3" opacity="1.000000" stroke="none" 
	d="
M1024.036377,620.334412 
	C1017.561218,621.984192 1012.320068,620.528137 1008.675659,615.368042 
	C1004.804138,609.886292 1004.643616,603.821289 1007.746460,597.946655 
	C1010.507019,592.720215 1015.299194,590.433838 1021.049683,591.134094 
	C1024.052124,591.499695 1026.908081,593.067444 1029.369507,593.930664 
	C1031.085449,592.778748 1032.909424,591.554260 1035.882080,589.558777 
	C1035.882080,600.072021 1035.891235,608.681946 1035.871094,617.291931 
	C1035.868530,618.428101 1035.717041,619.563904 1035.623535,620.851501 
	C1034.132202,620.851501 1032.832886,620.851501 1031.209229,620.851501 
	C1030.969727,619.713318 1030.715942,618.507324 1030.389893,616.957947 
	C1028.299805,618.089722 1026.361572,619.139343 1024.036377,620.334412 
M1018.304077,595.623047 
	C1013.037109,597.108398 1010.896667,600.807617 1010.887329,606.045227 
	C1010.879150,610.618469 1012.645081,614.148254 1016.990295,615.957886 
	C1020.891296,617.582397 1024.520264,616.835999 1027.589233,613.957031 
	C1030.837280,610.910034 1031.789673,605.276123 1029.686035,601.003235 
	C1027.536743,596.637329 1023.884644,594.809143 1018.304077,595.623047 
z"/>
<path fill="#B3B3B3" opacity="1.000000" stroke="none" 
	d="
M902.245728,594.297363 
	C902.464417,590.232178 904.914490,590.814392 907.571411,591.267090 
	C907.571411,600.922974 907.571411,610.632202 907.571411,620.699951 
	C904.579651,621.474487 902.062073,621.720398 902.648804,617.195618 
	C901.991638,617.195618 901.610107,617.073975 901.410828,617.213196 
	C893.985168,622.399353 886.834534,622.241272 881.707153,616.751648 
	C876.753113,611.447632 876.387939,601.751770 880.927490,596.055969 
	C885.715088,590.049133 893.028687,589.417847 900.957520,594.312439 
	C901.229004,594.480103 901.585815,594.509521 902.245728,594.297363 
M900.075562,598.519531 
	C895.035400,594.455078 890.138977,594.172363 886.166260,597.716675 
	C882.408875,601.068665 881.675964,607.959045 884.606079,612.383301 
	C887.288330,616.433350 892.450378,617.883179 896.937134,615.846741 
	C902.671387,613.244080 904.213135,606.160950 900.075562,598.519531 
z"/>
<path fill="#B3B3B3" opacity="1.000000" stroke="none" 
	d="
M590.484741,616.321289 
	C594.783020,617.174561 597.959412,616.177002 600.835144,613.270752 
	C602.034546,612.058655 604.285889,611.887512 606.808899,610.970459 
	C603.542786,619.624390 596.096008,622.892639 588.132019,620.190002 
	C580.512817,617.604370 576.748779,609.609497 579.105896,601.018372 
	C581.123352,593.665222 589.036987,589.390991 596.965515,591.372009 
	C604.546326,593.266174 608.429993,599.637451 606.820496,608.024841 
	C599.300415,608.024841 591.702759,608.024841 583.978882,608.024841 
	C583.683044,612.840820 586.231995,615.014099 590.484741,616.321289 
M598.562622,596.820129 
	C590.358521,593.563965 584.119019,596.544067 584.389648,603.472900 
	C590.255188,603.472900 596.110596,603.472900 603.253052,603.472900 
	C601.563293,600.831360 600.403015,599.017517 598.562622,596.820129 
z"/>
<path fill="#B8B8B8" opacity="1.000000" stroke="none" 
	d="
M1134.164062,615.742798 
	C1130.089111,609.624390 1129.829590,603.542419 1133.219727,597.548035 
	C1135.922241,592.769531 1140.519775,590.971985 1145.864868,591.005676 
	C1155.206299,591.064514 1160.806030,597.837158 1159.515137,607.954651 
	C1151.836792,607.954651 1144.093384,607.954651 1136.165771,607.954651 
	C1136.288452,612.387817 1138.355103,614.855225 1142.025879,616.067993 
	C1145.947144,617.363586 1149.451660,616.791382 1152.683472,613.970337 
	C1154.209961,612.637878 1156.256226,611.900635 1158.423706,611.431885 
	C1157.940918,616.472778 1154.898315,618.934692 1150.788696,620.187622 
	C1144.546265,622.090759 1138.961548,620.960327 1134.164062,615.742798 
M1143.956909,595.340271 
	C1139.562256,596.382568 1136.486450,598.606018 1136.306641,603.518799 
	C1142.594604,603.518799 1148.649536,603.518799 1154.749023,603.518799 
	C1153.698486,597.435974 1151.862671,595.968933 1143.956909,595.340271 
z"/>
<path fill="#B8B8B8" opacity="1.000000" stroke="none" 
	d="
M689.264404,613.788940 
	C695.458069,617.927246 699.451355,617.563232 704.284668,613.276672 
	C705.591187,612.117981 707.749023,611.919189 710.269592,611.007080 
	C707.131470,619.321655 700.264648,622.605225 692.553589,620.473389 
	C684.838013,618.340210 680.546814,610.832886 682.262573,602.469543 
	C683.879700,594.587036 690.697021,589.958008 699.004944,591.101257 
	C706.971313,592.197449 711.284180,598.104980 710.796570,607.738647 
	C703.102356,607.738647 695.361938,607.738647 686.629822,607.738647 
	C687.608093,610.140503 688.292969,611.822021 689.264404,613.788940 
M687.204529,602.844299 
	C693.367737,603.297913 699.530945,603.751526 706.036011,604.230347 
	C705.356934,598.065002 702.096863,595.824524 697.604187,595.366577 
	C692.569580,594.853455 688.918396,597.043701 687.204529,602.844299 
z"/>
<path fill="#B8B8B8" opacity="1.000000" stroke="none" 
	d="
M1097.987549,606.993103 
	C1097.987549,598.199219 1097.987549,589.903687 1097.987549,581.247437 
	C1099.617188,581.143005 1101.013062,581.053528 1102.914795,580.931641 
	C1102.914795,585.554016 1102.914795,589.931702 1102.914795,594.759094 
	C1104.856934,593.634705 1106.178833,592.687744 1107.637207,592.054932 
	C1116.186035,588.345459 1124.599854,593.538818 1124.950562,602.864197 
	C1125.168823,608.664795 1124.990967,614.480286 1124.990967,620.655579 
	C1123.470947,620.811707 1122.071533,620.955383 1120.500366,621.116760 
	C1120.302002,620.332703 1120.018677,619.723022 1120.013184,619.110779 
	C1119.968262,614.121460 1120.090332,609.128174 1119.935791,604.143127 
	C1119.762329,598.547729 1116.808105,595.423401 1111.871216,595.263794 
	C1106.778687,595.099182 1103.303833,598.379333 1103.090942,604.005737 
	C1102.884399,609.464905 1103.046021,614.937927 1103.046021,620.767273 
	C1101.369995,620.864258 1099.971191,620.945190 1097.987549,621.059937 
	C1097.987549,616.367615 1097.987549,611.929504 1097.987549,606.993103 
z"/>
<path fill="#B8B8B8" opacity="1.000000" stroke="none" 
	d="
M648.987366,591.033020 
	C648.987366,587.565002 648.987366,584.590881 648.987366,581.258972 
	C650.609131,581.147766 652.006287,581.051880 653.906738,580.921570 
	C653.906738,585.547668 653.906738,589.926697 653.906738,594.890686 
	C655.582275,593.817932 656.603699,593.045776 657.724426,592.465149 
	C666.382507,587.978882 675.574402,593.153503 675.949402,602.855774 
	C676.173645,608.656738 675.990662,614.473511 675.990662,620.645081 
	C674.343506,620.645081 672.847900,620.645081 670.977173,620.645081 
	C670.977173,615.232971 671.060791,609.938599 670.954956,604.647888 
	C670.835632,598.682495 667.953857,595.431702 662.876892,595.264099 
	C657.613281,595.090454 654.232422,598.507385 654.062988,604.498718 
	C653.913147,609.795654 654.031555,615.100220 654.031555,620.763306 
	C652.372925,620.862305 650.973999,620.945740 648.987366,621.064331 
	C648.987366,611.048767 648.987366,601.287842 648.987366,591.033020 
z"/>
<path fill="#B3B3B3" opacity="1.000000" stroke="none" 
	d="
M1294.787598,615.161682 
	C1296.123901,612.215881 1297.726562,609.570007 1297.979248,606.800903 
	C1298.443115,601.716858 1298.111572,596.560181 1298.111572,591.210754 
	C1299.953613,591.210754 1301.380493,591.210754 1303.012207,591.210754 
	C1303.012207,601.077820 1303.012207,610.832214 1303.012207,621.691589 
	C1300.780273,620.666016 1299.023438,619.858765 1297.266602,619.051453 
	C1297.391602,618.617188 1297.516602,618.182861 1297.641724,617.748596 
	C1296.528442,618.411255 1295.455811,619.156921 1294.295532,619.723083 
	C1286.070679,623.736633 1277.157959,618.941833 1276.290161,609.814087 
	C1275.866943,605.362488 1276.158325,600.842651 1276.132080,596.353699 
	C1276.122559,594.720032 1276.130493,593.086243 1276.130493,591.218445 
	C1277.959229,591.218445 1279.384644,591.218445 1281.235352,591.218445 
	C1281.235352,596.430054 1281.140259,601.546692 1281.256592,606.658569 
	C1281.454956,615.379883 1286.110596,618.424561 1294.787598,615.161682 
z"/>
<path fill="#B8B8B8" opacity="1.000000" stroke="none" 
	d="
M435.519775,599.987793 
	C436.969177,600.981873 437.978668,601.975525 438.988159,602.969177 
	C438.651917,603.363281 438.315674,603.757446 437.979462,604.151550 
	C433.846527,604.151550 429.713593,604.151550 425.299194,604.151550 
	C425.299194,608.375977 425.299194,612.295044 425.299194,616.373535 
	C430.289917,616.763794 435.289154,617.127563 440.269653,617.665344 
	C440.431732,617.682800 440.402252,619.474609 440.480194,620.731445 
	C433.701965,620.731445 427.120544,620.731445 420.261810,620.731445 
	C420.261810,608.294678 420.261810,595.899414 420.261810,583.244873 
	C426.916534,583.244873 433.488831,583.244873 440.118835,583.244873 
	C441.081207,586.037170 440.492615,587.371582 437.336151,587.238953 
	C433.361877,587.072021 429.375305,587.198669 425.206055,587.198669 
	C425.206055,591.483215 425.206055,595.437622 425.206055,599.987427 
	C428.534760,599.987427 431.807343,599.987427 435.519775,599.987793 
z"/>
<path fill="#B3B3B3" opacity="1.000000" stroke="none" 
	d="
M1244.360596,617.725708 
	C1238.900879,612.343994 1237.877319,606.245178 1240.501709,599.655334 
	C1242.754272,593.998352 1247.411743,591.325806 1253.363281,591.029297 
	C1259.715576,590.712830 1264.928589,593.095825 1267.684692,598.953430 
	C1270.318115,604.550293 1270.082153,610.364380 1266.099487,615.394775 
	C1261.967896,620.613281 1256.312134,621.987549 1250.001465,620.469421 
	C1248.123657,620.017761 1246.426025,618.817749 1244.360596,617.725708 
M1246.831299,613.592896 
	C1251.754150,617.551392 1256.659424,617.804016 1260.723389,614.308350 
	C1264.520264,611.042419 1265.366089,604.203186 1262.526733,599.727173 
	C1259.986938,595.723450 1254.888916,594.183655 1250.286499,596.030151 
	C1244.326050,598.421509 1242.643677,605.632019 1246.831299,613.592896 
z"/>
<path fill="#B3B3B3" opacity="1.000000" stroke="none" 
	d="
M535.391663,591.095825 
	C542.690430,590.634827 548.263062,592.765259 551.368469,599.330505 
	C554.078369,605.059570 553.035522,612.210999 548.742798,616.448792 
	C544.066528,621.065247 538.408325,622.167664 532.222717,620.092285 
	C525.984558,617.999329 522.631836,612.605591 522.824951,605.335693 
	C523.022034,597.915833 526.735413,593.575256 535.391663,591.095825 
M539.065247,616.649902 
	C544.550903,615.566589 547.408081,612.045776 547.692444,606.646973 
	C547.934631,602.048035 546.335327,598.104248 541.788757,596.127380 
	C537.980652,594.471558 534.205933,594.936768 531.111633,597.699524 
	C527.321350,601.083740 527.181519,605.650269 528.430420,610.104553 
	C529.768372,614.876648 533.488525,616.783691 539.065247,616.649902 
z"/>
<path fill="#B3B3B3" opacity="1.000000" stroke="none" 
	d="
M1417.625244,620.933838 
	C1410.251099,621.341370 1404.663818,618.994568 1401.995361,612.254395 
	C1399.650635,606.331970 1400.167969,600.491089 1404.649170,595.537354 
	C1408.669434,591.093323 1415.659912,589.732117 1421.639404,592.039062 
	C1427.505493,594.302063 1431.121582,600.021851 1430.826904,606.571167 
	C1430.492554,613.998718 1426.402832,618.584045 1417.625244,620.933838 
M1417.804321,616.446899 
	C1423.342041,614.406921 1425.918457,611.119751 1425.736572,605.884277 
	C1425.583252,601.472717 1423.975830,597.764771 1419.535278,596.034302 
	C1415.460449,594.446350 1411.570435,595.041321 1408.577759,598.244873 
	C1405.180420,601.881531 1405.102661,606.408508 1406.714844,610.812561 
	C1408.434448,615.510010 1412.286987,617.041748 1417.804321,616.446899 
z"/>
<path fill="#B3B3B3" opacity="1.000000" stroke="none" 
	d="
M1212.278076,591.394226 
	C1215.474854,599.056946 1218.351074,606.487915 1221.637207,614.977844 
	C1224.423828,607.634338 1227.029541,601.254578 1229.240112,594.740723 
	C1230.377319,591.389709 1232.056641,590.059326 1235.716675,591.473755 
	C1230.124756,605.318726 1224.625977,619.198364 1218.798950,632.938782 
	C1218.232300,634.274719 1215.637573,634.750488 1213.618774,635.818909 
	C1213.507568,634.403259 1213.355591,634.030518 1213.480713,633.837646 
	C1219.469482,624.608582 1218.208618,615.629578 1213.149414,606.402832 
	C1210.615967,601.782532 1209.118286,596.594238 1206.952759,591.162537 
	C1208.842285,591.162537 1210.399902,591.162537 1212.278076,591.394226 
z"/>
<path fill="#B3B3B3" opacity="1.000000" stroke="none" 
	d="
M1440.163086,616.834595 
	C1432.046265,605.949280 1436.826294,592.462830 1448.943115,591.062927 
	C1455.650391,590.288025 1461.608276,593.266418 1464.389648,598.784851 
	C1467.284424,604.528259 1466.306152,611.922363 1462.056274,616.422607 
	C1457.713501,621.021484 1450.046387,622.426636 1444.113647,619.596558 
	C1442.788086,618.964172 1441.649170,617.940430 1440.163086,616.834595 
M1460.863525,603.983398 
	C1460.629883,603.192566 1460.471924,602.369446 1460.150757,601.615967 
	C1457.787354,596.073853 1452.035156,593.758301 1446.669434,596.159119 
	C1441.491821,598.475647 1439.349731,605.958252 1442.235107,611.649170 
	C1444.704224,616.518860 1450.963013,618.270691 1455.917358,615.371216 
	C1459.947266,613.012695 1461.201416,609.239319 1460.863525,603.983398 
z"/>
<path fill="#B3B3B3" opacity="1.000000" stroke="none" 
	d="
M1166.395264,615.611694 
	C1166.004272,614.352478 1165.811890,613.399292 1165.619507,612.446045 
	C1165.918701,612.031128 1166.217896,611.616150 1166.517090,611.201233 
	C1168.285400,612.307495 1169.944580,613.685486 1171.849976,614.450378 
	C1174.178101,615.385193 1176.725098,616.302673 1179.153442,616.243896 
	C1180.416016,616.213379 1182.463379,614.159180 1182.610229,612.846252 
	C1182.739258,611.691589 1180.963745,609.791016 1179.589111,609.115112 
	C1176.937256,607.811157 1173.552490,607.716492 1171.260742,606.040955 
	C1168.998169,604.386719 1166.316528,601.357849 1166.385010,599.006836 
	C1166.454590,596.617798 1169.178833,593.360046 1171.578735,592.162659 
	C1178.743774,588.587830 1186.135254,592.164001 1187.959717,599.729492 
	C1185.494751,600.486511 1183.780029,600.628784 1181.941162,597.888489 
	C1180.922485,596.370544 1177.960083,595.403137 1175.959351,595.530457 
	C1174.282837,595.637207 1172.730347,597.692078 1171.122803,598.884277 
	C1172.306030,600.295654 1173.222290,602.222168 1174.731567,603.004211 
	C1177.348999,604.360535 1180.725342,604.458618 1183.049438,606.114502 
	C1185.201050,607.647522 1187.671265,610.540710 1187.651367,612.814392 
	C1187.630981,615.163513 1185.279175,618.301880 1183.066528,619.660400 
	C1177.809937,622.887756 1171.053345,621.002502 1166.395264,615.611694 
z"/>
<path fill="#B3B3B3" opacity="1.000000" stroke="none" 
	d="
M1077.871826,595.296936 
	C1069.755859,596.519531 1066.518066,601.352112 1068.119751,609.181702 
	C1069.221680,614.567688 1073.989624,617.797180 1079.292358,616.385376 
	C1081.095825,615.905151 1082.641235,614.450745 1084.300537,613.434937 
	C1086.023682,612.380066 1087.741943,611.317444 1090.347534,609.713318 
	C1088.997803,617.633301 1083.853882,621.295776 1076.409790,621.006348 
	C1068.821899,620.711304 1063.389648,615.368103 1062.875366,607.693542 
	C1062.291748,598.988037 1066.500977,592.686829 1074.038330,591.233337 
	C1081.355835,589.822266 1089.505859,593.442017 1090.647827,602.200562 
	C1087.809082,600.488464 1085.918213,599.273560 1083.956665,598.186523 
	C1082.110107,597.163269 1080.189087,596.274902 1077.871826,595.296936 
z"/>
<path fill="#B3B3B3" opacity="1.000000" stroke="none" 
	d="
M463.692322,620.748474 
	C461.373901,617.519104 459.408356,614.444580 457.417358,611.386597 
	C457.247467,611.125671 456.908112,610.975098 456.699158,610.813232 
	C452.103210,613.178345 453.462830,622.320374 444.869415,620.750977 
	C447.444641,616.708984 449.687836,612.849609 452.281586,609.242310 
	C453.869507,607.033936 454.047638,605.383240 452.384735,603.084595 
	C449.774139,599.476074 447.573517,595.570862 444.940430,591.379211 
	C453.570251,589.442444 452.723328,598.514893 457.312531,600.984314 
	C461.677887,598.716370 460.485657,589.654907 468.952850,591.209045 
	C466.407959,595.220703 464.181671,599.088318 461.586121,602.689941 
	C459.979736,604.919006 459.883087,606.609314 461.488251,608.881592 
	C464.062317,612.525391 466.291840,616.412598 469.113068,620.907654 
	C467.058136,620.907654 465.548309,620.907654 463.692322,620.748474 
z"/>
<path fill="#B3B3B3" opacity="1.000000" stroke="none" 
	d="
M917.768188,610.556030 
	C917.768005,606.774963 917.837769,603.443604 917.742432,600.117004 
	C917.681702,597.998474 918.727722,595.155762 914.842163,595.044922 
	C914.471924,595.034302 913.630005,593.044739 913.891357,592.745056 
	C914.817566,591.682922 916.127502,590.955444 917.766846,589.752930 
	C917.766846,588.475830 917.766846,586.506653 917.766846,584.229370 
	C919.412598,584.133728 920.834900,584.051025 922.602112,583.948303 
	C922.761475,586.281982 922.904114,588.372009 923.067871,590.770203 
	C925.253784,590.899963 927.345398,591.024170 929.597473,591.157898 
	C930.859741,597.794922 925.044861,593.804688 922.895874,596.361389 
	C922.895874,601.449280 922.423279,607.307312 923.159729,613.009216 
	C923.407654,614.928833 926.726807,616.451904 928.642273,618.156250 
	C928.988708,617.835571 929.335205,617.514893 929.681641,617.194275 
	C929.681641,618.304932 929.681641,619.415588 929.681641,620.504822 
	C920.372498,621.974182 918.027771,620.078918 917.768188,610.556030 
z"/>
<path fill="#B3B3B3" opacity="1.000000" stroke="none" 
	d="
M1050.869507,603.990967 
	C1050.869507,606.146790 1051.016357,607.825806 1050.842163,609.470764 
	C1050.316772,614.434265 1051.492676,617.817322 1057.652466,616.822998 
	C1057.652466,618.252869 1057.652466,619.362061 1057.652466,620.471375 
	C1048.427490,622.109680 1045.821289,619.943726 1045.770996,610.609314 
	C1045.752319,607.116211 1045.843018,603.620850 1045.739624,600.130737 
	C1045.677246,598.027588 1046.762573,595.164307 1042.859253,595.053345 
	C1042.483398,595.042603 1041.632324,593.070007 1041.891846,592.764832 
	C1042.798096,591.699097 1044.094849,590.965393 1045.751953,589.724670 
	C1045.751953,588.494324 1045.751953,586.529968 1045.751953,584.249512 
	C1047.393311,584.142578 1048.808228,584.050415 1050.593872,583.934021 
	C1050.754639,586.265808 1050.898315,588.350403 1051.061646,590.719360 
	C1053.220825,590.881042 1055.310059,591.037537 1057.620605,591.210632 
	C1057.620605,592.451233 1057.620605,593.535095 1057.620605,594.909790 
	C1055.510986,595.103210 1053.427124,595.294250 1050.869507,595.528687 
	C1050.869507,598.255127 1050.869507,600.876831 1050.869507,603.990967 
z"/>
<path fill="#B3B3B3" opacity="1.000000" stroke="none" 
	d="
M830.871094,588.053894 
	C831.242554,593.543274 835.656982,589.407104 837.620667,591.786560 
	C837.620667,592.451843 837.620667,593.536682 837.620667,594.910522 
	C835.507385,595.103577 833.421387,595.294189 830.894775,595.525085 
	C830.894775,601.421631 830.425598,607.272217 831.155640,612.969177 
	C831.402893,614.898804 834.681763,616.439880 836.575256,618.158569 
	C836.941040,617.825500 837.306763,617.492493 837.672485,617.159424 
	C837.672485,618.273071 837.672485,619.386780 837.672485,620.488281 
	C828.319519,622.048645 825.817993,619.943787 825.770752,610.546204 
	C825.753174,607.050171 825.813416,603.553162 825.750916,600.058167 
	C825.712219,597.890320 826.604004,595.128662 822.788513,595.019043 
	C822.435913,595.008911 821.621582,592.980408 821.890198,592.688599 
	C822.849670,591.646301 824.183716,590.948853 825.801025,589.825867 
	C825.801025,588.434692 825.801025,586.457153 825.801025,584.406921 
	C828.872742,583.615234 831.403259,583.237915 830.871094,588.053894 
z"/>
<path fill="#B8B8B8" opacity="1.000000" stroke="none" 
	d="
M640.287476,595.179688 
	C638.369202,595.195129 636.895264,595.195129 635.020630,595.195129 
	C635.020630,601.251282 635.098083,606.877380 634.997498,612.500244 
	C634.907776,617.516968 638.844849,616.478333 641.840454,617.090088 
	C641.840454,618.274963 641.840454,619.403076 641.840454,620.525208 
	C632.483154,621.951294 630.002014,619.843262 629.986511,610.482117 
	C629.978516,605.656738 629.985107,600.831360 629.985107,597.244568 
	C628.191833,595.230957 627.095337,593.999695 625.998779,592.768433 
	C627.080933,591.902039 628.163086,591.035645 629.847961,589.686707 
	C629.847961,588.644043 629.847961,586.683655 629.847961,584.356812 
	C631.614075,584.356812 633.127441,584.356812 634.914917,584.356812 
	C634.914917,586.408020 634.914917,588.361145 634.914917,590.704041 
	C637.226074,590.867126 639.306213,591.013855 642.260254,591.222290 
	C641.699036,592.669678 641.215393,593.916992 640.287476,595.179688 
z"/>
<path fill="#B8B8B8" opacity="1.000000" stroke="none" 
	d="
M796.012634,601.034302 
	C796.012634,604.191650 796.227966,606.875427 795.966553,609.511963 
	C795.462952,614.590515 796.834534,617.769165 802.840942,616.849487 
	C802.840942,618.275635 802.840942,619.401611 802.840942,620.525085 
	C793.491577,621.951721 791.002380,619.840454 790.986633,610.499268 
	C790.978455,605.677917 790.985168,600.856628 790.985168,597.204163 
	C789.215027,595.250122 788.106812,594.026733 786.998535,592.803345 
	C788.059692,591.924377 789.120911,591.045410 790.821777,589.636536 
	C790.821777,588.676636 790.821777,586.716736 790.821777,584.373535 
	C792.576050,584.373535 794.081299,584.373535 795.879822,584.373535 
	C795.879822,586.368774 795.879822,588.319946 795.879822,590.685059 
	C798.180969,590.857605 800.256836,591.013184 802.743591,591.199646 
	C802.807373,592.359924 802.873840,593.569153 802.950928,594.971802 
	C800.584900,595.142883 798.479309,595.295166 796.012634,595.473572 
	C796.012634,597.270386 796.012634,598.904907 796.012634,601.034302 
z"/>
<path fill="#A7A7A7" opacity="1.000000" stroke="none" 
	d="
M511.351440,584.372559 
	C511.089691,579.860901 513.804443,581.000732 516.338867,581.185974 
	C516.338867,594.261292 516.338867,607.284546 516.338867,620.795776 
	C514.869873,620.870056 513.344971,620.947144 511.350433,621.048035 
	C511.350433,608.677795 511.350433,596.755127 511.351440,584.372559 
z"/>
<path fill="#B3B3B3" opacity="1.000000" stroke="none" 
	d="
M777.693054,597.605713 
	C776.553589,600.295593 775.185913,602.685547 775.004578,605.162415 
	C774.631470,610.260925 774.892334,615.405884 774.892334,620.771667 
	C773.075806,620.771667 771.656677,620.771667 770.007080,620.771667 
	C770.007080,610.944580 770.007080,601.193665 770.007080,590.172913 
	C772.290588,591.344788 774.054382,592.249878 775.818115,593.155029 
	C775.562683,593.527161 775.307251,593.899292 775.051819,594.271423 
	C777.809082,593.029114 780.566284,591.786804 783.892212,590.288269 
	C784.048401,592.597717 784.143677,594.006165 784.237000,595.386047 
	C782.007507,596.086548 780.004639,596.715820 777.693054,597.605713 
z"/>
<path fill="#B3B3B3" opacity="1.000000" stroke="none" 
	d="
M1321.756836,596.369019 
	C1317.086060,597.915771 1316.357300,601.474792 1316.273804,605.265991 
	C1316.160889,610.389404 1316.245728,615.517212 1316.245728,620.825195 
	C1314.461060,620.825195 1313.023926,620.825195 1311.358765,620.825195 
	C1311.358765,610.896118 1311.358765,601.160217 1311.358765,591.201660 
	C1313.822021,591.157654 1316.833740,589.394531 1316.422485,594.072266 
	C1319.547363,592.826355 1322.316650,591.722290 1325.197754,590.573608 
	C1326.562012,594.461426 1325.984497,596.421204 1321.756836,596.369019 
z"/>
<path fill="#B8B8B8" opacity="1.000000" stroke="none" 
	d="
M574.543823,593.884888 
	C573.754700,594.869080 573.027100,595.880920 572.178833,595.994873 
	C567.079834,596.679688 565.125977,599.879761 565.052795,604.587158 
	C564.970703,609.869934 565.033936,615.154907 565.033936,620.721924 
	C563.332520,620.721924 561.938416,620.721924 560.263672,620.721924 
	C560.263672,611.062134 560.263672,601.345276 560.263672,591.198242 
	C561.583252,591.122986 562.973999,591.043701 564.757141,590.942078 
	C564.927185,592.279297 565.074585,593.438232 565.215759,594.547913 
	C567.437378,593.386719 569.359680,592.052795 571.489136,591.444702 
	C572.251709,591.226929 573.514832,592.762329 574.543823,593.884888 
z"/>
<path fill="#050505" opacity="1.000000" stroke="none" 
	d="
M738.156738,456.889465 
	C756.463318,450.228546 774.006653,458.517670 777.663269,475.305420 
	C778.080383,477.220581 778.069153,479.229034 778.291809,481.563660 
	C759.369568,481.563660 740.806335,481.563660 721.798950,481.563660 
	C722.674194,470.377350 727.619019,462.045166 738.156738,456.889465 
z"/>
<path fill="#020202" opacity="1.000000" stroke="none" 
	d="
M1253.588867,485.143677 
	C1256.016113,459.319855 1279.172974,446.431854 1299.794189,458.970764 
	C1310.955200,465.757324 1316.265015,480.317261 1313.285522,495.964600 
	C1309.684448,514.875427 1292.270020,525.622009 1273.980347,520.065430 
	C1262.377319,516.540283 1256.428101,508.009857 1254.307617,496.547150 
	C1253.647705,492.979614 1253.787476,489.264191 1253.588867,485.143677 
z"/>
<path fill="#020202" opacity="1.000000" stroke="none" 
	d="
M964.315430,514.733765 
	C952.837463,503.139435 950.327698,482.528351 958.460938,468.653931 
	C968.908691,450.831360 995.769043,449.572937 1008.011475,466.332458 
	C1015.733032,476.902893 1016.530029,495.430389 1009.747559,506.689850 
	C1000.265991,522.430298 980.004761,526.145630 964.315430,514.733765 
z"/>
<path fill="#050505" opacity="1.000000" stroke="none" 
	d="
M499.100006,605.165283 
	C498.675293,612.565308 495.306458,616.540894 489.633728,616.775208 
	C484.367493,616.992676 480.024445,613.015320 479.308411,607.319214 
	C478.588013,601.588440 482.076569,596.539001 487.511230,595.446228 
	C493.313599,594.279419 497.789703,597.876526 499.100006,605.165283 
z"/>
<path fill="#050505" opacity="1.000000" stroke="none" 
	d="
M1478.063965,612.722778 
	C1474.585327,605.244507 1476.232300,598.588379 1481.885498,596.102112 
	C1486.542969,594.053772 1491.950928,595.765442 1494.501465,600.094971 
	C1497.238647,604.741272 1496.144653,611.456604 1492.130127,614.650146 
	C1487.932007,617.989746 1483.107910,617.432129 1478.063965,612.722778 
z"/>
<path fill="#050505" opacity="1.000000" stroke="none" 
	d="
M752.184265,614.163940 
	C748.008240,617.295532 743.911621,617.686218 739.879395,614.952942 
	C735.785522,612.177979 735.175964,607.951233 735.883606,603.434387 
	C736.543152,599.225037 739.031311,595.988098 743.189514,595.802063 
	C746.322205,595.661865 750.181091,596.652527 752.573975,598.567688 
	C756.287842,601.540039 755.902161,606.262695 754.601746,610.575623 
	C754.236267,611.787720 753.199768,612.797485 752.184265,614.163940 
z"/>
<path fill="#050505" opacity="1.000000" stroke="none" 
	d="
M1018.673340,595.509460 
	C1023.884644,594.809143 1027.536743,596.637329 1029.686035,601.003235 
	C1031.789673,605.276123 1030.837280,610.910034 1027.589233,613.957031 
	C1024.520264,616.835999 1020.891296,617.582397 1016.990295,615.957886 
	C1012.645081,614.148254 1010.879150,610.618469 1010.887329,606.045227 
	C1010.896667,600.807617 1013.037109,597.108398 1018.673340,595.509460 
z"/>
<path fill="#050505" opacity="1.000000" stroke="none" 
	d="
M900.329834,598.805359 
	C904.213135,606.160950 902.671387,613.244080 896.937134,615.846741 
	C892.450378,617.883179 887.288330,616.433350 884.606079,612.383301 
	C881.675964,607.959045 882.408875,601.068665 886.166260,597.716675 
	C890.138977,594.172363 895.035400,594.455078 900.329834,598.805359 
z"/>
<path fill="#050505" opacity="1.000000" stroke="none" 
	d="
M598.902710,597.011841 
	C600.403015,599.017517 601.563293,600.831360 603.253052,603.472900 
	C596.110596,603.472900 590.255188,603.472900 584.389648,603.472900 
	C584.119019,596.544067 590.358521,593.563965 598.902710,597.011841 
z"/>
<path fill="#050505" opacity="1.000000" stroke="none" 
	d="
M1144.344727,595.290283 
	C1151.862671,595.968933 1153.698486,597.435974 1154.749023,603.518799 
	C1148.649536,603.518799 1142.594604,603.518799 1136.306641,603.518799 
	C1136.486450,598.606018 1139.562256,596.382568 1144.344727,595.290283 
z"/>
<path fill="#050505" opacity="1.000000" stroke="none" 
	d="
M687.235474,602.445435 
	C688.918396,597.043701 692.569580,594.853455 697.604187,595.366577 
	C702.096863,595.824524 705.356934,598.065002 706.036011,604.230347 
	C699.530945,603.751526 693.367737,603.297913 687.235474,602.445435 
z"/>
<path fill="#050505" opacity="1.000000" stroke="none" 
	d="
M1246.577881,613.301819 
	C1242.643677,605.632019 1244.326050,598.421509 1250.286499,596.030151 
	C1254.888916,594.183655 1259.986938,595.723450 1262.526733,599.727173 
	C1265.366089,604.203186 1264.520264,611.042419 1260.723389,614.308350 
	C1256.659424,617.804016 1251.754150,617.551392 1246.577881,613.301819 
z"/>
<path fill="#050505" opacity="1.000000" stroke="none" 
	d="
M538.679382,616.704346 
	C533.488525,616.783691 529.768372,614.876648 528.430420,610.104553 
	C527.181519,605.650269 527.321350,601.083740 531.111633,597.699524 
	C534.205933,594.936768 537.980652,594.471558 541.788757,596.127380 
	C546.335327,598.104248 547.934631,602.048035 547.692444,606.646973 
	C547.408081,612.045776 544.550903,615.566589 538.679382,616.704346 
z"/>
<path fill="#050505" opacity="1.000000" stroke="none" 
	d="
M1417.430420,616.549194 
	C1412.286987,617.041748 1408.434448,615.510010 1406.714844,610.812561 
	C1405.102661,606.408508 1405.180420,601.881531 1408.577759,598.244873 
	C1411.570435,595.041321 1415.460449,594.446350 1419.535278,596.034302 
	C1423.975830,597.764771 1425.583252,601.472717 1425.736572,605.884277 
	C1425.918457,611.119751 1423.342041,614.406921 1417.430420,616.549194 
z"/>
<path fill="#050505" opacity="1.000000" stroke="none" 
	d="
M1460.899170,604.388062 
	C1461.201416,609.239319 1459.947266,613.012695 1455.917358,615.371216 
	C1450.963013,618.270691 1444.704224,616.518860 1442.235107,611.649170 
	C1439.349731,605.958252 1441.491821,598.475647 1446.669434,596.159119 
	C1452.035156,593.758301 1457.787354,596.073853 1460.150757,601.615967 
	C1460.471924,602.369446 1460.629883,603.192566 1460.899170,604.388062 
z"/>
</svg>