<?xml version="1.0" encoding="utf-8"?>
<!-- Generator: Adobe Illustrator 27.8.1, SVG Export Plug-In . SVG Version: 6.00 Build 0)  -->
<svg version="1.1" id="Layer_1" xmlns="http://www.w3.org/2000/svg" xmlns:xlink="http://www.w3.org/1999/xlink" x="0px" y="0px"
	 viewBox="0 0 1157 476" style="enable-background:new 0 0 1157 476;" xml:space="preserve">
<style type="text/css">
	.st0{opacity:0.4;fill:none;stroke:#FFFFFF;stroke-width:6;enable-background:new    ;}
	.st1{fill:#FFFFFF;}
</style>
<rect x="44" y="183" class="st0" width="31.1" height="49.7"/>
<path class="st1" d="M42.5,242.9c-0.2,0.2-0.2,0.5,0,0.7l3.2,3.2c0.2,0.2,0.5,0.2,0.7,0c0.2-0.2,0.2-0.5,0-0.7l-2.8-2.8l2.8-2.8
	c0.2-0.2,0.2-0.5,0-0.7c-0.2-0.2-0.5-0.2-0.7,0L42.5,242.9z M75.7,243.7c0.2-0.2,0.2-0.5,0-0.7l-3.2-3.2c-0.2-0.2-0.5-0.2-0.7,0
	c-0.2,0.2-0.2,0.5,0,0.7l2.8,2.8l-2.8,2.8c-0.2,0.2-0.2,0.5,0,0.7c0.2,0.2,0.5,0.2,0.7,0L75.7,243.7z M42.9,243.8h32.5v-1H42.9
	V243.8z"/>
<g>
	<path class="st1" d="M59.7,245.7v5.7h-1.1V247l-1.4,0.4v-0.9l2.4-0.8H59.7z"/>
</g>
<path class="st1" d="M83.9,232.4c0.2,0.2,0.5,0.2,0.7,0l3.2-3.2c0.2-0.2,0.2-0.5,0-0.7c-0.2-0.2-0.5-0.2-0.7,0l-2.8,2.8l-2.8-2.8
	c-0.2-0.2-0.5-0.2-0.7,0c-0.2,0.2-0.2,0.5,0,0.7L83.9,232.4z M84.6,181.5c-0.2-0.2-0.5-0.2-0.7,0l-3.2,3.2c-0.2,0.2-0.2,0.5,0,0.7
	c0.2,0.2,0.5,0.2,0.7,0l2.8-2.8l2.8,2.8c0.2,0.2,0.5,0.2,0.7,0c0.2-0.2,0.2-0.5,0-0.7L84.6,181.5z M84.8,232v-50.1h-1V232H84.8z"/>
<g>
	<path class="st1" d="M90.8,205.1h0.9v3.9H91l-2-1.8c-0.2-0.2-0.4-0.3-0.5-0.4c-0.2-0.1-0.3-0.2-0.4-0.2c-0.1-0.1-0.2-0.1-0.4-0.1
		c-0.2,0-0.3,0-0.4,0.1c-0.1,0.1-0.2,0.1-0.3,0.3c-0.1,0.1-0.1,0.2-0.1,0.4c0,0.2,0,0.3,0.1,0.4c0.1,0.1,0.2,0.2,0.3,0.3
		c0.1,0.1,0.3,0.1,0.5,0.1v1.1c-0.3,0-0.6-0.1-0.9-0.2c-0.3-0.2-0.5-0.4-0.7-0.7c-0.2-0.3-0.3-0.6-0.3-1c0-0.4,0.1-0.7,0.2-1
		c0.1-0.3,0.3-0.5,0.6-0.6c0.2-0.1,0.5-0.2,0.9-0.2c0.2,0,0.4,0,0.6,0.1c0.2,0.1,0.4,0.1,0.5,0.3c0.2,0.1,0.4,0.2,0.5,0.4
		c0.2,0.2,0.4,0.3,0.6,0.5l1.1,1V205.1z"/>
</g>
<rect x="125" y="183" class="st0" width="27.4" height="53.4"/>
<path class="st1" d="M121.6,244.6c-0.2,0.2-0.2,0.5,0,0.7l3.2,3.2c0.2,0.2,0.5,0.2,0.7,0c0.2-0.2,0.2-0.5,0-0.7l-2.8-2.8l2.8-2.8
	c0.2-0.2,0.2-0.5,0-0.7c-0.2-0.2-0.5-0.2-0.7,0L121.6,244.6z M154.9,245.4c0.2-0.2,0.2-0.5,0-0.7l-3.2-3.2c-0.2-0.2-0.5-0.2-0.7,0
	c-0.2,0.2-0.2,0.5,0,0.7l2.8,2.8l-2.8,2.8c-0.2,0.2-0.2,0.5,0,0.7c0.2,0.2,0.5,0.2,0.7,0L154.9,245.4z M122,245.5h32.5v-1H122V245.5
	z"/>
<g>
	<path class="st1" d="M139.1,251.9L139.1,251.9c0.4,0,0.7,0,0.9-0.1c0.2-0.1,0.4-0.2,0.6-0.3c0.1-0.1,0.3-0.3,0.3-0.5
		c0.1-0.2,0.1-0.5,0.1-0.7v-1.1c0-0.2,0-0.4-0.1-0.5c0-0.2-0.1-0.3-0.2-0.4c-0.1-0.1-0.2-0.2-0.3-0.2c-0.1-0.1-0.2-0.1-0.3-0.1
		c-0.1,0-0.2,0-0.3,0.1c-0.1,0.1-0.2,0.1-0.2,0.2c-0.1,0.1-0.1,0.2-0.2,0.4c0,0.1-0.1,0.3-0.1,0.4c0,0.1,0,0.3,0.1,0.4
		c0,0.1,0.1,0.2,0.2,0.3c0.1,0.1,0.2,0.2,0.3,0.2c0.1,0.1,0.2,0.1,0.4,0.1c0.1,0,0.3,0,0.4-0.1c0.1-0.1,0.2-0.1,0.3-0.2
		c0.1-0.1,0.1-0.2,0.2-0.3c0-0.1,0.1-0.2,0.1-0.3l0.4,0.2c0,0.2,0,0.4-0.1,0.5c-0.1,0.2-0.2,0.3-0.3,0.5c-0.1,0.1-0.3,0.3-0.5,0.3
		c-0.2,0.1-0.4,0.1-0.6,0.1c-0.3,0-0.5,0-0.7-0.1c-0.2-0.1-0.4-0.2-0.5-0.4c-0.1-0.2-0.2-0.4-0.3-0.6c-0.1-0.2-0.1-0.5-0.1-0.8
		c0-0.3,0-0.5,0.1-0.8c0.1-0.2,0.2-0.5,0.4-0.6c0.2-0.2,0.4-0.3,0.6-0.4c0.2-0.1,0.5-0.2,0.8-0.2s0.6,0.1,0.8,0.2s0.4,0.3,0.6,0.5
		c0.2,0.2,0.3,0.4,0.4,0.7c0.1,0.3,0.1,0.6,0.1,0.9v0.4c0,0.4,0,0.7-0.1,1c-0.1,0.3-0.2,0.6-0.4,0.9c-0.2,0.3-0.4,0.5-0.6,0.7
		c-0.2,0.2-0.5,0.3-0.8,0.4c-0.3,0.1-0.7,0.1-1,0.1h-0.1V251.9z"/>
</g>
<path class="st1" d="M161.2,234.2c0.2,0.2,0.5,0.2,0.7,0l3.2-3.2c0.2-0.2,0.2-0.5,0-0.7c-0.2-0.2-0.5-0.2-0.7,0l-2.8,2.8l-2.8-2.8
	c-0.2-0.2-0.5-0.2-0.7,0c-0.2,0.2-0.2,0.5,0,0.7L161.2,234.2z M161.9,183.4c-0.2-0.2-0.5-0.2-0.7,0l-3.2,3.2c-0.2,0.2-0.2,0.5,0,0.7
	c0.2,0.2,0.5,0.2,0.7,0l2.8-2.8l2.8,2.8c0.2,0.2,0.5,0.2,0.7,0c0.2-0.2,0.2-0.5,0-0.7L161.9,183.4z M162.1,233.9v-50.1h-1v50.1
	H162.1z"/>
<g>
	<path class="st1" d="M163.9,211.3h5.7v1.1h-4.4l0.4,1.4h-0.9l-0.8-2.4V211.3z M163.8,207.3v-0.2h0.9v0.1c0,0.3,0,0.6,0.1,0.8
		c0.1,0.2,0.2,0.4,0.4,0.6c0.2,0.2,0.4,0.3,0.6,0.4c0.2,0.1,0.5,0.1,0.8,0.1h0.9c0.2,0,0.4,0,0.5-0.1c0.2,0,0.3-0.1,0.4-0.2
		c0.1-0.1,0.2-0.2,0.2-0.3c0.1-0.1,0.1-0.2,0.1-0.4c0-0.1,0-0.2-0.1-0.3c-0.1-0.1-0.1-0.2-0.2-0.3c-0.1-0.1-0.2-0.1-0.3-0.2
		c-0.1,0-0.3-0.1-0.4-0.1c-0.2,0-0.3,0-0.4,0.1c-0.1,0-0.2,0.1-0.3,0.2c-0.1,0.1-0.2,0.2-0.2,0.3c-0.1,0.1-0.1,0.2-0.1,0.4
		c0,0.2,0,0.3,0.1,0.5c0.1,0.1,0.2,0.2,0.3,0.3c0.1,0.1,0.3,0.1,0.4,0.1l-0.2,0.3c-0.2,0-0.4,0-0.6-0.1c-0.2-0.1-0.3-0.2-0.5-0.3
		c-0.1-0.1-0.2-0.3-0.3-0.5c-0.1-0.2-0.1-0.4-0.1-0.7c0-0.3,0.1-0.5,0.2-0.7c0.1-0.2,0.2-0.4,0.4-0.5c0.2-0.1,0.4-0.2,0.6-0.3
		c0.2-0.1,0.5-0.1,0.7-0.1c0.3,0,0.5,0,0.8,0.1c0.2,0.1,0.4,0.2,0.6,0.4c0.2,0.2,0.3,0.4,0.4,0.6c0.1,0.2,0.1,0.5,0.1,0.8
		c0,0.3-0.1,0.6-0.2,0.8c-0.1,0.2-0.3,0.5-0.5,0.6c-0.2,0.2-0.4,0.3-0.7,0.4c-0.3,0.1-0.6,0.1-0.9,0.1h-0.4c-0.5,0-0.9-0.1-1.3-0.2
		c-0.4-0.1-0.7-0.3-1-0.6c-0.3-0.3-0.5-0.6-0.7-0.9C163.9,208.2,163.8,207.8,163.8,207.3z"/>
</g>
<rect x="206" y="183" class="st0" width="49.7" height="68.3"/>
<path class="st1" d="M204.5,262c-0.2,0.2-0.2,0.5,0,0.7l3.2,3.2c0.2,0.2,0.5,0.2,0.7,0c0.2-0.2,0.2-0.5,0-0.7l-2.8-2.8l2.8-2.8
	c0.2-0.2,0.2-0.5,0-0.7c-0.2-0.2-0.5-0.2-0.7,0L204.5,262z M257.2,262.7c0.2-0.2,0.2-0.5,0-0.7l-3.2-3.2c-0.2-0.2-0.5-0.2-0.7,0
	c-0.2,0.2-0.2,0.5,0,0.7l2.8,2.8l-2.8,2.8c-0.2,0.2-0.2,0.5,0,0.7c0.2,0.2,0.5,0.2,0.7,0L257.2,262.7z M204.9,262.8h52v-1h-52V262.8
	z"/>
<g>
	<path class="st1" d="M231.2,266.3h0.6c0.2,0,0.4,0,0.5-0.1c0.1-0.1,0.2-0.2,0.3-0.3c0.1-0.1,0.1-0.3,0.1-0.4c0-0.1,0-0.3-0.1-0.4
		c-0.1-0.1-0.1-0.2-0.3-0.3c-0.1-0.1-0.3-0.1-0.4-0.1c-0.1,0-0.3,0-0.4,0.1c-0.1,0.1-0.2,0.1-0.3,0.2c-0.1,0.1-0.1,0.2-0.1,0.4H230
		c0-0.3,0.1-0.6,0.2-0.8c0.2-0.2,0.4-0.4,0.7-0.5s0.6-0.2,0.9-0.2c0.4,0,0.7,0.1,1,0.2c0.3,0.1,0.5,0.3,0.7,0.5s0.2,0.5,0.2,0.9
		c0,0.2,0,0.4-0.1,0.5c-0.1,0.2-0.2,0.3-0.4,0.5c-0.2,0.1-0.3,0.2-0.6,0.3c-0.2,0.1-0.5,0.1-0.7,0.1h-0.8V266.3z M231.2,267.1v-0.6
		h0.8c0.3,0,0.6,0,0.8,0.1c0.2,0.1,0.4,0.2,0.6,0.3c0.2,0.1,0.3,0.3,0.4,0.5c0.1,0.2,0.1,0.4,0.1,0.6c0,0.3-0.1,0.5-0.2,0.7
		c-0.1,0.2-0.2,0.4-0.4,0.5c-0.2,0.1-0.4,0.3-0.6,0.3c-0.2,0.1-0.5,0.1-0.8,0.1c-0.2,0-0.5,0-0.7-0.1c-0.2-0.1-0.4-0.2-0.6-0.3
		c-0.2-0.1-0.3-0.3-0.4-0.5c-0.1-0.2-0.2-0.4-0.2-0.7h1.1c0,0.1,0,0.3,0.1,0.4c0.1,0.1,0.2,0.2,0.3,0.3c0.1,0.1,0.3,0.1,0.4,0.1
		c0.2,0,0.3,0,0.5-0.1c0.1-0.1,0.2-0.2,0.3-0.3c0.1-0.1,0.1-0.3,0.1-0.4c0-0.2,0-0.4-0.1-0.5c-0.1-0.1-0.2-0.2-0.3-0.3
		c-0.1-0.1-0.3-0.1-0.5-0.1H231.2z"/>
</g>
<path class="st1" d="M265.2,250.9c0.2,0.2,0.5,0.2,0.7,0l3.2-3.2c0.2-0.2,0.2-0.5,0-0.7c-0.2-0.2-0.5-0.2-0.7,0l-2.8,2.8l-2.8-2.8
	c-0.2-0.2-0.5-0.2-0.7,0c-0.2,0.2-0.2,0.5,0,0.7L265.2,250.9z M265.9,185.2c-0.2-0.2-0.5-0.2-0.7,0l-3.2,3.2c-0.2,0.2-0.2,0.5,0,0.7
	c0.2,0.2,0.5,0.2,0.7,0l2.8-2.8l2.8,2.8c0.2,0.2,0.5,0.2,0.7,0c0.2-0.2,0.2-0.5,0-0.7L265.9,185.2z M266.1,250.6v-65h-1v65H266.1z"
	/>
<g>
	<path class="st1" d="M271.1,218.2h0.9v4.1l-0.7,0.1l-3.8-2.4v-0.9l1.6,1l1.9,1.2V218.2z M267.5,218.8h5.7v1.1h-5.7V218.8z"/>
</g>
<rect x="314" y="183" class="st0" width="86.9" height="86.9"/>
<path class="st1" d="M412.8,271.4c0.2,0.2,0.5,0.2,0.7,0l3.2-3.2c0.2-0.2,0.2-0.5,0-0.7c-0.2-0.2-0.5-0.2-0.7,0l-2.8,2.8l-2.8-2.8
	c-0.2-0.2-0.5-0.2-0.7,0c-0.2,0.2-0.2,0.5,0,0.7L412.8,271.4z M413.5,181.5c-0.2-0.2-0.5-0.2-0.7,0l-3.2,3.2c-0.2,0.2-0.2,0.5,0,0.7
	c0.2,0.2,0.5,0.2,0.7,0l2.8-2.8l2.8,2.8c0.2,0.2,0.5,0.2,0.7,0c0.2-0.2,0.2-0.5,0-0.7L413.5,181.5z M413.6,271v-89.1h-1V271H413.6z"
	/>
<g>
	<path class="st1" d="M417.8,223.7v5.7h-1v-4.5l-1.4,0.5v-0.8l2.3-0.8H417.8z"/>
</g>
<path class="st1" d="M312.5,281.8c-0.2,0.2-0.2,0.5,0,0.7l3.2,3.2c0.2,0.2,0.5,0.2,0.7,0c0.2-0.2,0.2-0.5,0-0.7l-2.8-2.8l2.8-2.8
	c0.2-0.2,0.2-0.5,0-0.7c-0.2-0.2-0.5-0.2-0.7,0L312.5,281.8z M402.4,282.5c0.2-0.2,0.2-0.5,0-0.7l-3.2-3.2c-0.2-0.2-0.5-0.2-0.7,0
	c-0.2,0.2-0.2,0.5,0,0.7l2.8,2.8l-2.8,2.8c-0.2,0.2-0.2,0.5,0,0.7c0.2,0.2,0.5,0.2,0.7,0L402.4,282.5z M312.9,282.6H402v-1h-89.1
	V282.6z"/>
<g>
	<path class="st1" d="M356.7,285.1v5.7h-1v-4.5l-1.4,0.5V286l2.3-0.8H356.7z"/>
</g>
<rect x="464" y="183" class="st0" width="68.3" height="49.7"/>
<path class="st1" d="M542.4,179.6c-0.2-0.2-0.5-0.2-0.7,0l-3.2,3.2c-0.2,0.2-0.2,0.5,0,0.7c0.2,0.2,0.5,0.2,0.7,0l2.8-2.8l2.8,2.8
	c0.2,0.2,0.5,0.2,0.7,0c0.2-0.2,0.2-0.5,0-0.7L542.4,179.6z M541.7,232.4c0.2,0.2,0.5,0.2,0.7,0l3.2-3.2c0.2-0.2,0.2-0.5,0-0.7
	c-0.2-0.2-0.5-0.2-0.7,0l-2.8,2.8l-2.8-2.8c-0.2-0.2-0.5-0.2-0.7,0c-0.2,0.2-0.2,0.5,0,0.7L541.7,232.4z M541.6,180v52h1v-52H541.6z
	"/>
<g>
	<path class="st1" d="M545.3,206.8v-0.6c0-0.2,0-0.4-0.1-0.5c-0.1-0.1-0.2-0.2-0.3-0.3c-0.1-0.1-0.3-0.1-0.4-0.1
		c-0.2,0-0.3,0-0.4,0.1c-0.1,0.1-0.2,0.2-0.3,0.3c-0.1,0.1-0.1,0.3-0.1,0.5c0,0.2,0,0.3,0.1,0.4c0.1,0.1,0.1,0.2,0.3,0.3
		c0.1,0.1,0.2,0.1,0.4,0.1v1c-0.3,0-0.6-0.1-0.8-0.2c-0.2-0.2-0.4-0.4-0.5-0.7c-0.1-0.3-0.2-0.6-0.2-0.9c0-0.4,0.1-0.7,0.2-1
		c0.1-0.3,0.3-0.5,0.5-0.7c0.2-0.2,0.5-0.2,0.9-0.2c0.2,0,0.3,0,0.5,0.1c0.2,0.1,0.3,0.2,0.5,0.3c0.1,0.2,0.2,0.3,0.3,0.6
		c0.1,0.2,0.1,0.5,0.1,0.8v0.7H545.3z M546.1,206.8h-0.6v-0.7c0-0.3,0-0.6,0.1-0.8c0.1-0.2,0.2-0.4,0.3-0.6c0.1-0.2,0.3-0.3,0.5-0.3
		c0.2-0.1,0.4-0.1,0.6-0.1c0.3,0,0.5,0.1,0.7,0.1c0.2,0.1,0.4,0.2,0.5,0.4c0.1,0.2,0.3,0.4,0.3,0.6c0.1,0.2,0.1,0.5,0.1,0.8
		c0,0.2,0,0.5-0.1,0.7c-0.1,0.2-0.2,0.4-0.3,0.6c-0.1,0.2-0.3,0.3-0.5,0.4c-0.2,0.1-0.4,0.2-0.7,0.2v-1c0.2,0,0.3,0,0.4-0.1
		c0.1-0.1,0.2-0.2,0.3-0.3c0.1-0.1,0.1-0.3,0.1-0.5c0-0.2,0-0.4-0.1-0.5c-0.1-0.1-0.2-0.2-0.3-0.3c-0.1-0.1-0.3-0.1-0.5-0.1
		c-0.2,0-0.4,0-0.5,0.1c-0.1,0.1-0.2,0.2-0.3,0.3c-0.1,0.1-0.1,0.3-0.1,0.5V206.8z"/>
</g>
<path class="st1" d="M464.4,243.1c-0.2,0.2-0.2,0.5,0,0.7l3.2,3.2c0.2,0.2,0.5,0.2,0.7,0c0.2-0.2,0.2-0.5,0-0.7l-2.8-2.8l2.8-2.8
	c0.2-0.2,0.2-0.5,0-0.7c-0.2-0.2-0.5-0.2-0.7,0L464.4,243.1z M530.1,243.8c0.2-0.2,0.2-0.5,0-0.7l-3.2-3.2c-0.2-0.2-0.5-0.2-0.7,0
	c-0.2,0.2-0.2,0.5,0,0.7l2.8,2.8l-2.8,2.8c-0.2,0.2-0.2,0.5,0,0.7c0.2,0.2,0.5,0.2,0.7,0L530.1,243.8z M464.7,244h65v-1h-65V244z"/>
<g>
	<path class="st1" d="M496.9,249.9v0.8h-4.1l0-0.6l2.4-3.8h0.8l-0.9,1.5l-1.3,2.1H496.9z M496.3,246.3v5.7h-1v-5.7H496.3z"/>
</g>
<rect x="588" y="183" class="st0" width="53.4" height="27.4"/>
<path class="st1" d="M650.4,181.6c-0.2-0.2-0.5-0.2-0.7,0l-3.2,3.2c-0.2,0.2-0.2,0.5,0,0.7c0.2,0.2,0.5,0.2,0.7,0l2.8-2.8l2.8,2.8
	c0.2,0.2,0.5,0.2,0.7,0c0.2-0.2,0.2-0.5,0-0.7L650.4,181.6z M649.6,214.9c0.2,0.2,0.5,0.2,0.7,0l3.2-3.2c0.2-0.2,0.2-0.5,0-0.7
	c-0.2-0.2-0.5-0.2-0.7,0l-2.8,2.8l-2.8-2.8c-0.2-0.2-0.5-0.2-0.7,0c-0.2,0.2-0.2,0.5,0,0.7L649.6,214.9z M649.5,182v32.5h1V182
	H649.5z"/>
<g>
	<path class="st1" d="M652.7,197.3L652.7,197.3c0,0.4,0,0.7,0.1,0.9c0.1,0.2,0.2,0.4,0.4,0.6c0.2,0.1,0.3,0.3,0.6,0.3
		c0.2,0.1,0.5,0.1,0.7,0.1h1c0.2,0,0.4,0,0.6-0.1c0.2,0,0.3-0.1,0.4-0.2c0.1-0.1,0.2-0.2,0.2-0.3c0.1-0.1,0.1-0.2,0.1-0.3
		c0-0.1,0-0.3-0.1-0.4c-0.1-0.1-0.1-0.2-0.3-0.3c-0.1-0.1-0.2-0.1-0.4-0.2c-0.1,0-0.3-0.1-0.4-0.1c-0.2,0-0.3,0-0.4,0.1
		c-0.1,0-0.3,0.1-0.4,0.2c-0.1,0.1-0.2,0.2-0.3,0.3c-0.1,0.1-0.1,0.2-0.1,0.4c0,0.1,0,0.3,0.1,0.4c0.1,0.1,0.1,0.2,0.2,0.3
		c0.1,0.1,0.2,0.1,0.3,0.2c0.1,0,0.2,0.1,0.3,0.1l-0.2,0.4c-0.2,0-0.4,0-0.6-0.1c-0.2-0.1-0.4-0.2-0.5-0.3c-0.1-0.1-0.3-0.3-0.4-0.5
		c-0.1-0.2-0.1-0.4-0.1-0.6c0-0.3,0-0.5,0.1-0.7c0.1-0.2,0.2-0.4,0.4-0.5c0.2-0.1,0.4-0.2,0.6-0.3c0.2-0.1,0.5-0.1,0.7-0.1
		c0.3,0,0.5,0,0.8,0.1c0.2,0.1,0.5,0.2,0.6,0.4c0.2,0.2,0.3,0.4,0.4,0.6c0.1,0.2,0.2,0.5,0.2,0.8c0,0.3-0.1,0.6-0.2,0.8
		c-0.1,0.2-0.3,0.4-0.5,0.6c-0.2,0.2-0.4,0.3-0.7,0.4c-0.3,0.1-0.6,0.1-0.9,0.1H655c-0.4,0-0.7,0-1-0.1c-0.3-0.1-0.6-0.2-0.9-0.3
		c-0.3-0.1-0.5-0.3-0.7-0.6c-0.2-0.2-0.3-0.5-0.4-0.8c-0.1-0.3-0.2-0.7-0.2-1.1v-0.1H652.7z"/>
</g>
<path class="st1" d="M590.2,219.2c-0.2,0.2-0.2,0.5,0,0.7l3.2,3.2c0.2,0.2,0.5,0.2,0.7,0c0.2-0.2,0.2-0.5,0-0.7l-2.8-2.8l2.8-2.8
	c0.2-0.2,0.2-0.5,0-0.7c-0.2-0.2-0.5-0.2-0.7,0L590.2,219.2z M641.1,219.9c0.2-0.2,0.2-0.5,0-0.7l-3.2-3.2c-0.2-0.2-0.5-0.2-0.7,0
	c-0.2,0.2-0.2,0.5,0,0.7l2.8,2.8l-2.8,2.8c-0.2,0.2-0.2,0.5,0,0.7c0.2,0.2,0.5,0.2,0.7,0L641.1,219.9z M590.6,220.1h50.1v-1h-50.1
	V220.1z"/>
<g>
	<path class="st1" d="M613.7,221.9v5.7h-1v-4.5l-1.4,0.5v-0.8l2.3-0.8H613.7z M617.6,221.8h0.1v0.8h-0.1c-0.3,0-0.6,0-0.8,0.1
		c-0.2,0.1-0.4,0.2-0.6,0.4c-0.2,0.2-0.3,0.4-0.4,0.6c-0.1,0.2-0.1,0.5-0.1,0.8v0.9c0,0.2,0,0.4,0.1,0.6c0,0.2,0.1,0.3,0.2,0.4
		c0.1,0.1,0.2,0.2,0.3,0.2c0.1,0.1,0.2,0.1,0.4,0.1c0.1,0,0.3,0,0.4-0.1c0.1-0.1,0.2-0.1,0.3-0.2c0.1-0.1,0.1-0.2,0.2-0.4
		c0-0.1,0.1-0.3,0.1-0.4c0-0.2,0-0.3-0.1-0.4s-0.1-0.3-0.2-0.4c-0.1-0.1-0.2-0.2-0.3-0.2c-0.1-0.1-0.2-0.1-0.4-0.1
		c-0.2,0-0.3,0-0.5,0.1c-0.1,0.1-0.3,0.2-0.3,0.3c-0.1,0.1-0.1,0.3-0.1,0.4l-0.3-0.2c0-0.2,0.1-0.4,0.1-0.6c0.1-0.2,0.2-0.3,0.3-0.5
		c0.1-0.1,0.3-0.2,0.5-0.3c0.2-0.1,0.4-0.1,0.6-0.1c0.3,0,0.5,0.1,0.7,0.2c0.2,0.1,0.4,0.2,0.5,0.4c0.1,0.2,0.2,0.4,0.3,0.6
		c0.1,0.2,0.1,0.5,0.1,0.7c0,0.3,0,0.5-0.1,0.8c-0.1,0.2-0.2,0.4-0.4,0.6c-0.2,0.2-0.4,0.3-0.6,0.4c-0.2,0.1-0.5,0.1-0.8,0.1
		c-0.3,0-0.6-0.1-0.8-0.2c-0.2-0.1-0.4-0.3-0.6-0.5c-0.2-0.2-0.3-0.4-0.4-0.7c-0.1-0.3-0.1-0.6-0.1-0.9V225c0-0.4,0.1-0.9,0.2-1.2
		c0.1-0.4,0.3-0.7,0.5-1c0.2-0.3,0.5-0.5,0.9-0.7C616.8,221.9,617.2,221.8,617.6,221.8z"/>
</g>
<rect x="699.3" y="173.8" transform="matrix(2.026265e-03 -1 1 2.026265e-03 514.8182 913.1185)" class="st0" width="31.1" height="49.7"/>
<path class="st1" d="M749.9,214.4c0.2,0.2,0.5,0.2,0.7,0l3.2-3.2c0.2-0.2,0.2-0.5,0-0.7c-0.2-0.2-0.5-0.2-0.7,0l-2.8,2.8l-2.8-2.8
	c-0.2-0.2-0.5-0.2-0.7,0c-0.2,0.2-0.2,0.5,0,0.7L749.9,214.4z M750.5,181.2c-0.2-0.2-0.5-0.2-0.7,0l-3.2,3.2c-0.2,0.2-0.2,0.5,0,0.7
	c0.2,0.2,0.5,0.2,0.7,0l2.8-2.8l2.8,2.8c0.2,0.2,0.5,0.2,0.7,0c0.2-0.2,0.2-0.5,0-0.7L750.5,181.2z M750.8,214.1l-0.1-32.5l-1,0
	l0.1,32.5L750.8,214.1z"/>
<g>
	<path class="st1" d="M751.8,197.2l5.7,0l0,1.1l-4.4,0l0.4,1.4l-0.9,0l-0.8-2.4L751.8,197.2z"/>
</g>
<path class="st1" d="M690.7,222.7c-0.2,0.2-0.2,0.5,0,0.7l2.8,3.2c0.2,0.2,0.5,0.2,0.6,0c0.2-0.2,0.2-0.5,0-0.7l-2.5-2.8l2.5-2.8
	c0.2-0.2,0.2-0.5,0-0.7c-0.2-0.2-0.5-0.2-0.6,0L690.7,222.7z M736.1,223.5c0.2-0.2,0.2-0.5,0-0.7l-2.8-3.2c-0.2-0.2-0.5-0.2-0.6,0
	c-0.2,0.2-0.2,0.5,0,0.7l2.5,2.8l-2.5,2.8c-0.2,0.2-0.2,0.5,0,0.7c0.2,0.2,0.5,0.2,0.6,0L736.1,223.5z M691.1,223.6l44.7,0.1l0-1
	l-44.7-0.1L691.1,223.6z"/>
<g>
	<path class="st1" d="M714.1,230.8l0,0.9l-3.9-0.1l0-0.7l1.9-1.9c0.2-0.2,0.3-0.4,0.4-0.5c0.1-0.2,0.2-0.3,0.2-0.4
		c0.1-0.1,0.1-0.2,0.1-0.4c0-0.2,0-0.3-0.1-0.4c-0.1-0.1-0.1-0.2-0.2-0.3c-0.1-0.1-0.2-0.1-0.4-0.1c-0.2,0-0.3,0-0.4,0.1
		c-0.1,0.1-0.2,0.2-0.3,0.3c-0.1,0.1-0.1,0.3-0.1,0.5l-1.1,0c0-0.3,0.1-0.6,0.3-0.9c0.2-0.3,0.4-0.5,0.7-0.7
		c0.3-0.2,0.6-0.2,1.1-0.2c0.4,0,0.7,0.1,1,0.2c0.3,0.1,0.5,0.3,0.6,0.6c0.1,0.2,0.2,0.5,0.2,0.9c0,0.2,0,0.4-0.1,0.5
		c-0.1,0.2-0.2,0.4-0.3,0.5c-0.1,0.2-0.2,0.3-0.4,0.5c-0.2,0.2-0.3,0.4-0.5,0.5l-1,1.1L714.1,230.8z"/>
</g>
</svg>
